<svg width="249" height="247" viewBox="0 0 249 247" fill="none" xmlns="http://www.w3.org/2000/svg">
<g clip-path="url(#clip0_713_139)">
<path d="M248.035 188.818H0V188.941H248.035V188.818Z" fill="#EBEBEB"/>
<path d="M38.9218 193.519H26.0239V193.642H38.9218V193.519Z" fill="#EBEBEB"/>
<path d="M99.4273 192.18H72.5898V192.304H99.4273V192.18Z" fill="#EBEBEB"/>
<path d="M52.4741 198.106H39.4175V198.229H52.4741V198.106Z" fill="#EBEBEB"/>
<path d="M223.182 197.276H213.643V197.4H223.182V197.276Z" fill="#EBEBEB"/>
<path d="M209.223 197.276H194.197V197.4H209.223V197.276Z" fill="#EBEBEB"/>
<path d="M155.166 195.192H128.1V195.316H155.166V195.192Z" fill="#EBEBEB"/>
<path d="M117.568 166.796H21.7822C21.0318 166.794 20.3126 166.497 19.7825 165.968C19.2523 165.44 18.9546 164.723 18.9546 163.976V29.9522C18.9611 29.2096 19.2618 28.4995 19.7912 27.9763C20.3206 27.453 21.0361 27.1587 21.7822 27.1575H117.568C118.32 27.1575 119.04 27.4545 119.571 27.9833C120.103 28.512 120.401 29.2291 120.401 29.9769V163.976C120.401 164.724 120.103 165.441 119.571 165.97C119.04 166.499 118.32 166.796 117.568 166.796ZM21.7822 27.2562C21.0647 27.2575 20.377 27.5422 19.8702 28.0476C19.3633 28.5531 19.0786 29.238 19.0786 29.9522V163.976C19.0786 164.691 19.3633 165.375 19.8702 165.881C20.377 166.386 21.0647 166.671 21.7822 166.672H117.568C118.286 166.671 118.975 166.387 119.482 165.881C119.99 165.376 120.276 164.691 120.277 163.976V29.9522C120.276 29.2376 119.99 28.5526 119.482 28.0473C118.975 27.542 118.286 27.2575 117.568 27.2562H21.7822Z" fill="#EBEBEB"/>
<path d="M224.874 166.796H129.083C128.332 166.794 127.612 166.497 127.081 165.969C126.55 165.44 126.251 164.724 126.25 163.976V29.9522C126.258 29.2091 126.56 28.4991 127.09 27.9759C127.62 27.4528 128.336 27.1587 129.083 27.1575H224.874C225.619 27.16 226.333 27.4548 226.862 27.978C227.39 28.5011 227.69 29.2104 227.696 29.9522V163.976C227.696 164.722 227.399 165.438 226.87 165.966C226.341 166.495 225.623 166.793 224.874 166.796ZM129.083 27.2562C128.365 27.2575 127.676 27.542 127.169 28.0473C126.661 28.5526 126.375 29.2376 126.374 29.9522V163.976C126.375 164.691 126.661 165.376 127.169 165.881C127.676 166.387 128.365 166.671 129.083 166.672H224.874C225.592 166.671 226.28 166.387 226.788 165.881C227.295 165.376 227.581 164.691 227.582 163.976V29.9522C227.581 29.2376 227.295 28.5526 226.788 28.0473C226.28 27.542 225.592 27.2575 224.874 27.2562H129.083Z" fill="#EBEBEB"/>
<path d="M218.891 136.942H205.249V188.818H218.891V136.942Z" fill="#E6E6E6"/>
<path d="M216.301 188.818H218.891V181.48H213.583L216.301 188.818Z" fill="#F0F0F0"/>
<path d="M141.048 136.942H127.406V188.818H141.048V136.942Z" fill="#E6E6E6"/>
<path d="M218.891 136.942H138.786V184.315H218.891V136.942Z" fill="#F0F0F0"/>
<path d="M141.45 139.342V175.14H165.197V139.342H141.45Z" fill="#E6E6E6"/>
<path d="M155.672 141.396H150.974C149.965 141.396 148.965 141.192 148.038 140.796C147.11 140.399 146.273 139.819 145.577 139.09H161.069C160.374 139.819 159.537 140.399 158.609 140.796C157.681 141.192 156.682 141.396 155.672 141.396Z" fill="#F0F0F0"/>
<path d="M166.967 139.347V175.146H190.714V139.347H166.967Z" fill="#E6E6E6"/>
<path d="M181.427 141.396H176.73C175.721 141.396 174.722 141.191 173.796 140.795C172.869 140.398 172.032 139.818 171.337 139.09H186.825C186.129 139.819 185.292 140.399 184.364 140.796C183.436 141.192 182.437 141.396 181.427 141.396Z" fill="#F0F0F0"/>
<path d="M192.48 139.347V175.146H216.227V139.347H192.48Z" fill="#E6E6E6"/>
<path d="M206.946 141.396H202.248C201.238 141.396 200.239 141.192 199.311 140.796C198.383 140.399 197.546 139.819 196.851 139.09H212.318C211.626 139.816 210.792 140.395 209.869 140.791C208.946 141.187 207.951 141.393 206.946 141.396Z" fill="#F0F0F0"/>
<path d="M141.375 188.818H138.786V181.48H144.094L141.375 188.818Z" fill="#F0F0F0"/>
<path d="M109.016 36.5342H33.8618V106.6H109.016V36.5342Z" fill="#E6E6E6"/>
<path d="M111.715 36.5342H35.1221V106.6H111.715V36.5342Z" fill="#F0F0F0"/>
<path d="M109.016 106.6H33.8618V111.592H109.016V106.6Z" fill="#E6E6E6"/>
<path d="M116.209 106.6H39.6162V111.592H116.209V106.6Z" fill="#F0F0F0"/>
<path d="M107.94 102.838V40.2966L38.9018 40.2966V102.838H107.94Z" fill="#F9F9F9"/>
<path d="M46.1299 102.838L68.3092 40.2966H78.7763L56.597 102.838H46.1299Z" fill="white"/>
<path d="M40.6478 81.6203C40.7201 81.6203 40.7895 81.5916 40.8407 81.5407C40.8919 81.4898 40.9206 81.4207 40.9206 81.3487V42.7408C40.9193 42.6696 40.89 42.6018 40.839 42.5519C40.7879 42.502 40.7193 42.4741 40.6478 42.4741C40.5767 42.4741 40.5086 42.5022 40.4583 42.5522C40.4081 42.6022 40.3799 42.67 40.3799 42.7408V81.3487C40.3799 81.4199 40.4079 81.4882 40.458 81.539C40.5081 81.5898 40.5763 81.619 40.6478 81.6203Z" fill="#F0F0F0"/>
<path d="M58.8486 102.838L81.0279 40.2966H85.1056L62.9313 102.838H58.8486Z" fill="white"/>
<path d="M107.935 102.838V40.2966H107.454V102.838H107.935Z" fill="#E6E6E6"/>
<path opacity="0.5" d="M112.608 46.7799H37.4537L37.1064 41.7583H112.261L112.608 46.7799Z" fill="#E6E6E6"/>
<path opacity="0.5" d="M112.608 50.4535H37.4537L37.1064 45.4319H112.261L112.608 50.4535Z" fill="#E6E6E6"/>
<path opacity="0.5" d="M112.608 54.863H37.4537L37.1064 49.8413H112.261L112.608 54.863Z" fill="#E6E6E6"/>
<path opacity="0.5" d="M112.608 59.7709H37.4537L37.1064 54.7493H112.261L112.608 59.7709Z" fill="#E6E6E6"/>
<path opacity="0.5" d="M112.608 65.6518H37.4537L37.1064 60.6301H112.261L112.608 65.6518Z" fill="#E6E6E6"/>
<path opacity="0.5" d="M112.608 72.2633H37.4537L37.1064 67.2417H112.261L112.608 72.2633Z" fill="#E6E6E6"/>
<path d="M113.417 142.305H91.1729V188.818H113.417V142.305Z" fill="#E6E6E6"/>
<path d="M111.179 188.818H113.417V182.483H108.833L111.179 188.818Z" fill="#F0F0F0"/>
<path d="M58.6999 142.305H36.4561V188.818H58.6999V142.305Z" fill="#E6E6E6"/>
<path d="M113.412 142.305H56.7456V184.932H113.412V142.305Z" fill="#F0F0F0"/>
<path d="M111.68 144.191H58.4814V155.883H111.68V144.191Z" fill="#E6E6E6"/>
<path d="M87.5914 147.825H82.5662C80.3835 147.825 78.3 146.383 76.7969 143.835H93.3656C91.8625 146.383 89.789 147.825 87.5914 147.825Z" fill="#F0F0F0"/>
<path d="M58.9829 188.818H56.7456V182.483H61.3293L58.9829 188.818Z" fill="#F0F0F0"/>
<path d="M111.68 157.77H58.4814V169.462H111.68V157.77Z" fill="#E6E6E6"/>
<path d="M87.5914 161.404H82.5662C80.3835 161.404 78.3 159.962 76.7969 157.414H93.3656C91.8625 159.982 89.789 161.404 87.5914 161.404Z" fill="#F0F0F0"/>
<path d="M111.68 171.348H58.4814V183.041H111.68V171.348Z" fill="#E6E6E6"/>
<path d="M87.5914 174.982H82.5662C80.3835 174.982 78.3 173.541 76.7969 170.993H93.3656C91.8625 173.541 89.789 174.982 87.5914 174.982Z" fill="#F0F0F0"/>
<path d="M203.225 46.1528H160.037V103.647H203.225V46.1528Z" fill="#E6E6E6"/>
<path d="M206.033 46.1528H160.642V103.647H206.033V46.1528Z" fill="#F0F0F0"/>
<path d="M199.748 97.3915V52.4041H166.923V97.3915H199.748Z" fill="white"/>
<path d="M199.748 97.3915V52.4041H199.257V97.3915H199.748Z" fill="#E6E6E6"/>
<path d="M183.948 65.3853H174.121C174.024 65.3852 173.932 65.4231 173.863 65.4905C173.794 65.558 173.755 65.6497 173.754 65.7457V75.5075C173.762 77.8624 174.705 80.1185 176.378 81.7836C178.051 83.4487 180.317 84.3876 182.683 84.3954H192.49C192.588 84.3954 192.681 84.3569 192.75 84.2884C192.819 84.2199 192.858 84.1269 192.858 84.03V74.2879C192.855 71.9336 191.917 69.6759 190.247 68.0078C188.578 66.3398 186.313 65.397 183.948 65.3853ZM182.723 83.6893C180.544 83.6867 178.455 82.8237 176.915 81.2898C175.375 79.7558 174.509 77.6762 174.508 75.5075V66.1259H183.933C186.112 66.1285 188.2 66.9907 189.741 68.5234C191.282 70.0562 192.149 72.1345 192.153 74.3027L182.723 83.6893Z" fill="#F0F0F0"/>
<path d="M124.018 211.116C177.138 211.116 220.201 208.614 220.201 205.527C220.201 202.44 177.138 199.938 124.018 199.938C70.8971 199.938 27.8345 202.44 27.8345 205.527C27.8345 208.614 70.8971 211.116 124.018 211.116Z" fill="#F5F5F5"/>
<path d="M122.326 43.4519C121.875 40.7263 123.725 38.5142 126.463 38.5142H106.457C103.719 38.5142 101.868 40.7213 102.32 43.4519H122.326Z" fill="#223C6A"/>
<path opacity="0.3" d="M122.326 43.4519C121.875 40.7263 123.725 38.5142 126.463 38.5142H106.457C103.719 38.5142 101.868 40.7213 102.32 43.4519H122.326Z" fill="black"/>
<path d="M126.464 38.5142H106.457C107.842 38.5599 109.169 39.074 110.221 39.9717C111.272 40.8693 111.985 42.0969 112.241 43.4519L116.622 69.7797C116.879 71.1343 117.592 72.3613 118.643 73.2588C119.694 74.1563 121.021 74.6707 122.406 74.7174H132.496C135.234 74.7174 137.084 72.5053 136.633 69.7797L132.248 43.4519C131.991 42.0969 131.279 40.8693 130.227 39.9717C129.176 39.074 127.848 38.5599 126.464 38.5142Z" fill="#223C6A"/>
<path d="M126.543 69.7944C126.994 72.5201 125.144 74.7322 122.406 74.7322H142.412C143.035 74.7531 143.654 74.6323 144.223 74.3789C144.791 74.1255 145.295 73.7462 145.694 73.27C146.093 72.7937 146.377 72.2331 146.525 71.6308C146.674 71.0284 146.682 70.4004 146.55 69.7944H126.543Z" fill="#223C6A"/>
<path opacity="0.3" d="M126.543 69.7944C126.994 72.5201 125.144 74.7322 122.406 74.7322H142.412C143.035 74.7531 143.654 74.6323 144.223 74.3789C144.791 74.1255 145.295 73.7462 145.694 73.27C146.093 72.7937 146.377 72.2331 146.525 71.6308C146.674 71.0284 146.682 70.4004 146.55 69.7944H126.543Z" fill="black"/>
<path d="M129.762 45.7381H115.48C115.397 45.7351 115.318 45.7041 115.255 45.6503C115.192 45.5965 115.149 45.523 115.133 45.4418C115.125 45.4054 115.125 45.3675 115.134 45.3312C115.142 45.2949 115.159 45.261 115.183 45.2323C115.207 45.2036 115.238 45.1809 115.272 45.1658C115.306 45.1507 115.344 45.1438 115.381 45.1455H129.663C129.746 45.1485 129.826 45.1794 129.889 45.2332C129.952 45.2871 129.995 45.3606 130.01 45.4418C130.019 45.4782 130.019 45.516 130.01 45.5524C130.001 45.5887 129.984 45.6226 129.96 45.6513C129.936 45.68 129.906 45.7027 129.872 45.7178C129.837 45.7328 129.8 45.7398 129.762 45.7381Z" fill="white"/>
<path d="M121.85 47.792H115.823C115.74 47.789 115.66 47.7581 115.597 47.7043C115.534 47.6505 115.491 47.5769 115.476 47.4957C115.467 47.4594 115.467 47.4215 115.476 47.3852C115.485 47.3488 115.502 47.315 115.526 47.2863C115.55 47.2576 115.58 47.2348 115.614 47.2198C115.649 47.2047 115.686 47.1978 115.724 47.1995H121.751C121.834 47.2025 121.913 47.2334 121.976 47.2872C122.04 47.341 122.082 47.4145 122.098 47.4957C122.105 47.532 122.105 47.5695 122.096 47.6054C122.086 47.6413 122.069 47.6748 122.046 47.7032C122.022 47.7317 121.992 47.7544 121.958 47.7698C121.924 47.7852 121.887 47.7928 121.85 47.792Z" fill="white"/>
<path d="M127.426 47.7921H123.259C123.176 47.7889 123.097 47.7578 123.035 47.7039C122.973 47.65 122.931 47.5766 122.916 47.4958C122.908 47.4598 122.908 47.4224 122.917 47.3865C122.925 47.3505 122.941 47.317 122.965 47.2884C122.988 47.2598 123.018 47.2369 123.052 47.2215C123.086 47.2061 123.122 47.1986 123.159 47.1995H127.326C127.409 47.2027 127.488 47.2339 127.55 47.2877C127.612 47.3416 127.654 47.415 127.669 47.4958C127.677 47.5318 127.677 47.5692 127.669 47.6051C127.66 47.6411 127.644 47.6746 127.62 47.7032C127.597 47.7318 127.567 47.7547 127.533 47.7701C127.5 47.7855 127.463 47.793 127.426 47.7921Z" fill="white"/>
<path d="M130.467 49.8708H116.165C116.082 49.869 116.003 49.839 115.94 49.7861C115.877 49.7331 115.834 49.6602 115.818 49.5795C115.809 49.5431 115.809 49.5052 115.818 49.4689C115.827 49.4326 115.844 49.3987 115.868 49.37C115.892 49.3413 115.922 49.3186 115.957 49.3035C115.991 49.2884 116.028 49.2815 116.066 49.2832H130.348C130.431 49.2862 130.51 49.3171 130.573 49.3709C130.636 49.4248 130.679 49.4983 130.695 49.5795C130.702 49.6139 130.702 49.6495 130.694 49.6837C130.686 49.718 130.67 49.7501 130.649 49.7778C130.627 49.8055 130.599 49.8282 130.568 49.8443C130.537 49.8604 130.502 49.8694 130.467 49.8708Z" fill="white"/>
<path d="M129.381 51.9053H116.508C116.425 51.9023 116.345 51.8714 116.282 51.8176C116.219 51.7638 116.176 51.6903 116.16 51.6091C116.153 51.5728 116.154 51.5353 116.163 51.4994C116.172 51.4635 116.189 51.43 116.213 51.4016C116.237 51.3731 116.267 51.3504 116.3 51.335C116.334 51.3196 116.371 51.312 116.408 51.3128H129.306C129.389 51.3158 129.469 51.3467 129.532 51.4005C129.595 51.4543 129.638 51.5279 129.653 51.6091C129.662 51.6475 129.66 51.6874 129.65 51.7253C129.64 51.7632 129.62 51.7981 129.594 51.8271C129.567 51.8561 129.534 51.8783 129.497 51.8919C129.46 51.9055 129.42 51.9101 129.381 51.9053Z" fill="white"/>
<path d="M125.506 53.9594H116.85C116.767 53.9564 116.687 53.9255 116.624 53.8716C116.561 53.8178 116.518 53.7443 116.503 53.6631C116.495 53.6271 116.496 53.5898 116.505 53.5541C116.514 53.5184 116.531 53.4852 116.555 53.4571C116.579 53.429 116.609 53.4067 116.643 53.3919C116.677 53.3772 116.714 53.3703 116.751 53.3718H125.412C125.494 53.3754 125.573 53.4059 125.636 53.4586C125.698 53.5113 125.742 53.5832 125.759 53.6631C125.767 53.6998 125.766 53.7378 125.757 53.7741C125.747 53.8103 125.73 53.844 125.705 53.8726C125.681 53.9011 125.65 53.9238 125.616 53.9388C125.581 53.9539 125.544 53.9609 125.506 53.9594Z" fill="white"/>
<path d="M131.459 56.0184H117.192C117.109 56.0154 117.03 55.9844 116.966 55.9306C116.903 55.8768 116.861 55.8033 116.845 55.7221C116.837 55.6858 116.838 55.6483 116.847 55.6124C116.856 55.5765 116.874 55.5431 116.897 55.5146C116.921 55.4862 116.951 55.4634 116.985 55.448C117.019 55.4327 117.056 55.4251 117.093 55.4258H131.375C131.458 55.4288 131.537 55.4597 131.6 55.5136C131.663 55.5674 131.706 55.6409 131.722 55.7221C131.731 55.7598 131.731 55.7991 131.721 55.8366C131.712 55.8742 131.693 55.909 131.668 55.938C131.642 55.967 131.61 55.9895 131.573 56.0035C131.537 56.0175 131.498 56.0226 131.459 56.0184Z" fill="white"/>
<path d="M131.816 58.0723H117.534C117.451 58.0693 117.372 58.0384 117.309 57.9846C117.246 57.9308 117.203 57.8573 117.187 57.776C117.18 57.7398 117.181 57.7023 117.19 57.6664C117.199 57.6304 117.216 57.597 117.24 57.5686C117.263 57.5401 117.293 57.5174 117.327 57.502C117.361 57.4866 117.398 57.479 117.435 57.4798H131.722C131.804 57.483 131.883 57.5141 131.946 57.568C132.008 57.6218 132.05 57.6952 132.064 57.776C132.073 57.8124 132.073 57.8503 132.064 57.8866C132.055 57.923 132.038 57.9568 132.014 57.9855C131.99 58.0142 131.96 58.037 131.925 58.052C131.891 58.0671 131.854 58.074 131.816 58.0723Z" fill="white"/>
<path d="M126.538 60.1265H117.877C117.795 60.1229 117.716 60.0923 117.653 60.0396C117.59 59.987 117.547 59.915 117.529 59.8351C117.522 59.7988 117.523 59.7614 117.532 59.7254C117.541 59.6895 117.558 59.6561 117.582 59.6277C117.606 59.5992 117.636 59.5764 117.67 59.5611C117.703 59.5457 117.74 59.5381 117.777 59.5389H126.439C126.522 59.5419 126.601 59.5728 126.665 59.6266C126.728 59.6804 126.77 59.7539 126.786 59.8351C126.794 59.8712 126.793 59.9085 126.784 59.9442C126.775 59.9799 126.758 60.013 126.734 60.0411C126.71 60.0692 126.68 60.0915 126.646 60.1063C126.612 60.1211 126.575 60.128 126.538 60.1265Z" fill="white"/>
<path d="M134.738 65.7798L135.631 66.3315L149.341 44.3316L148.447 43.7798L134.738 65.7798Z" fill="#263238"/>
<path opacity="0.3" d="M134.738 65.7798L135.631 66.3315L149.341 44.3316L148.447 43.7798L134.738 65.7798Z" fill="black"/>
<path d="M132.953 64.6799L133.847 65.2317L147.557 43.2317L146.663 42.68L132.953 64.6799Z" fill="#263238"/>
<path opacity="0.3" d="M132.953 64.6799L133.847 65.2317L147.557 43.2317L146.663 42.68L132.953 64.6799Z" fill="black"/>
<path d="M133.851 65.2278L134.745 65.7795L148.455 43.7796L147.561 43.2278L133.851 65.2278Z" fill="#263238"/>
<path d="M132.932 66.7972L133.736 67.2959L135.636 66.3331L132.957 64.679L132.932 66.7972Z" fill="#FF8B7B"/>
<path d="M132.922 67.7108L133.736 67.2961L132.932 66.7974L132.922 67.7108Z" fill="#263238"/>
<path d="M132.451 67.8934H132.416C131.751 67.6208 131.164 67.1902 130.705 66.6393C130.417 66.3319 130.103 66.0495 129.767 65.7949C129.716 65.7527 129.652 65.7296 129.586 65.7296C129.52 65.7296 129.456 65.7527 129.405 65.7949C129.365 65.8387 129.342 65.8959 129.342 65.9554C129.342 66.0148 129.365 66.0721 129.405 66.1159C129.524 66.2936 129.658 66.4615 129.792 66.6096C129.846 66.6684 129.879 66.7429 129.887 66.822C129.895 66.9012 129.878 66.9808 129.837 67.0491C129.793 67.1091 129.732 67.1536 129.661 67.1759C129.591 67.1981 129.515 67.197 129.445 67.1725C129.256 67.1112 129.071 67.0404 128.889 66.9602C128.873 66.946 128.852 66.9384 128.831 66.939C128.809 66.9397 128.789 66.9485 128.773 66.9636C128.758 66.9787 128.749 66.9991 128.749 67.0205C128.748 67.0419 128.756 67.0627 128.77 67.0787L128.795 67.1429C128.824 67.208 128.836 67.2796 128.829 67.3506C128.822 67.4216 128.797 67.4896 128.755 67.5478C128.713 67.6036 128.657 67.6477 128.593 67.6762C128.528 67.7047 128.458 67.7166 128.388 67.7107C126.205 67.6082 124.017 67.6164 121.835 67.7354C121.802 67.7354 121.771 67.7224 121.747 67.6993C121.724 67.6761 121.711 67.6447 121.711 67.612C121.711 67.5792 121.724 67.5478 121.747 67.5247C121.771 67.5015 121.802 67.4885 121.835 67.4885C124.026 67.3696 126.221 67.3613 128.413 67.4639C128.441 67.4686 128.469 67.4655 128.496 67.4551C128.522 67.4446 128.545 67.4271 128.562 67.4046C128.576 67.3791 128.584 67.3501 128.584 67.3207C128.584 67.2912 128.576 67.2622 128.562 67.2367L128.537 67.1824C128.502 67.1196 128.489 67.0473 128.499 66.9764C128.509 66.9054 128.542 66.8397 128.593 66.789C128.644 66.7383 128.71 66.7055 128.781 66.6954C128.853 66.6853 128.925 66.6985 128.988 66.7331C129.159 66.8129 129.334 66.8805 129.514 66.9355C129.53 66.9475 129.549 66.954 129.569 66.954C129.588 66.954 129.608 66.9475 129.623 66.9355C129.636 66.9123 129.64 66.8856 129.636 66.8597C129.631 66.8338 129.618 66.8101 129.598 66.7923C129.455 66.6245 129.321 66.4467 129.197 66.2689C129.125 66.1764 129.089 66.0616 129.094 65.945C129.1 65.8284 129.147 65.7175 129.226 65.632C129.318 65.5473 129.439 65.5002 129.564 65.5002C129.689 65.5002 129.809 65.5473 129.901 65.632C130.259 65.8917 130.591 66.1843 130.893 66.5059C131.317 67.0003 131.85 67.3906 132.451 67.6465C132.467 67.6516 132.481 67.6597 132.494 67.6704C132.506 67.6811 132.517 67.6942 132.524 67.7089C132.531 67.7236 132.536 67.7397 132.537 67.7561C132.538 67.7725 132.536 67.789 132.53 67.8046C132.526 67.8248 132.516 67.8436 132.502 67.8591C132.488 67.8747 132.471 67.8865 132.451 67.8934Z" fill="white"/>
<path d="M130.323 85.9851L133.642 80.2722H127.009L130.323 85.9851Z" fill="#223C6A"/>
<path d="M167.562 69.2068C166.152 67.9647 164.315 67.3105 162.433 67.3799C161.228 64.9604 158.742 63.5482 156.113 64.0272C152.343 64.7135 151.192 69.2217 153.811 70.8659C154.678 71.4122 155.616 71.836 156.599 72.125V72.2435C155.059 72.7964 153.712 73.7801 152.719 75.0763C151.727 76.3726 151.131 77.9264 151.004 79.5513C150.617 85.1408 156.649 88.4096 159.933 85.2988C160.387 84.8697 160.818 84.4164 161.223 83.9409C161.858 84.8297 162.542 85.7383 163.281 86.6863C171.486 82.9238 172.87 73.7643 167.562 69.2068Z" fill="#263238"/>
<path d="M151.068 90.9376C151.018 91.6289 150.959 92.2313 150.87 92.8634C150.78 93.4954 150.696 94.1077 150.592 94.7249C150.383 95.9642 150.096 97.1937 149.803 98.4035C149.199 100.864 148.355 103.261 147.283 105.558L147.179 105.775C147.139 105.859 147.129 105.889 147.055 106.037C146.931 106.281 146.783 106.513 146.613 106.728C146.294 107.119 145.909 107.453 145.477 107.716C144.763 108.14 143.976 108.426 143.156 108.56C141.804 108.767 140.43 108.786 139.073 108.615C136.561 108.308 134.093 107.717 131.716 106.852L132.262 104.877C133.408 105.05 134.603 105.208 135.774 105.311C136.927 105.436 138.087 105.496 139.247 105.489C140.312 105.508 141.375 105.396 142.412 105.153C142.787 105.063 143.142 104.904 143.458 104.684C143.537 104.627 143.603 104.555 143.652 104.472C143.665 104.447 143.675 104.42 143.682 104.393L143.82 104.037C144.029 103.509 144.232 102.976 144.406 102.428C144.579 101.88 144.763 101.336 144.937 100.788C145.249 99.6774 145.557 98.5664 145.81 97.4307C146.063 96.2951 146.271 95.1594 146.464 94.0138C146.658 92.8683 146.812 91.6832 146.926 90.6167L151.068 90.9376Z" fill="#FFB573"/>
<path d="M148.245 85.9951C146.569 86.4148 145.398 93.2732 145.398 93.2732L150.011 96.3939C150.011 96.3939 154.436 89.4811 153.147 87.6492C151.797 85.7383 150.686 85.3729 148.245 85.9951Z" fill="#263238"/>
<path opacity="0.2" d="M148.394 87.5256L147.109 94.4335L149.699 96.1864L148.394 87.5256Z" fill="black"/>
<path d="M130.536 104.966L127.405 106.161L130.942 108.284C130.942 108.284 133.199 106.985 133.14 105.321L132.793 105.124C132.452 104.932 132.072 104.818 131.682 104.791C131.292 104.764 130.9 104.823 130.536 104.966Z" fill="#FFB573"/>
<path opacity="0.1" d="M130.303 105.119L128.755 105.667C128.453 105.769 128.156 105.887 127.867 106.023C127.867 106.023 128.889 106.447 129.4 106.161C130.175 106.219 130.954 106.172 131.717 106.023L130.303 105.119Z" fill="black"/>
<path d="M125.456 108.476L128.12 110.684L130.938 108.304L127.406 106.18L125.456 108.476Z" fill="#FFB573"/>
<path d="M157.298 201.399H153.241L152.968 192.037H157.031L157.298 201.399Z" fill="#FFB573"/>
<path d="M153.102 200.93H157.661C157.74 200.928 157.818 200.955 157.878 201.006C157.938 201.057 157.978 201.128 157.989 201.206L158.485 204.801C158.495 204.892 158.485 204.983 158.457 205.07C158.428 205.156 158.382 205.236 158.321 205.304C158.259 205.371 158.184 205.425 158.101 205.462C158.017 205.499 157.926 205.517 157.835 205.517C156.247 205.492 155.479 205.398 153.469 205.398C152.239 205.398 148.692 205.527 146.986 205.527C145.279 205.527 145.19 203.848 145.899 203.695C149.084 203.014 151.356 202.075 152.403 201.177C152.6 201.015 152.847 200.927 153.102 200.93Z" fill="#263238"/>
<g opacity="0.2">
<path opacity="0.2" d="M152.968 192.037L153.107 196.866H157.17L157.031 192.037H152.968Z" fill="black"/>
</g>
<path d="M148.246 85.9951C148.246 85.9951 146.311 86.6716 150.185 110.392H166.68C166.402 103.712 166.397 99.5886 169.607 85.8766C167.297 85.4008 164.956 85.0939 162.602 84.9582C160.108 84.7802 157.605 84.7802 155.111 84.9582C151.892 85.2495 148.246 85.9951 148.246 85.9951Z" fill="#263238"/>
<path d="M159.606 92.4981C158.243 92.4577 156.919 92.0406 155.781 91.2933C155.768 91.2844 155.756 91.273 155.748 91.2596C155.739 91.2463 155.733 91.2313 155.73 91.2157C155.728 91.2 155.728 91.1839 155.732 91.1684C155.735 91.1529 155.742 91.1383 155.751 91.1254C155.76 91.1117 155.772 91.0999 155.786 91.0907C155.799 91.0815 155.815 91.0751 155.831 91.0719C155.847 91.0687 155.864 91.0687 155.88 91.0719C155.896 91.0752 155.911 91.0816 155.925 91.0909C157.141 91.8845 158.574 92.2846 160.027 92.2364C160.568 91.8957 164.308 89.4121 164.591 85.1113C164.592 85.0951 164.597 85.0793 164.604 85.0648C164.612 85.0502 164.622 85.0373 164.634 85.0268C164.647 85.0162 164.661 85.0082 164.677 85.0032C164.692 84.9983 164.709 84.9964 164.725 84.9977C164.741 84.999 164.757 85.0034 164.772 85.0108C164.786 85.0182 164.799 85.0284 164.81 85.0408C164.821 85.0532 164.829 85.0675 164.834 85.083C164.839 85.0985 164.841 85.1148 164.839 85.1311C164.551 89.5306 160.871 92.0093 160.132 92.4586C160.114 92.4634 160.095 92.4634 160.077 92.4586C159.918 92.4932 159.759 92.4981 159.606 92.4981Z" fill="white"/>
<path d="M152.586 91.7377C152.565 91.7449 152.542 91.7449 152.521 91.7377C152.34 91.5978 152.192 91.4201 152.088 91.217C151.983 91.014 151.925 90.7906 151.916 90.5626C151.683 89.0566 152.244 86.4248 153.404 85.0619C153.416 85.05 153.43 85.0405 153.445 85.034C153.461 85.0275 153.477 85.0242 153.494 85.0242C153.51 85.0242 153.527 85.0275 153.542 85.034C153.558 85.0405 153.571 85.05 153.583 85.0619C153.606 85.085 153.619 85.116 153.619 85.1484C153.619 85.1807 153.606 85.2117 153.583 85.2348C152.482 86.5136 151.911 89.0862 152.135 90.5379C152.157 90.9134 152.322 91.2665 152.596 91.5254C153.283 91.4066 153.95 91.1956 154.58 90.8983C154.611 90.8864 154.644 90.8864 154.675 90.8983C154.705 90.9102 154.73 90.9332 154.744 90.9625C154.75 90.9774 154.754 90.9935 154.754 91.0097C154.755 91.026 154.752 91.0422 154.746 91.0573C154.74 91.0725 154.731 91.0863 154.719 91.098C154.708 91.1097 154.694 91.119 154.679 91.1254C154.014 91.4274 153.309 91.6335 152.586 91.7377Z" fill="white"/>
<path d="M161.858 76.564C161.386 78.9588 160.915 83.3583 162.602 84.9581C162.602 84.9581 161.942 87.3924 157.462 87.3924C152.536 87.3924 155.111 84.9581 155.111 84.9581C157.795 84.3162 157.725 82.3312 157.259 80.4697L161.858 76.564Z" fill="#FFB573"/>
<path d="M162.596 84.9582C160.103 84.7802 157.6 84.7802 155.106 84.9582L154.61 85.0076C154.01 86.1333 153.861 87.8665 155.294 90.439C155.294 90.439 161.862 87.8023 163.574 85.0471C163.256 84.9977 162.929 84.973 162.596 84.9582Z" fill="#FFB573"/>
<path opacity="0.2" d="M159.983 78.1589L157.254 80.4846C157.372 80.9177 157.45 81.3606 157.488 81.8079C158.514 81.6598 159.923 80.5389 160.032 79.4674C160.098 79.032 160.081 78.5882 159.983 78.1589Z" fill="black"/>
<path d="M164.457 72.4065C163.539 76.3122 163.232 77.9861 160.881 79.6698C157.348 82.2078 152.73 80.2327 152.447 76.1295C152.199 72.441 153.747 66.6689 157.904 65.7603C158.818 65.5552 159.77 65.5858 160.669 65.8494C161.568 66.113 162.384 66.6008 163.041 67.2665C163.697 67.9323 164.172 68.7538 164.42 69.6534C164.667 70.5529 164.68 71.5005 164.457 72.4065Z" fill="#FFB573"/>
<path d="M150.185 110.392C150.185 110.392 146.98 141.534 147.248 153.844C147.526 166.682 152.244 195.908 152.244 195.908H157.75C157.75 195.908 156.882 167.413 157.368 154.822C157.899 141.09 162.279 110.382 162.279 110.382L150.185 110.392Z" fill="#223C6A"/>
<path opacity="0.3" d="M150.185 110.392C150.185 110.392 146.98 141.534 147.248 153.844C147.526 166.682 152.244 195.908 152.244 195.908H157.75C157.75 195.908 156.882 167.413 157.368 154.822C157.899 141.09 162.279 110.382 162.279 110.382L150.185 110.392Z" fill="white"/>
<path d="M158.212 196.126H151.768L151.296 194.081L158.514 193.83L158.212 196.126Z" fill="#263238"/>
<path opacity="0.2" d="M157.299 118.139C153.251 126.252 156.485 141.05 157.919 146.556C158.653 138.29 159.903 128.178 160.861 120.756C160.231 116.559 159.169 114.402 157.299 118.139Z" fill="black"/>
<path d="M176.283 201.399H172.221L170.732 192.037H174.79L176.283 201.399Z" fill="#FFB573"/>
<path d="M172.022 200.93H176.601C176.682 200.931 176.761 200.959 176.826 201.009C176.89 201.059 176.936 201.128 176.958 201.206L177.95 204.801C177.974 204.886 177.978 204.976 177.961 205.062C177.944 205.149 177.907 205.231 177.852 205.3C177.797 205.37 177.727 205.426 177.647 205.464C177.566 205.501 177.478 205.52 177.39 205.517C175.797 205.492 175.018 205.399 173.009 205.399C171.774 205.399 168.247 205.527 166.56 205.527C164.874 205.527 164.546 203.848 165.236 203.695C168.331 203.014 170.454 202.075 171.412 201.177C171.579 201.024 171.795 200.937 172.022 200.93Z" fill="#263238"/>
<g opacity="0.2">
<path opacity="0.2" d="M170.732 192.037L171.501 196.866H175.564L174.795 192.037H170.732Z" fill="black"/>
</g>
<path d="M154.774 110.392C154.774 110.392 158.182 141.534 160.057 153.844C162.007 166.682 170.539 195.908 170.539 195.908H176.006C176.006 195.908 171.422 167.413 170.266 154.822C169.006 141.09 166.828 110.382 166.828 110.382L154.774 110.392Z" fill="#223C6A"/>
<path opacity="0.3" d="M154.774 110.392C154.774 110.392 158.182 141.534 160.057 153.844C162.007 166.682 170.539 195.908 170.539 195.908H176.006C176.006 195.908 171.422 167.413 170.266 154.822C169.006 141.09 166.828 110.382 166.828 110.382L154.774 110.392Z" fill="white"/>
<path d="M176.507 196.126H170.063L169.324 194.081L176.507 193.83V196.126Z" fill="#263238"/>
<path d="M170.589 201.636C170.232 201.664 169.875 201.578 169.572 201.389C169.5 201.334 169.441 201.263 169.401 201.181C169.36 201.1 169.339 201.011 169.339 200.92C169.333 200.87 169.342 200.82 169.365 200.775C169.388 200.73 169.424 200.693 169.467 200.668C169.929 200.397 171.655 201.216 171.849 201.315C171.868 201.323 171.885 201.337 171.896 201.354C171.908 201.372 171.914 201.393 171.913 201.414C171.913 201.432 171.907 201.451 171.895 201.465C171.884 201.479 171.867 201.489 171.849 201.493C171.434 201.581 171.012 201.629 170.589 201.636ZM169.755 200.801C169.695 200.797 169.635 200.809 169.582 200.836C169.563 200.846 169.549 200.861 169.54 200.88C169.531 200.899 169.528 200.919 169.532 200.94C169.533 200.999 169.546 201.056 169.572 201.109C169.598 201.162 169.635 201.209 169.681 201.246C169.959 201.468 170.628 201.503 171.511 201.354C170.959 201.078 170.366 200.891 169.755 200.801Z" fill="#223C6A"/>
<path d="M171.829 201.493H171.789C171.293 201.271 170.207 200.402 170.222 199.942C170.222 199.834 170.286 199.701 170.549 199.671C170.748 199.654 170.945 199.714 171.1 199.839C171.515 200.269 171.798 200.809 171.913 201.394C171.917 201.41 171.916 201.427 171.91 201.443C171.905 201.458 171.896 201.472 171.884 201.483C171.867 201.491 171.848 201.495 171.829 201.493ZM170.648 199.854H170.594C170.42 199.854 170.415 199.943 170.415 199.962C170.415 200.239 171.145 200.925 171.675 201.221C171.573 200.75 171.337 200.319 170.996 199.977C170.897 199.898 170.775 199.855 170.648 199.854Z" fill="#223C6A"/>
<path d="M157.954 72.3817C157.899 72.7027 157.681 72.9347 157.458 72.8755C157.234 72.8162 157.115 72.5496 157.175 72.2287C157.234 71.9077 157.443 71.6756 157.671 71.7102C157.899 71.7448 158.008 72.0608 157.954 72.3817Z" fill="#263238"/>
<path d="M154.303 71.7646C154.248 72.0856 154.03 72.3177 153.807 72.2584C153.583 72.1992 153.469 71.9375 153.524 71.6116C153.578 71.2857 153.792 71.0586 154.02 71.1178C154.248 71.1771 154.357 71.4437 154.303 71.7646Z" fill="#263238"/>
<path d="M154.109 71.1524L153.37 70.7969C153.37 70.7969 153.668 71.4684 154.109 71.1524Z" fill="#263238"/>
<path d="M155.33 72.5349C154.921 73.2184 154.42 73.8431 153.841 74.3915C153.987 74.5356 154.162 74.6468 154.354 74.7176C154.547 74.7883 154.753 74.8168 154.957 74.8013L155.33 72.5349Z" fill="#ED893E"/>
<path d="M156.485 76.3568C156.319 76.3569 156.153 76.342 155.989 76.3123C155.977 76.3105 155.965 76.3063 155.954 76.2998C155.943 76.2933 155.934 76.2848 155.927 76.2747C155.919 76.2645 155.914 76.253 155.911 76.2409C155.908 76.2287 155.908 76.216 155.91 76.2037C155.915 76.1783 155.93 76.1558 155.951 76.141C155.972 76.1262 155.998 76.1204 156.024 76.1247C156.424 76.201 156.836 76.1827 157.227 76.0712C157.618 75.9597 157.978 75.7581 158.276 75.4828C158.285 75.4732 158.296 75.4656 158.308 75.4603C158.32 75.4551 158.333 75.4524 158.346 75.4524C158.359 75.4524 158.372 75.4551 158.384 75.4603C158.396 75.4656 158.406 75.4732 158.415 75.4828C158.424 75.4915 158.431 75.5019 158.436 75.5133C158.441 75.5248 158.443 75.537 158.443 75.5494C158.443 75.5618 158.441 75.5741 158.436 75.5856C158.431 75.597 158.424 75.6074 158.415 75.6161C157.896 76.1073 157.202 76.3737 156.485 76.3568Z" fill="#263238"/>
<path d="M166.372 66.3232C165.906 65.998 165.377 65.7727 164.819 65.6616C164.368 61.8102 161.267 59.3611 157.81 60.1363C153.891 61.0152 152.526 65.8542 155.161 67.5034C156.71 68.4457 158.46 69.0123 160.27 69.1575C160.34 72.3522 162.339 75.0827 163.743 75.2309C167.751 73.6409 168.788 68.0169 166.372 66.3232Z" fill="#263238"/>
<path d="M164.914 76.2084C164.518 76.877 163.875 77.3645 163.123 77.5663C162.131 77.8181 161.635 76.9244 161.942 75.9961C162.205 75.1616 163.048 74.021 164.045 74.1741C164.262 74.2135 164.465 74.3058 164.637 74.4427C164.809 74.5796 164.944 74.7568 165.03 74.9585C165.116 75.1601 165.151 75.3799 165.13 75.5981C165.11 75.8162 165.035 76.026 164.914 76.2084Z" fill="#FFB573"/>
<path d="M159.546 71.888C159.505 71.8879 159.465 71.8749 159.432 71.851C159.399 71.827 159.375 71.7933 159.362 71.7547C159.099 70.9103 158.013 70.5449 158.003 70.5449C157.954 70.5291 157.914 70.4948 157.891 70.4494C157.868 70.4041 157.863 70.3514 157.879 70.303C157.886 70.2786 157.898 70.256 157.915 70.2365C157.931 70.217 157.951 70.201 157.974 70.1894C157.997 70.1779 158.021 70.1711 158.047 70.1694C158.072 70.1677 158.098 70.1711 158.122 70.1795C158.172 70.1795 159.412 70.6091 159.729 71.6608C159.745 71.7093 159.741 71.762 159.717 71.8073C159.694 71.8526 159.654 71.887 159.605 71.9028L159.546 71.888Z" fill="#263238"/>
<path d="M153.494 69.8982C153.46 69.8982 153.427 69.8895 153.397 69.8731C153.368 69.8567 153.343 69.833 153.325 69.8044C153.3 69.7599 153.294 69.7073 153.308 69.6582C153.322 69.6092 153.355 69.5676 153.4 69.5427C153.661 69.3854 153.956 69.2926 154.261 69.272C154.565 69.2514 154.871 69.3035 155.151 69.4242C155.19 69.4505 155.218 69.49 155.229 69.5354C155.241 69.5808 155.236 69.6288 155.215 69.6706C155.193 69.7124 155.157 69.745 155.114 69.7624C155.07 69.7797 155.021 69.7806 154.977 69.7649C154.753 69.6737 154.511 69.636 154.27 69.6548C154.028 69.6737 153.795 69.7486 153.588 69.8735C153.56 69.8908 153.527 69.8994 153.494 69.8982Z" fill="#263238"/>
<path d="M171.501 90.5823C171.997 92.9079 172.325 95.1941 172.603 97.5296C172.896 99.8743 173.062 102.233 173.099 104.595C173.099 104.714 173.099 104.961 173.099 105.178C173.099 105.395 173.064 105.573 173.039 105.756C172.98 106.116 172.915 106.452 172.831 106.743C172.672 107.375 172.484 107.963 172.285 108.541C171.888 109.691 171.417 110.782 170.941 111.859C169.971 113.994 168.893 116.078 167.711 118.105L165.846 117.241L166.952 113.992C167.324 112.916 167.682 111.829 168.014 110.748C168.346 109.667 168.669 108.595 168.947 107.538C169.081 107.01 169.195 106.487 169.274 105.993C169.314 105.746 169.343 105.499 169.363 105.302C169.363 105.198 169.363 105.104 169.363 105.02L169.339 104.739C169.249 103.633 169.12 102.522 168.986 101.406L168.52 98.0481C168.178 95.8162 167.796 93.5548 167.414 91.3476L171.501 90.5823Z" fill="#FFB573"/>
<path d="M169.606 85.8764C171.258 86.3702 173.242 92.0387 173.242 92.0387L166.828 96.6011C166.828 96.6011 164.492 91.8757 165.186 89.7476C165.91 87.5355 167.716 85.3036 169.606 85.8764Z" fill="#263238"/>
<path d="M151.574 201.636C151.225 201.671 150.874 201.583 150.582 201.389C150.516 201.331 150.466 201.258 150.435 201.176C150.405 201.095 150.396 201.006 150.408 200.92C150.411 200.868 150.426 200.817 150.454 200.773C150.482 200.729 150.521 200.693 150.567 200.668C151.063 200.397 152.685 201.216 152.869 201.315C152.887 201.324 152.901 201.339 152.91 201.356C152.919 201.374 152.922 201.394 152.918 201.414C152.916 201.433 152.907 201.451 152.894 201.465C152.881 201.479 152.863 201.489 152.844 201.493C152.426 201.579 152.001 201.627 151.574 201.636ZM150.85 200.801C150.788 200.798 150.727 200.81 150.671 200.836C150.652 200.846 150.636 200.861 150.625 200.879C150.613 200.897 150.607 200.918 150.607 200.94C150.599 200.996 150.605 201.053 150.624 201.106C150.643 201.159 150.675 201.207 150.716 201.246C150.964 201.468 151.634 201.503 152.532 201.354C152.007 201.075 151.438 200.888 150.85 200.801Z" fill="#223C6A"/>
<path d="M152.834 201.493H152.79C152.294 201.271 151.346 200.402 151.426 199.943C151.426 199.834 151.52 199.701 151.783 199.671C151.879 199.661 151.976 199.671 152.068 199.7C152.16 199.729 152.245 199.776 152.319 199.839C152.815 200.263 152.924 201.35 152.924 201.394C152.926 201.411 152.924 201.429 152.917 201.445C152.91 201.46 152.899 201.474 152.884 201.483C152.869 201.491 152.852 201.494 152.834 201.493ZM151.867 199.854H151.798C151.624 199.854 151.614 199.943 151.609 199.962C151.564 200.239 152.214 200.925 152.705 201.221C152.673 200.766 152.5 200.331 152.209 199.977C152.115 199.894 151.993 199.85 151.867 199.854Z" fill="#223C6A"/>
<path d="M157.75 71.7696L157.011 71.4141C157.011 71.4141 157.319 72.0905 157.75 71.7696Z" fill="#263238"/>
<path d="M166.928 109.429L167.349 110.911C167.409 111.029 167.27 111.143 167.081 111.143H150.101C149.952 111.143 149.833 111.069 149.823 110.98L149.674 109.499C149.674 109.395 149.793 109.311 149.952 109.311H166.68C166.727 109.31 166.775 109.32 166.818 109.34C166.861 109.361 166.899 109.392 166.928 109.429Z" fill="#223C6A"/>
<path d="M164.695 111.286H165.142C165.231 111.286 165.296 111.242 165.291 111.187L165.082 109.276C165.082 109.222 164.998 109.173 164.909 109.173H164.462C164.373 109.173 164.303 109.222 164.308 109.276L164.522 111.187C164.517 111.242 164.596 111.286 164.695 111.286Z" fill="#223C6A"/>
<g opacity="0.3">
<path opacity="0.3" d="M164.695 111.286H165.142C165.231 111.286 165.296 111.242 165.291 111.187L165.082 109.276C165.082 109.222 164.998 109.173 164.909 109.173H164.462C164.373 109.173 164.303 109.222 164.308 109.276L164.522 111.187C164.517 111.242 164.596 111.286 164.695 111.286Z" fill="white"/>
</g>
<path d="M151.361 111.286H151.807C151.897 111.286 151.966 111.242 151.961 111.187L151.748 109.276C151.748 109.222 151.664 109.173 151.574 109.173H151.128C151.038 109.173 150.969 109.222 150.979 109.276L151.187 111.187C151.192 111.242 151.272 111.286 151.361 111.286Z" fill="#223C6A"/>
<path opacity="0.3" d="M151.361 111.286H151.807C151.897 111.286 151.966 111.242 151.961 111.187L151.748 109.276C151.748 109.222 151.664 109.173 151.574 109.173H151.128C151.038 109.173 150.969 109.222 150.979 109.276L151.187 111.187C151.192 111.242 151.272 111.286 151.361 111.286Z" fill="white"/>
<path d="M158.023 111.286H158.47C158.559 111.286 158.628 111.242 158.618 111.187L158.41 109.276C158.41 109.222 158.326 109.173 158.236 109.173H157.79C157.701 109.173 157.631 109.222 157.641 109.276L157.849 111.187C157.854 111.242 157.934 111.286 158.023 111.286Z" fill="#223C6A"/>
<path opacity="0.3" d="M158.023 111.286H158.47C158.559 111.286 158.628 111.242 158.618 111.187L158.41 109.276C158.41 109.222 158.326 109.173 158.236 109.173H157.79C157.701 109.173 157.631 109.222 157.641 109.276L157.849 111.187C157.854 111.242 157.934 111.286 158.023 111.286Z" fill="white"/>
<path d="M165.921 116.876L162.771 119.917L166.878 120.327C166.878 120.327 168.366 118.189 167.587 116.698L165.921 116.876Z" fill="#FFB573"/>
<path d="M162.304 123.285L165.767 123.443L166.878 120.327L162.771 119.917L162.304 123.285Z" fill="#FFB573"/>
<path d="M82.0007 202.007C82.3919 202.052 82.7864 201.956 83.1119 201.735C83.1571 201.685 83.1861 201.622 83.1949 201.555C83.2038 201.488 83.1921 201.42 83.1615 201.36C83.1391 201.31 83.1055 201.266 83.0634 201.231C83.0213 201.196 82.9717 201.17 82.9185 201.157C82.3331 200.994 80.9342 201.715 80.8945 201.75C80.8776 201.758 80.8634 201.77 80.8537 201.786C80.844 201.802 80.8392 201.82 80.8399 201.839C80.8407 201.855 80.847 201.871 80.8577 201.883C80.8685 201.896 80.8832 201.905 80.8994 201.908C81.2629 201.973 81.6314 202.006 82.0007 202.007ZM82.6853 201.305C82.7396 201.298 82.7947 201.298 82.849 201.305C82.8815 201.312 82.9119 201.326 82.9378 201.347C82.9637 201.367 82.9843 201.394 82.9978 201.424C83.0425 201.533 82.9978 201.587 82.9978 201.616C82.7944 201.849 81.8717 201.853 81.207 201.76C81.6692 201.523 82.1696 201.369 82.6853 201.305Z" fill="#223C6A"/>
<path d="M80.9146 201.908H80.9543C81.4206 201.71 82.4078 200.92 82.4029 200.515C82.4029 200.417 82.3483 200.298 82.1151 200.273C81.9372 200.261 81.7608 200.314 81.6191 200.422C81.2369 200.807 80.9705 201.291 80.8501 201.819C80.8452 201.833 80.8449 201.848 80.8494 201.863C80.8538 201.877 80.8628 201.889 80.8749 201.898C80.8869 201.905 80.9007 201.909 80.9146 201.908ZM82.0209 200.427H82.0754C82.2243 200.427 82.2292 200.501 82.2292 200.52C82.2292 200.767 81.5496 201.384 81.0585 201.651C81.1685 201.228 81.3913 200.842 81.7034 200.535C81.7962 200.47 81.9072 200.435 82.0209 200.436V200.427Z" fill="#223C6A"/>
<path d="M76.9209 201.824H80.567L82.1693 193.42H78.5232L76.9209 201.824Z" fill="#FFB573"/>
<path d="M80.6015 201.404H76.6329C76.5571 201.407 76.4837 201.432 76.422 201.476C76.3603 201.519 76.3129 201.58 76.2857 201.651L75.0901 204.875C75.0567 204.945 75.042 205.023 75.0475 205.1C75.053 205.177 75.0784 205.252 75.1213 205.316C75.1642 205.381 75.2232 205.433 75.2925 205.468C75.3618 205.504 75.439 205.52 75.5168 205.517C76.9603 205.517 79.0438 205.413 80.8495 205.413C82.9578 205.413 82.7644 205.527 85.2398 205.527C86.728 205.527 87.3729 204.021 86.7677 203.883C84.0095 203.266 83.687 203.196 81.4498 201.685C81.2027 201.507 80.9065 201.409 80.6015 201.404Z" fill="#263238"/>
<path opacity="0.2" d="M82.1694 193.425L81.3409 197.755H77.6948L78.5233 193.425H82.1694Z" fill="black"/>
<path d="M82.442 111.321L84.8281 113.814L80.9786 115.152C80.9786 115.152 79.5796 113.118 80.6561 111.725L82.442 111.321Z" fill="#FFB573"/>
<path d="M85.5424 117.3L81.7325 117.853L80.9785 115.152L84.828 113.814L85.5424 117.3Z" fill="#FFB573"/>
<path d="M68.1404 132.014L86.7332 132.824C87.1701 132.831 87.5959 132.687 87.9385 132.417C88.2812 132.147 88.5195 131.768 88.6133 131.343L90.8357 120.036C90.8818 119.844 90.8841 119.644 90.8423 119.452C90.8005 119.259 90.7157 119.079 90.5943 118.923C90.4728 118.768 90.3177 118.641 90.1405 118.553C89.9634 118.466 89.7686 118.419 89.5707 118.416L70.978 117.601C70.5419 117.596 70.1172 117.74 69.7756 118.01C69.434 118.28 69.1964 118.659 69.1028 119.083L66.8755 130.39C66.8284 130.582 66.8255 130.782 66.8669 130.975C66.9083 131.168 66.9929 131.35 67.1145 131.506C67.2361 131.662 67.3914 131.789 67.5691 131.877C67.7467 131.965 67.942 132.012 68.1404 132.014Z" fill="#263238"/>
<path d="M69.415 135.491L92.3831 136.478C92.904 136.498 93.4127 136.318 93.8041 135.975C94.1955 135.632 94.4397 135.153 94.4864 134.636L95.7018 120.603C95.7263 120.354 95.6992 120.102 95.6222 119.864C95.5451 119.625 95.4197 119.405 95.2537 119.217C95.0877 119.028 94.8847 118.876 94.6571 118.769C94.4296 118.661 94.1824 118.602 93.9308 118.594L70.9677 117.606C70.4469 117.589 69.9389 117.769 69.5472 118.112C69.1555 118.454 68.9096 118.932 68.8594 119.448L67.644 133.481C67.6202 133.73 67.6478 133.982 67.7252 134.22C67.8025 134.458 67.928 134.678 68.0938 134.866C68.2597 135.054 68.4624 135.207 68.6896 135.314C68.9168 135.422 69.1637 135.482 69.415 135.491Z" fill="#223C6A"/>
<path opacity="0.2" d="M69.415 135.491L92.3831 136.478C92.904 136.498 93.4127 136.318 93.8041 135.975C94.1955 135.632 94.4397 135.153 94.4864 134.636L95.7018 120.603C95.7263 120.354 95.6992 120.102 95.6222 119.864C95.5451 119.625 95.4197 119.405 95.2537 119.217C95.0877 119.028 94.8847 118.876 94.6571 118.769C94.4296 118.661 94.1824 118.602 93.9308 118.594L70.9677 117.606C70.4469 117.589 69.9389 117.769 69.5472 118.112C69.1555 118.454 68.9096 118.932 68.8594 119.448L67.644 133.481C67.6202 133.73 67.6478 133.982 67.7252 134.22C67.8025 134.458 67.928 134.678 68.0938 134.866C68.2597 135.054 68.4624 135.207 68.6896 135.314C68.9168 135.422 69.1637 135.482 69.415 135.491Z" fill="black"/>
<path d="M86.2667 122.312H86.2072L79.54 122.021C79.3663 122.015 79.1956 121.973 79.0385 121.899C78.8814 121.825 78.7412 121.72 78.6264 121.59C78.5117 121.46 78.4248 121.308 78.3712 121.144C78.3176 120.979 78.2984 120.805 78.3147 120.633L78.5776 117.606C78.6424 116.988 78.9395 116.416 79.4095 116.006C79.8795 115.596 80.4878 115.377 81.1126 115.394L85.5772 115.587C85.8998 115.6 86.2165 115.677 86.5079 115.816C86.7993 115.954 87.0595 116.15 87.2724 116.392C87.4854 116.633 87.6468 116.915 87.7468 117.221C87.8468 117.527 87.8834 117.849 87.8542 118.169L87.6012 121.102C87.5681 121.432 87.4135 121.739 87.1671 121.962C86.9207 122.185 86.6 122.31 86.2667 122.312ZM79.8178 120.544L86.1229 120.821L86.366 118.036C86.3797 117.914 86.368 117.791 86.3315 117.674C86.295 117.556 86.2346 117.448 86.154 117.355C86.0733 117.262 85.9743 117.187 85.8631 117.135C85.7519 117.082 85.6309 117.052 85.5078 117.048L81.0431 116.851C80.8001 116.849 80.5649 116.936 80.382 117.095C80.1991 117.254 80.0813 117.475 80.051 117.715L79.8178 120.544Z" fill="#223C6A"/>
<path d="M94.8389 136.602L71.8758 135.614C71.3511 135.584 70.8567 135.359 70.4896 134.985C70.1225 134.61 69.9092 134.112 69.8916 133.59L69.584 119.492C69.5739 119.244 69.6162 118.995 69.7083 118.764C69.8004 118.532 69.9403 118.323 70.1188 118.148C70.2973 117.974 70.5106 117.838 70.7449 117.751C70.9792 117.664 71.2292 117.626 71.479 117.641L94.447 118.628C94.9722 118.658 95.4672 118.882 95.8346 119.257C96.2019 119.631 96.4148 120.13 96.4313 120.653L96.7339 134.75C96.7433 134.999 96.7004 135.246 96.608 135.478C96.5156 135.709 96.3758 135.918 96.1974 136.092C96.019 136.267 95.8061 136.402 95.5722 136.49C95.3382 136.577 95.0885 136.615 94.8389 136.602Z" fill="#223C6A"/>
<path d="M88.038 83.7041C87.7949 84.1978 87.5072 84.7607 87.2492 85.299C86.9913 85.8372 86.7532 86.4099 86.4803 86.9679C85.9843 88.0888 85.4882 89.2146 85.0616 90.3453C84.6349 91.476 84.2381 92.6166 83.8859 93.7474C83.7222 94.3152 83.5535 94.8781 83.4295 95.4361C83.3551 95.7175 83.2906 95.999 83.241 96.2705L83.1616 96.6853C83.1318 96.8285 83.1021 96.9717 83.0922 97.0704C83.0922 97.2877 83.0326 97.4852 83.0227 97.7765C83.0128 98.0679 82.988 98.3049 82.988 98.6061C82.988 99.1838 82.988 99.7911 82.988 100.398C83.0128 101.628 83.0872 102.867 83.1616 104.141C83.3055 106.664 83.5188 109.227 83.7172 111.755L79.1732 112.486C78.5581 109.913 78.0719 107.366 77.6354 104.754C77.427 103.45 77.2484 102.137 77.0996 100.803C77.0302 100.122 76.9607 99.4455 76.926 98.7295C76.8962 98.3888 76.8913 98.0037 76.8863 97.6284C76.8814 97.2531 76.8863 96.8285 76.931 96.4039C76.9409 96.2104 76.9607 96.0176 76.9905 95.8261L77.0599 95.283C77.0996 94.9176 77.1542 94.5621 77.2187 94.2164C77.3377 93.5054 77.4866 92.8191 77.6354 92.1327C77.9578 90.7749 78.3249 89.4367 78.7615 88.1431C79.198 86.8494 79.6593 85.5656 80.1753 84.3114C80.4332 83.6843 80.6713 83.0622 80.9789 82.44C81.2865 81.8179 81.5295 81.2253 81.8718 80.5439L88.038 83.7041Z" fill="#223C6A"/>
<path d="M97.9795 109.553C97.9795 109.553 94.4722 136.676 92.4433 147.736C90.3301 159.241 82.8444 196.916 82.8444 196.916H76.6484C76.6484 196.916 79.7935 159.913 81.1875 148.615C82.7104 136.271 85.156 109.553 85.156 109.553H97.9795Z" fill="#263238"/>
<path d="M84.372 194.467C84.4017 194.467 83.6477 197.019 83.6477 197.019H76.1372L76.2711 194.743L84.372 194.467Z" fill="#223C6A"/>
<path d="M100.965 64.5113C100.965 64.8174 101.129 65.0692 101.332 65.0692C101.536 65.0692 101.695 64.8174 101.695 64.5113C101.695 64.2051 101.531 63.9583 101.332 63.9583C101.134 63.9583 100.965 64.1903 100.965 64.5113Z" fill="#263238"/>
<path d="M101.099 65.0691C101.472 66.0086 101.972 66.8925 102.587 67.696C102.375 67.8477 102.131 67.9512 101.874 67.9989C101.617 68.0467 101.352 68.0377 101.099 67.9725V65.0691Z" fill="#ED893E"/>
<path d="M99.874 62.8076C99.9109 62.8078 99.947 62.7975 99.9782 62.7779C100.159 62.6388 100.37 62.5446 100.594 62.5034C100.819 62.4622 101.05 62.475 101.268 62.5409C101.313 62.5571 101.362 62.5554 101.406 62.536C101.449 62.5167 101.483 62.4813 101.501 62.4372C101.51 62.4152 101.514 62.3917 101.514 62.368C101.513 62.3443 101.508 62.321 101.498 62.2994C101.488 62.2778 101.474 62.2583 101.457 62.2421C101.44 62.2259 101.419 62.2134 101.397 62.2052C101.123 62.1171 100.831 62.0963 100.547 62.1444C100.263 62.1926 99.9945 62.3082 99.7649 62.4817C99.7266 62.5102 99.701 62.5525 99.6936 62.5995C99.6862 62.6466 99.6975 62.6946 99.7252 62.7335C99.7421 62.7569 99.7645 62.7759 99.7904 62.7888C99.8163 62.8017 99.845 62.8082 99.874 62.8076Z" fill="#263238"/>
<path d="M91.198 67.9033C91.6941 70.5598 92.2397 75.4234 90.3745 77.1911C90.3745 77.1911 91.1037 79.8822 96.0595 79.8822C101.516 79.8822 98.6589 77.1911 98.6589 77.1911C95.6825 76.4851 95.7668 74.2927 96.2827 72.2287L91.198 67.9033Z" fill="#FFB573"/>
<path d="M89.6601 78.1145C89.2732 77.2652 88.8416 76.2876 89.7295 75.9814C90.7217 75.6457 96.0644 75.305 97.9097 75.937C98.1532 76.0042 98.3808 76.1187 98.5794 76.274C98.7781 76.4294 98.9438 76.6224 99.067 76.8419C99.1902 77.0614 99.2684 77.3031 99.2971 77.5529C99.3258 77.8027 99.3044 78.0557 99.2342 78.2972L89.6601 78.1145Z" fill="#263238"/>
<path d="M83.1965 78.2329C80.0067 79.6747 78.0225 90.6068 78.0225 90.6068L84.2779 92.5819C85.5069 89.6951 86.5281 86.725 87.3337 83.694C88.4697 79.1316 86.4606 76.7615 83.1965 78.2329Z" fill="#223C6A"/>
<path d="M122.034 105.302H125.883L125.209 109.884C125.209 109.884 122.192 109.775 120.823 107.514L122.034 105.302Z" fill="#FFB573"/>
<path d="M129.504 106.896L127.57 110.437L125.188 109.893L125.863 105.311L129.504 106.896Z" fill="#FFB573"/>
<path d="M90.6719 63.8593C90.905 67.6317 90.8504 69.8536 92.7653 71.7892C95.6425 74.7025 100.32 72.9743 101.223 69.2068C102.042 65.8195 101.521 60.2202 97.8103 58.7191C96.9942 58.3844 96.1056 58.2628 95.229 58.366C94.3524 58.4692 93.5168 58.7937 92.8016 59.3086C92.0864 59.8236 91.5154 60.512 91.1426 61.3085C90.7699 62.1049 90.6078 62.983 90.6719 63.8593Z" fill="#FFB573"/>
<path d="M90.2352 68.9897C90.2352 68.9897 86.8024 63.8643 87.5465 60.5215C88.2261 57.465 95.1562 56.3738 98.0334 56.68C101.089 57.0108 102.28 58.3193 100.603 60.956C99.6136 61.4228 98.5732 61.774 97.5026 62.0028C97.5026 62.0028 99.2042 64.0816 99.219 65.4592C98.723 65.716 97.1901 66.3282 97.1901 66.3282C97.1901 66.3282 95.0173 71.6659 94.9528 71.656C94.1145 71.5573 92.1748 71.5276 91.4803 71.7893C90.9883 70.892 90.5718 69.9555 90.2352 68.9897Z" fill="#263238"/>
<path d="M95.687 65.7753C95.9372 66.6777 96.4773 67.4737 97.2248 68.0417C98.2169 68.7824 98.9561 68.0812 98.8817 66.9702C98.8172 65.9827 98.2219 64.3878 97.1306 64.0767C96.0392 63.7657 95.3993 64.6841 95.687 65.7753Z" fill="#FFB573"/>
<path opacity="0.3" d="M95.3497 119.69C90.4733 120.816 91.3811 138.374 92.3187 148.383C92.3634 148.156 92.3981 147.944 92.4378 147.736C93.6482 141.149 95.3795 128.874 96.5849 120.016C96.2095 119.8 95.7832 119.687 95.3497 119.69Z" fill="black"/>
<path d="M100.068 202.007C100.534 202.007 100.985 201.942 101.139 201.735C101.179 201.68 101.2 201.615 101.2 201.547C101.2 201.48 101.179 201.414 101.139 201.36C101.11 201.309 101.07 201.265 101.024 201.231C100.977 201.196 100.923 201.171 100.866 201.157C100.261 200.994 98.9861 201.715 98.9315 201.75C98.9164 201.759 98.9045 201.772 98.8974 201.788C98.8903 201.804 98.8883 201.822 98.8918 201.839C98.8953 201.856 98.9038 201.871 98.9161 201.884C98.9285 201.896 98.9442 201.904 98.9613 201.908C99.3266 201.972 99.6966 202.005 100.068 202.007ZM100.648 201.305C100.702 201.298 100.757 201.298 100.812 201.305C100.847 201.312 100.88 201.326 100.909 201.347C100.938 201.367 100.962 201.393 100.98 201.424C101.045 201.533 101.02 201.587 100.98 201.616C100.812 201.849 99.8889 201.853 99.2093 201.76C99.6546 201.517 100.143 201.362 100.648 201.305Z" fill="#223C6A"/>
<path d="M98.9662 201.908H99.0009C99.4424 201.71 100.315 200.92 100.246 200.515C100.246 200.416 100.162 200.298 99.9236 200.273C99.8351 200.263 99.7453 200.27 99.66 200.296C99.5746 200.321 99.4954 200.364 99.4275 200.421C98.9612 200.802 98.867 201.779 98.862 201.819C98.8601 201.834 98.8623 201.849 98.8684 201.863C98.8745 201.877 98.8843 201.889 98.8967 201.898C98.9177 201.91 98.9426 201.913 98.9662 201.908ZM99.8541 200.426H99.9087C100.062 200.426 100.072 200.5 100.077 200.52C100.117 200.767 99.5218 201.384 99.0852 201.651C99.1307 201.237 99.304 200.847 99.5813 200.535C99.659 200.473 99.7548 200.439 99.8541 200.436V200.426Z" fill="#223C6A"/>
<path d="M94.958 201.824H98.6041L98.9663 193.42H95.3251L94.958 201.824Z" fill="#FFB573"/>
<path d="M98.5792 201.404H94.6107C94.5383 201.404 94.4681 201.429 94.4114 201.474C94.3547 201.518 94.3148 201.581 94.2981 201.651L93.5788 204.875C93.5616 204.953 93.5623 205.034 93.5808 205.111C93.5994 205.189 93.6353 205.261 93.6858 205.323C93.7364 205.385 93.8003 205.434 93.8729 205.468C93.9454 205.501 94.0246 205.518 94.1047 205.517C95.5383 205.517 97.6119 205.413 99.4176 205.413C101.531 205.413 103.351 205.527 105.827 205.527C107.315 205.527 107.737 204.021 107.112 203.883C104.259 203.266 101.933 203.196 99.4672 201.685C99.2035 201.511 98.8958 201.413 98.5792 201.404Z" fill="#263238"/>
<path opacity="0.2" d="M98.966 193.425L98.7775 197.755H95.1313L95.3199 193.425H98.966Z" fill="black"/>
<path d="M104.483 109.553C104.483 109.553 104.979 136.676 104.587 147.736C104.175 159.241 100.122 196.916 100.122 196.916H93.9662C93.9662 196.916 93.738 159.913 93.4701 148.615C93.1675 136.271 91.6743 109.553 91.6743 109.553H104.483Z" fill="#263238"/>
<path d="M101.328 194.467C101.353 194.467 100.976 197.019 100.976 197.019H93.4701L93.2617 194.743L101.328 194.467Z" fill="#223C6A"/>
<path d="M104.264 78.1984C104.264 78.1984 108.64 84.8347 104.974 111.829H84.3868C84.2529 108.866 86.7382 92.0437 83.8511 78.0108C86.0055 77.5978 88.1845 77.324 90.3744 77.1911C93.1336 77.033 95.8996 77.033 98.6588 77.1911C100.551 77.3808 102.425 77.7176 104.264 78.1984Z" fill="#223C6A"/>
<path opacity="0.2" d="M106.437 92.0091L102.121 84.8889C102.121 84.8889 103.743 94.9816 106.229 99.5342C106.397 96.6851 106.457 94.1866 106.437 92.0091Z" fill="black"/>
<path d="M108.278 83.3928C108.987 85.6494 109.766 87.9602 110.565 90.2217C111.363 92.4831 112.197 94.7298 113.11 96.8876L113.457 97.6875C113.487 97.7468 113.513 97.8078 113.536 97.8702C113.557 97.9161 113.58 97.9606 113.606 98.0035C113.826 98.3305 114.082 98.6319 114.37 98.9022C115.153 99.6277 115.994 100.288 116.885 100.877C117.817 101.519 118.805 102.141 119.821 102.729C120.838 103.316 121.89 103.919 122.892 104.437L120.962 108.921C118.521 108.029 116.151 106.953 113.874 105.701C112.655 105.024 111.494 104.25 110.401 103.386C109.75 102.863 109.159 102.27 108.64 101.618C108.491 101.406 108.347 101.218 108.204 100.981C108.06 100.744 107.901 100.448 107.856 100.349L107.42 99.4848C106.284 97.1838 105.267 94.8829 104.329 92.572C103.392 90.2612 102.519 87.9355 101.68 85.5309L108.278 83.3928Z" fill="#223C6A"/>
<path d="M99.4028 79.8378C98.1279 83.0671 105.882 96.0681 105.882 96.0681L110.927 91.2637C110.927 91.2637 109.825 87.1802 108.357 82.2622C106.908 77.4282 100.618 76.7518 99.4028 79.8378Z" fill="#223C6A"/>
</g>
<defs>
<clipPath id="clip0_713_139">
<rect width="248.035" height="246.885" fill="white"/>
</clipPath>
</defs>
</svg>
