<svg width="34" height="34" viewBox="0 0 34 34" fill="none" xmlns="http://www.w3.org/2000/svg">
<g clip-path="url(#clip0_715_45)">
<g clip-path="url(#clip1_715_45)">
<path d="M6.8497 13.8914H7.80126C8.15163 13.8914 8.43564 13.6073 8.43564 13.257V12.3055C8.43564 11.9552 8.15163 11.6711 7.80126 11.6711H6.8497C6.49928 11.6711 6.21533 11.9552 6.21533 12.3055V13.257C6.21533 13.6073 6.49928 13.8914 6.8497 13.8914Z" fill="#6F04B1"/>
<path d="M6.8497 17.6977H7.80126C8.15163 17.6977 8.43564 17.4137 8.43564 17.0634V16.1117C8.43564 15.7613 8.15163 15.4773 7.80126 15.4773H6.8497C6.49928 15.4773 6.21533 15.7613 6.21533 16.1117V17.0634C6.21533 17.4137 6.49928 17.6977 6.8497 17.6977Z" fill="#6F04B1"/>
<path d="M6.8497 21.5039H7.80126C8.15163 21.5039 8.43564 21.2199 8.43564 20.8696V19.9181C8.43564 19.5678 8.15163 19.2837 7.80126 19.2837H6.8497C6.49928 19.2837 6.21533 19.5678 6.21533 19.9181V20.8696C6.21533 21.2199 6.49928 21.5039 6.8497 21.5039Z" fill="#6F04B1"/>
<path d="M6.8497 25.3098H7.80126C8.15163 25.3098 8.43564 25.0257 8.43564 24.6754V23.724C8.43564 23.3737 8.15163 23.0896 7.80126 23.0896H6.8497C6.49928 23.0896 6.21533 23.3737 6.21533 23.724V24.6754C6.21533 25.0257 6.49928 25.3098 6.8497 25.3098Z" fill="#6F04B1"/>
<path d="M10.1803 13.8914H11.1319C11.4822 13.8914 11.7663 13.6073 11.7663 13.257V12.3055C11.7663 11.9552 11.4822 11.6711 11.1319 11.6711H10.1803C9.82991 11.6711 9.5459 11.9552 9.5459 12.3055V13.257C9.5459 13.6073 9.82991 13.8914 10.1803 13.8914Z" fill="#6F04B1"/>
<path d="M10.1803 17.6977H11.1319C11.4822 17.6977 11.7663 17.4137 11.7663 17.0634V16.1117C11.7663 15.7613 11.4822 15.4773 11.1319 15.4773H10.1803C9.82991 15.4773 9.5459 15.7613 9.5459 16.1117V17.0634C9.5459 17.4137 9.82991 17.6977 10.1803 17.6977Z" fill="#6F04B1"/>
<path d="M10.1803 21.5039H11.1319C11.4822 21.5039 11.7663 21.2199 11.7663 20.8696V19.9181C11.7663 19.5678 11.4822 19.2837 11.1319 19.2837H10.1803C9.82991 19.2837 9.5459 19.5678 9.5459 19.9181V20.8696C9.5459 21.2199 9.82991 21.5039 10.1803 21.5039Z" fill="#6F04B1"/>
<path d="M10.1803 25.3098H11.1319C11.4822 25.3098 11.7663 25.0257 11.7663 24.6754V23.724C11.7663 23.3737 11.4822 23.0896 11.1319 23.0896H10.1803C9.82991 23.0896 9.5459 23.3737 9.5459 23.724V24.6754C9.5459 25.0257 9.82991 25.3098 10.1803 25.3098Z" fill="#6F04B1"/>
<path d="M13.5108 13.8914H14.4625C14.8128 13.8914 15.0968 13.6073 15.0968 13.257V12.3055C15.0968 11.9552 14.8128 11.6711 14.4625 11.6711H13.5108C13.1605 11.6711 12.8765 11.9552 12.8765 12.3055V13.257C12.8765 13.6073 13.1605 13.8914 13.5108 13.8914Z" fill="#6F04B1"/>
<path d="M13.5108 17.6977H14.4625C14.8128 17.6977 15.0968 17.4137 15.0968 17.0634V16.1117C15.0968 15.7613 14.8128 15.4773 14.4625 15.4773H13.5108C13.1605 15.4773 12.8765 15.7613 12.8765 16.1117V17.0634C12.8765 17.4137 13.1605 17.6977 13.5108 17.6977Z" fill="#6F04B1"/>
<path d="M13.5108 21.5039H14.4625C14.8128 21.5039 15.0968 21.2199 15.0968 20.8696V19.9181C15.0968 19.5678 14.8128 19.2837 14.4625 19.2837H13.5108C13.1605 19.2837 12.8765 19.5678 12.8765 19.9181V20.8696C12.8765 21.2199 13.1605 21.5039 13.5108 21.5039Z" fill="#6F04B1"/>
<path d="M13.5108 25.3098H14.4625C14.8128 25.3098 15.0968 25.0257 15.0968 24.6754V23.724C15.0968 23.3737 14.8128 23.0896 14.4625 23.0896H13.5108C13.1605 23.0896 12.8765 23.3737 12.8765 23.724V24.6754C12.8765 25.0257 13.1605 25.3098 13.5108 25.3098Z" fill="#6F04B1"/>
<path d="M19.5372 13.8914H20.4888C20.8391 13.8914 21.1231 13.6073 21.1231 13.257V12.3055C21.1231 11.9552 20.8391 11.6711 20.4888 11.6711H19.5372C19.1868 11.6711 18.9028 11.9552 18.9028 12.3055V13.257C18.9028 13.6073 19.1868 13.8914 19.5372 13.8914Z" fill="#6F04B1"/>
<path d="M19.5372 10.0854H20.4888C20.8391 10.0854 21.1231 9.80133 21.1231 9.45103V8.4996C21.1231 8.1493 20.8391 7.86523 20.4888 7.86523H19.5372C19.1868 7.86523 18.9028 8.1493 18.9028 8.4996V9.45103C18.9028 9.80133 19.1868 10.0854 19.5372 10.0854Z" fill="#6F04B1"/>
<path d="M19.5372 6.27958H20.4888C20.8391 6.27958 21.1231 5.9955 21.1231 5.6452V4.69345C21.1231 4.34315 20.8391 4.05908 20.4888 4.05908H19.5372C19.1868 4.05908 18.9028 4.34315 18.9028 4.69345V5.6452C18.9028 5.9955 19.1868 6.27958 19.5372 6.27958Z" fill="#6F04B1"/>
<path d="M19.5372 17.6977H20.4888C20.8391 17.6977 21.1231 17.4137 21.1231 17.0634V16.1117C21.1231 15.7613 20.8391 15.4773 20.4888 15.4773H19.5372C19.1868 15.4773 18.9028 15.7613 18.9028 16.1117V17.0634C18.9028 17.4137 19.1868 17.6977 19.5372 17.6977Z" fill="#6F04B1"/>
<path d="M19.5372 21.5039H20.4888C20.8391 21.5039 21.1231 21.2199 21.1231 20.8696V19.9181C21.1231 19.5678 20.8391 19.2837 20.4888 19.2837H19.5372C19.1868 19.2837 18.9028 19.5678 18.9028 19.9181V20.8696C18.9028 21.2199 19.1868 21.5039 19.5372 21.5039Z" fill="#6F04B1"/>
<path d="M19.5372 25.3098H20.4888C20.8391 25.3098 21.1231 25.0257 21.1231 24.6754V23.724C21.1231 23.3737 20.8391 23.0896 20.4888 23.0896H19.5372C19.1868 23.0896 18.9028 23.3737 18.9028 23.724V24.6754C18.9028 25.0257 19.1868 25.3098 19.5372 25.3098Z" fill="#6F04B1"/>
<path d="M22.8678 13.8914H23.8193C24.1697 13.8914 24.4537 13.6073 24.4537 13.257V12.3055C24.4537 11.9552 24.1697 11.6711 23.8193 11.6711H22.8678C22.5175 11.6711 22.2334 11.9552 22.2334 12.3055V13.257C22.2334 13.6073 22.5175 13.8914 22.8678 13.8914Z" fill="#6F04B1"/>
<path d="M22.8678 10.0854H23.8193C24.1697 10.0854 24.4537 9.80133 24.4537 9.45103V8.4996C24.4537 8.1493 24.1697 7.86523 23.8193 7.86523H22.8678C22.5175 7.86523 22.2334 8.1493 22.2334 8.4996V9.45103C22.2334 9.80133 22.5175 10.0854 22.8678 10.0854Z" fill="#6F04B1"/>
<path d="M22.8678 6.27958H23.8193C24.1697 6.27958 24.4537 5.9955 24.4537 5.6452V4.69345C24.4537 4.34315 24.1697 4.05908 23.8193 4.05908H22.8678C22.5175 4.05908 22.2334 4.34315 22.2334 4.69345V5.6452C22.2334 5.9955 22.5175 6.27958 22.8678 6.27958Z" fill="#6F04B1"/>
<path d="M22.8678 17.6977H23.8193C24.1697 17.6977 24.4537 17.4137 24.4537 17.0634V16.1117C24.4537 15.7613 24.1697 15.4773 23.8193 15.4773H22.8678C22.5175 15.4773 22.2334 15.7613 22.2334 16.1117V17.0634C22.2334 17.4137 22.5175 17.6977 22.8678 17.6977Z" fill="#6F04B1"/>
<path d="M22.8678 21.5039H23.8193C24.1697 21.5039 24.4537 21.2199 24.4537 20.8696V19.9181C24.4537 19.5678 24.1697 19.2837 23.8193 19.2837H22.8678C22.5175 19.2837 22.2334 19.5678 22.2334 19.9181V20.8696C22.2334 21.2199 22.5175 21.5039 22.8678 21.5039Z" fill="#6F04B1"/>
<path d="M22.8678 25.3098H23.8193C24.1697 25.3098 24.4537 25.0257 24.4537 24.6754V23.724C24.4537 23.3737 24.1697 23.0896 23.8193 23.0896H22.8678C22.5175 23.0896 22.2334 23.3737 22.2334 23.724V24.6754C22.2334 25.0257 22.5175 25.3098 22.8678 25.3098Z" fill="#6F04B1"/>
<path d="M26.1983 13.8914H27.1498C27.5001 13.8914 27.7842 13.6073 27.7842 13.257V12.3055C27.7842 11.9552 27.5001 11.6711 27.1498 11.6711H26.1983C25.848 11.6711 25.564 11.9552 25.564 12.3055V13.257C25.564 13.6073 25.848 13.8914 26.1983 13.8914Z" fill="#6F04B1"/>
<path d="M26.1983 10.0854H27.1498C27.5001 10.0854 27.7842 9.80133 27.7842 9.45103V8.4996C27.7842 8.1493 27.5001 7.86523 27.1498 7.86523H26.1983C25.848 7.86523 25.564 8.1493 25.564 8.4996V9.45103C25.564 9.80133 25.848 10.0854 26.1983 10.0854Z" fill="#6F04B1"/>
<path d="M26.1983 6.27958H27.1498C27.5001 6.27958 27.7842 5.9955 27.7842 5.6452V4.69345C27.7842 4.34315 27.5001 4.05908 27.1498 4.05908H26.1983C25.848 4.05908 25.564 4.34315 25.564 4.69345V5.6452C25.564 5.9955 25.848 6.27958 26.1983 6.27958Z" fill="#6F04B1"/>
<path d="M26.1983 17.6977H27.1498C27.5001 17.6977 27.7842 17.4137 27.7842 17.0634V16.1117C27.7842 15.7613 27.5001 15.4773 27.1498 15.4773H26.1983C25.848 15.4773 25.564 15.7613 25.564 16.1117V17.0634C25.564 17.4137 25.848 17.6977 26.1983 17.6977Z" fill="#6F04B1"/>
<path d="M26.1983 21.5039H27.1498C27.5001 21.5039 27.7842 21.2199 27.7842 20.8696V19.9181C27.7842 19.5678 27.5001 19.2837 27.1498 19.2837H26.1983C25.848 19.2837 25.564 19.5678 25.564 19.9181V20.8696C25.564 21.2199 25.848 21.5039 26.1983 21.5039Z" fill="#6F04B1"/>
<path d="M26.1983 25.3098H27.1498C27.5001 25.3098 27.7842 25.0257 27.7842 24.6754V23.724C27.7842 23.3737 27.5001 23.0896 27.1498 23.0896H26.1983C25.848 23.0896 25.564 23.3737 25.564 23.724V24.6754C25.564 25.0257 25.848 25.3098 26.1983 25.3098Z" fill="#6F04B1"/>
<path d="M8.1041 29.4338C7.75373 29.4338 7.46973 29.7179 7.46973 30.0682C7.46973 30.4186 7.75373 30.7026 8.1041 30.7026H8.11907C8.46937 30.7026 8.75344 30.4186 8.75344 30.0682C8.75344 29.7178 8.46937 29.4338 8.11907 29.4338H8.1041Z" fill="#6F04B1"/>
<path d="M20.7916 29.4338C20.4412 29.4338 20.1572 29.7179 20.1572 30.0682C20.1572 30.4186 20.4412 30.7026 20.7916 30.7026H20.8065C21.1568 30.7026 21.4409 30.4186 21.4409 30.0682C21.4409 29.7179 21.1568 29.4338 20.8065 29.4338H20.7916Z" fill="#6F04B1"/>
<path d="M1.40911 31.9712H1.39414C1.04371 31.9712 0.759766 32.2553 0.759766 32.6056C0.759766 32.9559 1.04371 33.24 1.39414 33.24H1.40911C1.75941 33.24 2.04348 32.9559 2.04348 32.6056C2.04348 32.2552 1.75947 31.9712 1.40911 31.9712Z" fill="#6F04B1"/>
<path d="M32.6065 31.9712H32.5914C32.2411 31.9712 31.957 32.2553 31.957 32.6056C31.957 32.9559 32.2411 33.24 32.5914 33.24H32.6065C32.9569 33.24 33.2409 32.9559 33.2409 32.6056C33.2409 32.2552 32.9568 31.9712 32.6065 31.9712Z" fill="#6F04B1"/>
<path d="M30.768 31.9711H30.3216V1.39438C30.3216 1.04402 30.0376 0.76001 29.6873 0.76001H17C16.6496 0.76001 16.3656 1.04402 16.3656 1.39438V9.13392H4.31256C3.96213 9.13392 3.67818 9.41799 3.67818 9.76829V31.9711H3.23203C2.88166 31.9711 2.59766 32.2552 2.59766 32.6055C2.59766 32.9558 2.88166 33.2399 3.23203 33.2399H4.31256H10.6563H14.4626H17H23.3437H27.1499H29.6873H29.6873H29.6875H30.768C31.1184 33.2399 31.4024 32.9558 31.4024 32.6055C31.4024 32.2551 31.1184 31.9711 30.768 31.9711ZM13.8283 31.9711H11.2907V29.4338H13.8283V31.9711ZM16.3656 31.9711H15.097V28.7995C15.097 28.4492 14.813 28.1651 14.4626 28.1651H10.6563C10.3059 28.1651 10.0219 28.4492 10.0219 28.7995V31.9711H4.94693V30.7025H6.28127C6.63157 30.7025 6.91564 30.4185 6.91564 30.0681C6.91564 29.7178 6.63157 29.4338 6.28127 29.4338H4.94693V10.4027H16.3656V31.9711ZM26.5155 31.9711H23.9781V29.4338H26.5155V31.9711ZM29.0529 31.9711H27.7843V28.7995C27.7843 28.4492 27.5002 28.1651 27.1499 28.1651H23.3437C22.9934 28.1651 22.7094 28.4492 22.7094 28.7995V31.9711H17.6344V30.7025H18.9687C19.319 30.7025 19.603 30.4185 19.603 30.0681C19.603 29.7178 19.319 29.4338 18.9687 29.4338H17.6344V9.76829V2.02875H29.0529V31.9711Z" fill="#6F04B1"/>
</g>
</g>
<defs>
<clipPath id="clip0_715_45">
<rect width="32.48" height="32.48" fill="white" transform="translate(0.759766 0.76001)"/>
</clipPath>
<clipPath id="clip1_715_45">
<rect width="32.48" height="32.48" fill="white" transform="translate(0.759766 0.76001)"/>
</clipPath>
</defs>
</svg>
