<svg width="24" height="24" viewBox="0 0 24 24" fill="none" xmlns="http://www.w3.org/2000/svg">
<path d="M21 2H3C1.34602 2 0 3.34602 0 5V8.99998C0 10.654 1.34602 12 3 12H5.00002V21C5.00002 21.553 5.448 22 6 22H18C18.553 22 19 21.553 19 21V12H21C22.654 12 24 10.654 24 8.99998V5C24 3.34597 22.654 2 21 2ZM17 20H6.99998V8H17V20H17ZM22 8.99998C22 9.551 21.552 9.99997 21 9.99997H19V7.99995H20C20.553 7.99995 21 7.55197 21 6.99997C21 6.44797 20.553 5.99998 20 5.99998H18H6H3.99998C3.44798 5.99998 3 6.44797 3 6.99997C3 7.55197 3.44798 7.99995 3.99998 7.99995H4.99997V9.99997H3C2.44898 9.99997 2.00002 9.55095 2.00002 8.99998V5C2.00002 4.44898 2.44903 4.00002 3 4.00002H21C21.552 4.00002 22 4.44903 22 5V8.99998Z" fill="#F58634"/>
<path d="M12.4001 13.0999V11.6099C12.7241 11.6939 13.0341 11.8249 13.3201 11.9999C13.3792 12.0119 13.4411 12.0119 13.5001 11.9999C13.7761 12.0049 14.0051 11.7859 14.0101 11.5099C14.0081 11.4139 13.9732 11.3219 13.9102 11.2499C13.4952 10.8709 12.9612 10.6479 12.4002 10.6199V10.0899C12.3952 9.90091 12.2392 9.74993 12.0502 9.74993C12.0462 9.74993 12.0432 9.74993 12.0391 9.74993C11.8462 9.74393 11.6851 9.89693 11.6801 10.0899V10.6099C10.7041 10.5809 9.88412 11.3349 9.83012 12.3099C9.83012 13.4599 10.7801 13.7799 11.6801 14.0099V15.6899C11.2601 15.6309 10.8631 15.4619 10.5301 15.1999C10.4471 15.136 10.3451 15.1009 10.2401 15.1C9.97215 15.111 9.76013 15.331 9.76013 15.6C9.76013 15.699 9.79613 15.795 9.86012 15.87C10.3531 16.335 11.0021 16.599 11.6801 16.61V17.11C11.6801 17.114 11.6801 17.117 11.6801 17.121C11.6921 17.314 11.8571 17.461 12.0501 17.45C12.2391 17.45 12.3951 17.2991 12.4001 17.1101V16.61C13.7001 16.49 14.2501 15.72 14.2901 14.8601C14.2901 13.6899 13.3001 13.3399 12.4001 13.0999ZM11.6801 12.8799C11.2201 12.7499 10.8901 12.6299 10.8901 12.2399C10.8901 11.8499 11.2001 11.5799 11.6801 11.5299V12.8799ZM12.4001 15.6899V14.2099V14.2C12.8701 14.34 13.2201 14.5999 13.2201 14.9299C13.2202 15.2599 12.9901 15.5999 12.4001 15.6899Z" fill="#F58634"/>
</svg>
