<svg width="24" height="24" viewBox="0 0 24 24" fill="none" xmlns="http://www.w3.org/2000/svg">
<path d="M22.8 5.6001H18.4V4.4001C18.3983 2.85445 17.1457 1.60185 15.6 1.6001H8.4C6.85435 1.60185 5.60175 2.85445 5.6 4.4001V5.6001H1.2C0.53725 5.6001 0 6.13735 0 6.8001V14.8001C0.0021 15.3068 0.32225 15.7576 0.8 15.9265V21.2001C0.8 21.8628 1.33725 22.4001 2 22.4001H22C22.6628 22.4001 23.2 21.8628 23.2 21.2001V15.9265C23.6777 15.7576 23.9979 15.3068 24 14.8001V6.8001C24 6.13735 23.4627 5.6001 22.8 5.6001ZM6.4 4.4001C6.4013 3.2961 7.296 2.4014 8.4 2.4001H15.6C16.704 2.4014 17.5987 3.2961 17.6 4.4001V5.6001H16.784L16.8 4.4001C16.7987 3.7379 16.2622 3.2014 15.6 3.2001H8.3852C7.723 3.2014 7.1865 3.7379 7.1852 4.4001V4.4041L7.196 5.6001H6.4V4.4001ZM16 4.3945L15.984 5.6001H7.996L7.9836 4.4001C7.9836 4.1792 8.1627 4.0001 8.3836 4.0001H15.6C15.8188 4.0001 15.997 4.17575 16 4.3945ZM22.4 21.2001C22.4 21.421 22.2209 21.6001 22 21.6001H2C1.7791 21.6001 1.6 21.421 1.6 21.2001V16.0001H4.4V17.2001C4.4 17.421 4.5791 17.6001 4.8 17.6001H6.4C6.6209 17.6001 6.8 17.421 6.8 17.2001V16.0001H17.2V17.2001C17.2 17.421 17.3791 17.6001 17.6 17.6001H19.2C19.4209 17.6001 19.6 17.421 19.6 17.2001V16.0001H22.4V21.2001ZM5.2 16.8001V14.8001C5.1998 14.6922 5.24425 14.5891 5.3228 14.5153C5.39555 14.4405 5.4957 14.3989 5.6 14.4001C5.8209 14.4001 6 14.5792 6 14.8001V15.6001V16.8001H5.2ZM18 16.8001V14.8001C18 14.5792 18.1791 14.4001 18.4 14.4001C18.5079 14.3997 18.6112 14.444 18.6852 14.5225C18.7594 14.5957 18.8008 14.6958 18.8 14.8001V15.6001V16.8001H18ZM23.2 14.8001C23.2 15.021 23.0209 15.2001 22.8 15.2001H19.6V14.8001C19.5972 14.1385 19.0616 13.6029 18.4 13.6001C17.7372 13.6001 17.2 14.1373 17.2 14.8001V15.2001H6.8V14.8001C6.8 14.1373 6.26275 13.6001 5.6 13.6001C4.9388 13.6038 4.4037 14.1389 4.4 14.8001V15.2001H1.2C0.9791 15.2001 0.8 15.021 0.8 14.8001V6.8001C0.8 6.5792 0.9791 6.4001 1.2 6.4001H22.8C23.0209 6.4001 23.2 6.5792 23.2 6.8001V14.8001Z" fill="#F58634"/>
</svg>
