<svg width="242" height="261" viewBox="0 0 242 261" fill="none" xmlns="http://www.w3.org/2000/svg">
<g clip-path="url(#clip0_704_489)">
<path d="M241.916 196.666H0.0917969V196.796H241.916V196.666Z" fill="#EBEBEB"/>
<path d="M217.685 205.055H201.667V205.185H217.685V205.055Z" fill="#EBEBEB"/>
<path d="M160.285 206.473H156.083V206.604H160.285V206.473Z" fill="#EBEBEB"/>
<path d="M201.183 200.216H191.901V200.347H201.183V200.216Z" fill="#EBEBEB"/>
<path d="M46.3526 201.092H25.4639V201.223H46.3526V201.092Z" fill="#EBEBEB"/>
<path d="M53.7236 201.092H50.6621V201.223H53.7236V201.092Z" fill="#EBEBEB"/>
<path d="M108.985 203.293H63.6772V203.423H108.985V203.293Z" fill="#EBEBEB"/>
<path d="M114.717 173.411H21.3291C20.5975 173.41 19.8963 173.096 19.3794 172.538C18.8626 171.979 18.5723 171.223 18.5723 170.434V28.912C18.5723 28.1233 18.8626 27.3668 19.3794 26.8086C19.8963 26.2505 20.5975 25.9362 21.3291 25.9348H114.717C115.449 25.9348 116.151 26.2485 116.669 26.8068C117.187 27.3651 117.478 28.1224 117.478 28.912V170.434C117.478 171.224 117.187 171.981 116.669 172.539C116.151 173.098 115.449 173.411 114.717 173.411ZM21.3291 26.0652C20.6295 26.0665 19.9591 26.3671 19.4649 26.9008C18.9707 27.4345 18.6932 28.1579 18.6932 28.912V170.434C18.6932 171.188 18.9707 171.912 19.4649 172.445C19.9591 172.979 20.6295 173.28 21.3291 173.281H114.717C115.417 173.28 116.088 172.979 116.582 172.446C117.077 171.912 117.356 171.189 117.357 170.434V28.912C117.356 28.1574 117.077 27.4341 116.582 26.9005C116.088 26.3669 115.417 26.0665 114.717 26.0652H21.3291Z" fill="#EBEBEB"/>
<path d="M219.334 173.411H125.942C125.21 173.41 124.508 173.096 123.99 172.538C123.473 171.98 123.181 171.223 123.18 170.434V28.912C123.181 28.1228 123.473 27.3664 123.99 26.8083C124.508 26.2503 125.21 25.9362 125.942 25.9348H219.334C220.065 25.9376 220.765 26.2525 221.281 26.8105C221.797 27.3685 222.086 28.1242 222.086 28.912V170.434C222.086 171.222 221.797 171.978 221.281 172.536C220.765 173.094 220.065 173.409 219.334 173.411ZM125.942 26.0652C125.242 26.0665 124.571 26.3669 124.076 26.9005C123.581 27.4341 123.302 28.1574 123.301 28.912V170.434C123.302 171.189 123.581 171.912 124.076 172.446C124.571 172.979 125.242 173.28 125.942 173.281H219.334C220.034 173.28 220.705 172.979 221.2 172.446C221.695 171.912 221.974 171.189 221.975 170.434V28.912C221.974 28.1574 221.695 27.4341 221.2 26.9005C220.705 26.3669 220.034 26.0665 219.334 26.0652H125.942Z" fill="#EBEBEB"/>
<path d="M153.969 192.677C152.256 194.345 150.873 196.369 149.901 198.626C148.325 191.368 143.687 186.175 143.687 186.175C145.61 190.402 146.748 194.993 147.038 199.69C146.071 196.593 144.073 195.712 144.073 195.712C145.563 198.793 145.017 202.907 145.017 202.907H151.884C151.805 199.366 152.52 195.856 153.969 192.677Z" fill="#F0F0F0"/>
<path d="M211.03 204.241C211.251 200.686 212.114 197.211 213.569 194.012C211.321 196.703 209.707 199.938 208.864 203.444C208.126 201.734 207.079 200.2 205.783 198.934C206.88 201.34 207.421 203.996 207.359 206.676H212.559C212.559 206.676 212.148 203.548 213.274 201.228C213.274 201.228 211.751 201.895 211.03 204.241Z" fill="#F0F0F0"/>
<path d="M30.9485 202.292C30.7336 198.93 29.9122 195.647 28.5303 192.625C30.6566 195.168 32.1829 198.227 32.9798 201.541C33.6725 199.924 34.6593 198.474 35.8817 197.276C34.8485 199.545 34.336 202.048 34.3873 204.575H29.5024C29.5024 204.575 29.8942 201.635 28.8253 199.424C29.3428 199.719 29.7984 200.126 30.1637 200.62C30.529 201.113 30.7961 201.682 30.9485 202.292Z" fill="#F0F0F0"/>
<path d="M142.7 173.13C138.927 151.56 134.894 119.285 122.498 118.597C103.689 117.554 106.141 150.402 95.6942 149.756C85.2474 149.109 84.5171 99.389 64.6488 99.6758C46.009 99.9417 38.1691 165.043 37.2695 173.13H142.7Z" fill="#E0E0E0"/>
<g style="mix-blend-mode:multiply">
<path d="M217.937 153.463V144.568H127.02V153.463H217.937Z" fill="#E0E0E0"/>
</g>
<path d="M142.913 139.411H134.662V184.111H142.913V139.411Z" fill="#F0F0F0"/>
<path d="M159.981 139.411H151.73V184.111H159.981V139.411Z" fill="#F0F0F0"/>
<path d="M177.044 139.411H168.793V184.111H177.044V139.411Z" fill="#F0F0F0"/>
<path d="M194.107 139.411H185.856V184.111H194.107V139.411Z" fill="#F0F0F0"/>
<path d="M211.17 139.411H202.919V184.111H211.17V139.411Z" fill="#F0F0F0"/>
<path d="M139.9 148.744C139.9 148.507 139.834 148.275 139.712 148.078C139.59 147.881 139.416 147.727 139.213 147.636C139.01 147.546 138.786 147.522 138.57 147.568C138.354 147.614 138.156 147.729 138.001 147.896C137.845 148.064 137.739 148.278 137.696 148.51C137.653 148.743 137.675 148.984 137.759 149.203C137.844 149.422 137.986 149.61 138.169 149.741C138.352 149.873 138.567 149.944 138.787 149.944C139.082 149.944 139.365 149.817 139.574 149.592C139.782 149.367 139.9 149.062 139.9 148.744Z" fill="#F9F9F9"/>
<path d="M156.963 148.744C156.963 148.507 156.898 148.275 156.775 148.078C156.653 147.88 156.479 147.727 156.275 147.636C156.072 147.545 155.848 147.522 155.632 147.569C155.416 147.615 155.218 147.73 155.062 147.898C154.907 148.066 154.801 148.281 154.759 148.514C154.717 148.747 154.739 148.988 154.824 149.207C154.909 149.426 155.053 149.613 155.236 149.744C155.42 149.875 155.635 149.945 155.855 149.944C156.15 149.942 156.431 149.815 156.639 149.59C156.846 149.366 156.963 149.061 156.963 148.744Z" fill="#F9F9F9"/>
<path d="M174.031 148.744C174.031 148.507 173.966 148.275 173.843 148.078C173.721 147.881 173.547 147.727 173.344 147.636C173.141 147.546 172.917 147.522 172.702 147.568C172.486 147.614 172.288 147.729 172.132 147.896C171.976 148.064 171.87 148.278 171.828 148.51C171.785 148.743 171.807 148.984 171.891 149.203C171.975 149.422 172.118 149.61 172.301 149.741C172.483 149.873 172.699 149.944 172.919 149.944C173.214 149.944 173.496 149.817 173.705 149.592C173.914 149.367 174.031 149.062 174.031 148.744Z" fill="#F9F9F9"/>
<path d="M191.094 148.744C191.094 148.507 191.029 148.275 190.906 148.078C190.784 147.881 190.61 147.727 190.407 147.636C190.204 147.546 189.98 147.522 189.765 147.568C189.549 147.614 189.351 147.729 189.195 147.896C189.039 148.064 188.933 148.278 188.891 148.51C188.848 148.743 188.87 148.984 188.954 149.203C189.038 149.422 189.181 149.61 189.364 149.741C189.546 149.873 189.762 149.944 189.982 149.944C190.277 149.944 190.559 149.817 190.768 149.592C190.977 149.367 191.094 149.062 191.094 148.744Z" fill="#F9F9F9"/>
<path d="M208.157 148.744C208.157 148.507 208.092 148.275 207.97 148.078C207.848 147.881 207.674 147.727 207.471 147.636C207.267 147.546 207.044 147.522 206.828 147.568C206.612 147.614 206.414 147.729 206.258 147.896C206.103 148.064 205.997 148.278 205.954 148.51C205.911 148.743 205.933 148.984 206.017 149.203C206.101 149.422 206.244 149.61 206.427 149.741C206.61 149.873 206.825 149.944 207.045 149.944C207.34 149.944 207.623 149.817 207.832 149.592C208.04 149.367 208.157 149.062 208.157 148.744Z" fill="#F9F9F9"/>
<path d="M80.7979 153.468V144.573H23.8822V153.468H80.7979Z" fill="#E0E0E0"/>
<g style="mix-blend-mode:multiply" opacity="0.3">
<path d="M217.937 153.463V144.568H127.02V153.463H217.937Z" fill="#E0E0E0"/>
</g>
<g style="mix-blend-mode:multiply" opacity="0.3">
<path d="M80.7979 153.468V144.573H23.8822V153.468H80.7979Z" fill="#E0E0E0"/>
</g>
<path d="M39.7749 139.411H31.5239V184.111H39.7749V139.411Z" fill="#F0F0F0"/>
<path d="M56.8384 139.411H48.5874V184.111H56.8384V139.411Z" fill="#F0F0F0"/>
<path d="M73.9063 139.411H65.6553V184.111H73.9063V139.411Z" fill="#F0F0F0"/>
<path d="M36.7619 148.744C36.7619 148.507 36.6967 148.275 36.5744 148.078C36.4522 147.881 36.2785 147.727 36.0752 147.636C35.8719 147.546 35.6483 147.522 35.4325 147.568C35.2167 147.614 35.0185 147.729 34.8629 147.896C34.7074 148.064 34.6014 148.278 34.5585 148.51C34.5156 148.743 34.5376 148.984 34.6218 149.203C34.706 149.422 34.8486 149.61 35.0315 149.741C35.2144 149.873 35.4295 149.944 35.6495 149.944C35.9445 149.944 36.2275 149.817 36.4361 149.592C36.6447 149.367 36.7619 149.062 36.7619 148.744Z" fill="#F9F9F9"/>
<path d="M53.8249 148.744C53.8249 148.507 53.7596 148.275 53.6374 148.078C53.5152 147.881 53.3414 147.727 53.1382 147.636C52.9349 147.546 52.7113 147.522 52.4955 147.568C52.2797 147.614 52.0815 147.729 51.9259 147.896C51.7703 148.064 51.6644 148.278 51.6215 148.51C51.5786 148.743 51.6006 148.984 51.6848 149.203C51.769 149.422 51.9115 149.61 52.0945 149.741C52.2774 149.873 52.4925 149.944 52.7125 149.944C53.0075 149.944 53.2905 149.817 53.4991 149.592C53.7077 149.367 53.8249 149.062 53.8249 148.744Z" fill="#F9F9F9"/>
<path d="M70.8883 148.744C70.8883 148.507 70.8231 148.275 70.7009 148.078C70.5786 147.881 70.4049 147.727 70.2017 147.636C69.9984 147.546 69.7747 147.522 69.5589 147.568C69.3432 147.614 69.145 147.729 68.9894 147.896C68.8338 148.064 68.7279 148.278 68.6849 148.51C68.642 148.743 68.6641 148.984 68.7483 149.203C68.8324 149.422 68.975 149.61 69.158 149.741C69.3409 149.873 69.556 149.944 69.776 149.944C69.922 149.944 70.0667 149.913 70.2017 149.852C70.3366 149.792 70.4592 149.704 70.5625 149.592C70.6658 149.481 70.7478 149.349 70.8037 149.203C70.8596 149.058 70.8883 148.902 70.8883 148.744Z" fill="#F9F9F9"/>
<path d="M209.995 79.8366C210.061 79.4285 210.095 79.0151 210.097 78.6009C210.101 77.4557 209.873 76.3232 209.429 75.283C208.984 74.2427 208.334 73.3197 207.524 72.5786C206.714 71.8376 205.764 71.2963 204.74 70.9928C203.715 70.6894 202.642 70.6309 201.594 70.8217C200.756 69.314 199.526 68.104 198.056 67.3414C196.587 66.5787 194.943 66.2967 193.326 66.5302C191.71 66.7636 190.192 67.5024 188.961 68.6551C187.73 69.8079 186.839 71.3242 186.398 73.0168C185.586 72.7471 184.727 72.6862 183.889 72.8392C183.051 72.9922 182.259 73.3547 181.574 73.8977C180.89 74.4406 180.334 75.1489 179.949 75.9657C179.565 76.7825 179.363 77.685 179.361 78.6009C179.363 79.0164 179.406 79.4305 179.487 79.8366H209.995Z" fill="#F0F0F0"/>
<path d="M89.238 62.8221C91.1594 52.0657 84.6285 41.6669 74.6509 39.5955C64.6733 37.5242 55.0273 44.5647 53.1059 55.3211C51.1845 66.0774 57.7154 76.4763 67.693 78.5476C77.6706 80.619 87.3166 73.5784 89.238 62.8221Z" fill="#F0F0F0"/>
<path opacity="0.1" d="M89.238 62.8221C91.1594 52.0657 84.6285 41.6669 74.6509 39.5955C64.6733 37.5242 55.0273 44.5647 53.1059 55.3211C51.1845 66.0774 57.7154 76.4763 67.693 78.5476C77.6706 80.619 87.3166 73.5784 89.238 62.8221Z" fill="black"/>
<path d="M64.0881 57.9069C64.1516 57.488 64.1855 57.0644 64.1897 56.6399C64.1897 54.4905 63.3989 52.4288 61.9909 50.9069C60.5829 49.3851 58.6724 48.5273 56.6786 48.5218C56.2701 48.523 55.8624 48.5613 55.4598 48.6365C54.5997 47.0768 53.3335 45.8239 51.8184 45.0335C50.3034 44.243 48.6063 43.9498 46.938 44.1903C45.2697 44.4309 43.7037 45.1944 42.4346 46.3863C41.1655 47.5781 40.2491 49.1456 39.7993 50.8942C38.8682 50.5818 37.8774 50.5378 36.9256 50.7667C35.9739 50.9956 35.0943 51.4894 34.3747 52.1988C33.655 52.9082 33.1203 53.8085 32.8238 54.81C32.5273 55.8115 32.4794 56.8792 32.6848 57.9069H64.0881Z" fill="#F0F0F0"/>
<path d="M81.2286 68.3504C81.1283 67.7062 81.1601 67.0462 81.3217 66.4167C81.4833 65.7872 81.7708 65.2035 82.1639 64.7066C82.5571 64.2097 83.0465 63.8116 83.5976 63.5403C84.1488 63.2691 84.7483 63.1312 85.3541 63.1364C85.5828 63.1378 85.811 63.1605 86.0361 63.2042C86.5122 62.3344 87.2153 61.635 88.0578 61.1934C88.9003 60.7517 89.8448 60.5874 90.7734 60.7209C91.702 60.8544 92.5736 61.2797 93.2793 61.9439C93.9851 62.6081 94.4937 63.4816 94.7417 64.4555C95.2059 64.2993 95.6976 64.263 96.1772 64.3496C96.6568 64.4361 97.1108 64.643 97.5025 64.9536C97.8942 65.2642 98.2126 65.6698 98.4321 66.1376C98.6515 66.6054 98.7658 67.1223 98.7657 67.6465C98.7654 67.8847 98.7428 68.1223 98.698 68.3556L81.2286 68.3504Z" fill="#F0F0F0"/>
<path d="M48.5873 83.3926C46.2078 82.428 41.6711 81.3957 39.5044 86.1716C39.5044 86.1716 41.9903 84.0861 46.1739 84.5762C46.0062 84.8898 45.9061 85.2401 45.881 85.6012C45.8559 85.9622 45.9064 86.3246 46.0288 86.6618L48.6115 85.1236H48.6502C54.2411 83.3353 57.675 86.2134 57.675 86.2134C55.5035 81.3957 50.9668 82.428 48.5873 83.3926Z" fill="#F0F0F0"/>
<path d="M121.004 223.21C172.794 223.21 214.778 220.567 214.778 217.308C214.778 214.048 172.794 211.406 121.004 211.406C69.2138 211.406 27.2295 214.048 27.2295 217.308C27.2295 220.567 69.2138 223.21 121.004 223.21Z" fill="#F5F5F5"/>
<path d="M179.065 62.4136C185.822 61.666 191.155 59.5366 190.976 57.6574C190.797 55.7783 185.174 54.861 178.417 55.6087C171.66 56.3563 166.327 58.4857 166.506 60.3649C166.685 62.244 172.308 63.1613 179.065 62.4136Z" fill="#223C6A"/>
<path opacity="0.35" d="M184.362 56.1079C184.406 56.1079 185.508 56.1705 185.329 56.5094C185.15 56.8483 184.227 56.7597 184.227 56.7597L184.362 56.1079Z" fill="black"/>
<path opacity="0.35" d="M172.333 57.4219C172.333 57.4219 171.405 57.5939 171.603 58.1988C171.801 58.8036 173.755 58.5116 173.755 58.5116L173.272 57.7034L172.333 57.4219Z" fill="black"/>
<path d="M158.245 105.229L151.343 98.1117C151.339 97.2045 151.035 96.3286 150.487 95.6402C149.587 94.5975 145.568 93.1167 145.307 93.4556C145.046 93.7945 144.674 97.9865 145.123 98.3932C145.573 98.7999 149.631 100.583 149.631 100.583L155.014 108.211L158.245 105.229Z" fill="#FFB573"/>
<path d="M171.26 76.1399L168.6 77.7719C165.625 83.4081 159.004 95.8591 156.992 99.6705C156.918 99.8108 156.816 99.9322 156.695 100.026C156.573 100.12 156.433 100.184 156.286 100.215C156.139 100.245 155.988 100.24 155.842 100.201C155.697 100.162 155.561 100.09 155.444 99.9885L153.79 98.5756L150.095 104.092C150.095 104.092 155.585 110.255 157.461 109.645C161.06 108.461 170.442 91.349 170.442 91.349L171.26 76.1399Z" fill="#223C6A"/>
<path opacity="0.4" d="M166.554 85.791C166.554 85.791 163.169 97.7257 163.285 103.399C165.181 100.515 167.067 97.3086 168.426 94.9206L166.554 85.791Z" fill="black"/>
<path d="M168.914 210.425L164.876 210.884L162.656 188.584L168.914 187.896V210.425Z" fill="#FFB573"/>
<path opacity="0.2" d="M162.902 191.066C164.44 191.003 167.028 190.862 168.914 190.758V187.896L162.656 188.584L162.902 191.066Z" fill="#263238"/>
<path d="M189.048 210.107H185.14L182.146 185.841L188.231 185.012L189.048 210.107Z" fill="#FFB573"/>
<path opacity="0.2" d="M182.335 187.364L182.722 190.513L188.39 189.914L188.231 185.012L182.606 185.779L182.335 187.364Z" fill="#263238"/>
<path d="M190.712 77.9701C189.565 82.5163 188.735 87.1488 188.231 91.8288C188.071 93.2626 187.936 94.6756 187.825 96.0417C187.68 97.7779 187.583 99.4516 187.501 101.042C187.404 103.049 187.375 105.427 187.38 107.768C187.38 113.138 187.588 118.305 187.588 118.305C183.607 119.348 172.111 118.665 165.824 118.17C165.084 111.693 164.889 105.158 165.243 98.6434C165.451 94.3357 165.889 90.0445 166.554 85.791C166.892 83.5234 167.36 81.2805 167.957 79.0755C168.186 78.2932 168.62 77.5986 169.206 77.0745C169.791 76.5504 170.504 76.2188 171.26 76.1191C172.019 76.0201 172.899 75.9158 173.828 75.8584C174.186 75.8584 174.544 75.822 174.907 75.8115C177.874 75.8513 180.837 76.0741 183.781 76.4789C184.338 76.5467 184.904 76.6405 185.455 76.7344C187.226 77.0468 188.981 77.4593 190.712 77.9701Z" fill="#223C6A"/>
<path d="M172.391 57.4478C172.391 57.4478 171.491 62.5732 174.35 64.81C177.208 67.0467 177.213 56.2278 177.213 56.2278L172.391 57.4478Z" fill="#F5F5F5"/>
<path d="M172.391 57.4478C172.391 57.4478 171.491 62.5732 174.35 64.81C177.208 67.0467 177.213 56.2278 177.213 56.2278L172.391 57.4478Z" fill="#263238"/>
<path d="M183.786 76.4736C181.881 78.3402 177.213 77.6467 177.213 77.6467C177.213 77.6467 174.311 76.7916 174.911 75.8062C176.628 75.5038 177.46 74.6383 177.813 73.5329C178 72.8483 178.059 72.1306 177.987 71.4213C177.958 71.0302 177.905 70.634 177.842 70.2429L183.612 65.6338C182.848 68.6735 181.943 74.2681 183.786 76.4736Z" fill="#FFB573"/>
<path opacity="0.2" d="M182.267 68.585C182.04 72.3181 179.196 73.3453 177.803 73.5538C177.99 72.8692 178.049 72.1516 177.977 71.4422L182.267 68.585Z" fill="black"/>
<path d="M182.654 69.4244C182.056 70.3822 181.182 71.1011 180.167 71.4705C179.153 71.8399 178.053 71.8391 177.039 71.4683C175.718 71.0186 174.606 70.0435 173.929 68.7414C173.835 68.5602 173.749 68.374 173.673 68.1835C172.265 64.6328 171.816 58.423 175.298 56.0923C176.066 55.5795 176.942 55.2857 177.844 55.2388C178.746 55.1919 179.644 55.3934 180.454 55.8242C181.264 56.2551 181.959 56.9011 182.473 57.7015C182.988 58.5018 183.305 59.4302 183.394 60.3991C183.825 64.5494 184.26 66.9686 182.654 69.4244Z" fill="#FFB573"/>
<path d="M178.558 57.7033C178.774 57.5545 179.027 57.4823 179.283 57.4971C179.539 57.5118 179.784 57.6126 179.983 57.7853C180.183 57.958 180.328 58.194 180.396 58.4599C180.465 58.7258 180.455 59.0082 180.367 59.2675C179.994 60.8786 180.85 66.275 182.538 63.9601C182.538 63.9601 182.495 63.2875 183.022 63.3761C183.549 63.4647 183.81 66.9529 182.979 68.7412C182.979 68.7412 184.347 67.0415 184.802 63.2874C185.257 59.5334 184.971 56.5406 184.018 55.5134C183.066 54.4863 182.814 55.5552 182.108 54.1265C181.402 52.6979 175.666 52.5623 172.604 56.306C172.038 56.989 171.729 61.3739 178.558 57.7033Z" fill="#263238"/>
<path d="M177.784 62.6201C177.861 62.9486 177.716 63.2562 177.513 63.2927C177.31 63.3292 177.102 63.0841 177.029 62.7713C176.957 62.4585 177.097 62.1352 177.3 62.0987C177.503 62.0622 177.73 62.2812 177.784 62.6201Z" fill="#263238"/>
<path d="M174.268 63.2668C174.345 63.5952 174.2 63.9029 173.997 63.9394C173.794 63.9759 173.586 63.7308 173.514 63.418C173.441 63.1051 173.586 62.7819 173.784 62.7454C173.983 62.7089 174.205 62.9487 174.268 63.2668Z" fill="#263238"/>
<path d="M175.303 62.7192C175.094 63.8086 174.746 64.8615 174.268 65.8476C174.752 66.1031 175.4 66.369 175.893 66.1448L175.303 62.7192Z" fill="#FFB573"/>
<path opacity="0.35" d="M184.014 55.5135C183.312 54.7575 182.993 55.1329 182.592 54.8201L179.308 55.8629C179.341 55.8629 182.94 55.7377 184.913 58.1779C184.768 56.9474 184.468 56.0036 184.014 55.5135Z" fill="black"/>
<path d="M185.6 63.47C185.323 64.4792 184.687 65.3288 183.829 65.8319C182.693 66.4889 181.842 65.467 181.919 64.1478C181.996 62.9747 182.673 61.1863 183.936 61.082C185.198 60.9778 185.924 62.2239 185.6 63.47Z" fill="#FFB573"/>
<path d="M151.281 79.7533L147 79.2424L146.309 75.8794L152.635 76.6406L151.281 79.7533Z" fill="black"/>
<path d="M141.636 151.586H141.588C141.369 151.56 141.17 151.441 141.032 151.257C140.894 151.072 140.83 150.836 140.853 150.6L148.843 73.2202L150.54 73.4236L142.55 150.799C142.525 151.033 142.415 151.247 142.243 151.395C142.072 151.542 141.854 151.611 141.636 151.586Z" fill="#263238"/>
<path d="M161.814 60.0183C160.474 62.2947 159.494 64.7948 158.912 67.4169L157.81 72.4431C157.711 72.9136 157.459 73.3304 157.1 73.6175C156.74 73.9045 156.297 74.0429 155.851 74.0073L152.117 73.5589C150.342 73.3452 150.613 71.7862 150.613 71.7862L153.607 58.2716L153.123 59.1111C151.782 61.389 150.802 63.8909 150.221 66.5149L149.056 71.9113C148.915 72.3493 148.461 73.1366 146.966 72.9541L144.606 72.6726H144.558C144.369 72.6416 144.188 72.5686 144.027 72.4581C143.866 72.3476 143.728 72.2021 143.622 72.0308C143.516 71.8596 143.444 71.6664 143.411 71.4636C143.378 71.2607 143.385 71.0528 143.431 70.8529L146.439 57.2966L145.955 58.1309C144.615 60.4087 143.634 62.9107 143.054 65.5347L141.603 72.1877V72.2815C141.47 73.6362 141.838 74.9926 142.627 76.0572C143.415 77.1217 144.56 77.8088 145.815 77.9699L153.645 78.9084C154.9 79.0585 156.159 78.6691 157.148 77.8246C158.138 76.9802 158.779 75.7491 158.932 74.3984L162.317 59.1789L161.814 60.0183Z" fill="#223C6A"/>
<path opacity="0.5" d="M161.814 60.0183C160.474 62.2947 159.494 64.7948 158.912 67.4169L157.81 72.4431C157.711 72.9136 157.459 73.3304 157.1 73.6175C156.74 73.9045 156.297 74.0429 155.851 74.0073L152.117 73.5589C150.342 73.3452 150.613 71.7862 150.613 71.7862L153.607 58.2716L153.123 59.1111C151.782 61.389 150.802 63.8909 150.221 66.5149L149.056 71.9113C148.915 72.3493 148.461 73.1366 146.966 72.9541L144.606 72.6726H144.558C144.369 72.6416 144.188 72.5686 144.027 72.4581C143.866 72.3476 143.728 72.2021 143.622 72.0308C143.516 71.8596 143.444 71.6664 143.411 71.4636C143.378 71.2607 143.385 71.0528 143.431 70.8529L146.439 57.2966L145.955 58.1309C144.615 60.4087 143.634 62.9107 143.054 65.5347L141.603 72.1877V72.2815C141.47 73.6362 141.838 74.9926 142.627 76.0572C143.415 77.1217 144.56 77.8088 145.815 77.9699L153.645 78.9084C154.9 79.0585 156.159 78.6691 157.148 77.8246C158.138 76.9802 158.779 75.7491 158.932 74.3984L162.317 59.1789L161.814 60.0183Z" fill="white"/>
<path d="M180.889 187.098L189.377 185.972C188.961 177.989 188.506 169.162 188.202 163.291C187.462 148.984 187.143 117.622 187.118 114.681H166.36C164.672 124.63 159.904 156.179 161.345 188.037L169.775 187.515C170.109 171.68 171.284 147.931 175.221 136.517C175.936 146.142 176.783 156.377 177.518 161.826C178.384 168.239 179.728 178.339 180.889 187.098Z" fill="#223C6A"/>
<path opacity="0.3" d="M180.889 187.098L189.377 185.972C188.962 177.989 188.507 169.162 188.202 163.291C187.588 151.409 187.264 127.758 187.158 118.404C187.303 118.373 187.448 118.342 187.578 118.305C187.578 118.305 187.38 113.138 187.37 107.768C187.37 105.427 187.37 103.049 187.491 101.042C187.573 99.4516 187.67 97.7779 187.815 96.0416C187.927 94.6756 188.062 93.2626 188.222 91.8288C188.729 87.1486 189.562 82.516 190.712 77.9701C189.023 77.4835 187.312 77.092 185.586 76.7969C182.447 80.5927 180.773 90.5826 180.773 90.5826C177.804 90.6296 169.461 89.6441 169.461 89.6441C170.182 79.7793 172.184 76.6092 172.692 75.9888C172.184 76.0409 171.7 76.0983 171.241 76.1556C170.485 76.2552 169.772 76.5869 169.186 77.111C168.601 77.6351 168.167 78.3297 167.937 79.1119C167.341 81.317 166.873 83.5598 166.535 85.8275C165.867 90.0739 165.426 94.3581 165.214 98.659C164.862 105.145 165.053 111.653 165.785 118.102C163.802 130.615 160.02 159.219 161.321 188.052L169.756 187.531C170.09 171.696 171.265 147.947 175.202 136.533C175.918 146.158 176.764 156.393 177.499 161.842C178.384 168.239 179.729 178.339 180.889 187.098Z" fill="black"/>
<path opacity="0.35" d="M187.892 155.658C187.728 150.778 187.597 145.194 187.486 139.75L184.632 137.993C184.632 137.993 185.213 152.962 187.892 155.658Z" fill="black"/>
<path d="M161.19 189.669L170.617 188.928L170.525 186.123L160.731 186.712L161.19 189.669Z" fill="#223C6A"/>
<path d="M180.628 188.683L189.885 188.037L189.725 185.012L180.309 185.789L180.628 188.683Z" fill="#223C6A"/>
<path d="M172 213.204L170.694 208.653L170.616 194.987L161.969 195.56L163.603 209.252C162.496 210.509 159.787 211.969 156.131 213.168C155.319 213.439 155.744 215.577 157.771 215.399C159.797 215.222 164.218 214.664 165.688 214.534C168.068 214.325 169.46 214.325 171.361 214.195C171.414 214.19 171.465 214.18 171.516 214.164C171.606 214.135 171.69 214.087 171.763 214.024C171.837 213.96 171.897 213.881 171.942 213.792C171.987 213.703 172.015 213.605 172.025 213.504C172.035 213.404 172.026 213.302 172 213.204Z" fill="#263238"/>
<path d="M161.074 194.987L171.197 194.194V197.802L161.476 198.277L161.074 194.987Z" fill="#263238"/>
<path d="M192.148 213.601L190.843 209.049L190.765 195.383L182.118 195.957L183.752 209.643C182.65 210.905 179.936 212.36 176.28 213.564C175.467 213.835 175.893 215.973 177.924 215.796C179.956 215.618 184.366 215.061 185.837 214.93C188.221 214.722 189.609 214.722 191.51 214.591C191.562 214.586 191.614 214.576 191.665 214.56C191.755 214.531 191.839 214.484 191.912 214.42C191.985 214.356 192.046 214.277 192.091 214.188C192.136 214.099 192.164 214.002 192.174 213.901C192.184 213.8 192.175 213.698 192.148 213.601Z" fill="#263238"/>
<path d="M181.223 195.383L191.345 194.591V198.199L181.624 198.673L181.223 195.383Z" fill="#263238"/>
<path d="M169.2 94.613L170.733 95.051C173.083 95.7125 175.512 95.9902 177.939 95.8748L179.966 95.7757L178.602 102.189C178.476 102.865 178.122 103.468 177.608 103.88C177.095 104.292 176.458 104.484 175.821 104.42L171.555 103.993C170.911 103.927 170.313 103.604 169.878 103.089C169.442 102.573 169.2 101.901 169.2 101.203V94.613Z" fill="#223C6A"/>
<path opacity="0.2" d="M169.2 94.613L170.733 95.051C173.083 95.7125 175.512 95.9902 177.939 95.8748L179.966 95.7757L178.602 102.189C178.476 102.865 178.122 103.468 177.608 103.88C177.095 104.292 176.458 104.484 175.821 104.42L171.555 103.993C170.911 103.927 170.313 103.604 169.878 103.089C169.442 102.573 169.2 101.901 169.2 101.203V94.613Z" fill="black"/>
<path d="M197.091 142.409L196.202 142.19C196.426 141.126 196.538 140.038 196.535 138.947C196.535 133.968 194.315 129.922 191.588 129.922C188.86 129.922 186.645 133.968 186.645 138.973H185.73C185.73 133.457 188.362 128.962 191.588 128.962C194.813 128.962 197.445 133.457 197.445 138.973C197.447 140.129 197.328 141.282 197.091 142.409Z" fill="#263238"/>
<path d="M184.638 137.978L187.225 152.577C187.225 153.202 189.368 153.713 192.013 153.713C194.659 153.713 196.801 153.192 196.801 152.577L199.389 137.978H184.638Z" fill="#EBEBEB"/>
<path opacity="0.3" d="M184.638 137.978L187.225 152.577C187.225 153.202 189.368 153.713 192.013 153.713C194.659 153.713 196.801 153.192 196.801 152.577L199.389 137.978H184.638Z" fill="black"/>
<path d="M192.013 139.724C196.087 139.724 199.389 138.942 199.389 137.977C199.389 137.013 196.087 136.231 192.013 136.231C187.94 136.231 184.638 137.013 184.638 137.977C184.638 138.942 187.94 139.724 192.013 139.724Z" fill="#223C6A"/>
<path opacity="0.6" d="M192.013 139.724C196.087 139.724 199.389 138.942 199.389 137.977C199.389 137.013 196.087 136.231 192.013 136.231C187.94 136.231 184.638 137.013 184.638 137.977C184.638 138.942 187.94 139.724 192.013 139.724Z" fill="black"/>
<path opacity="0.35" d="M192.013 139.724C195.397 139.724 198.141 139.376 198.141 138.947C198.141 138.518 195.397 138.17 192.013 138.17C188.629 138.17 185.885 138.518 185.885 138.947C185.885 139.376 188.629 139.724 192.013 139.724Z" fill="black"/>
<path d="M196.627 143.296C197.266 143.296 197.783 142.738 197.783 142.05C197.783 141.361 197.266 140.803 196.627 140.803C195.989 140.803 195.471 141.361 195.471 142.05C195.471 142.738 195.989 143.296 196.627 143.296Z" fill="#F5F5F5"/>
<path opacity="0.4" d="M195.747 139.495C196.057 140.197 196.243 140.956 196.293 141.732L196.825 141.58L197.12 139.453V139.25C196.69 139.333 196.235 139.411 195.747 139.495Z" fill="black"/>
<path d="M192.013 128.973V129.958C194.542 130.355 196.535 134.234 196.535 138.947C196.536 139.878 196.455 140.807 196.293 141.721C196.27 141.846 196.293 141.976 196.357 142.083C196.421 142.19 196.521 142.266 196.636 142.295C196.755 142.317 196.878 142.292 196.98 142.222C197.082 142.153 197.156 142.045 197.188 141.919C197.359 140.939 197.445 139.944 197.444 138.947C197.444 133.676 195.045 129.348 192.013 128.973Z" fill="#263238"/>
<path d="M188.951 116.783L189.469 126.408C188.933 127.032 188.621 127.842 188.588 128.691C188.588 130.037 190.465 133.806 190.847 133.754C191.229 133.702 193.967 131.085 193.894 130.501C193.822 129.917 192.105 125.897 192.105 125.897L192.917 116.981L188.951 116.783Z" fill="#FFB573"/>
<path opacity="0.2" d="M175.221 136.502C174.199 139.653 173.423 142.89 172.899 146.179C172.319 137.618 174.64 128.54 174.64 128.54L175.221 136.502Z" fill="black"/>
<path d="M177.489 67.0207C177.204 66.8818 176.886 66.8384 176.577 66.896C176.269 66.9537 175.983 67.1097 175.758 67.3439C175.739 67.3288 175.72 67.3149 175.7 67.3022C175.398 67.1887 175.07 67.1778 174.763 67.271C174.455 67.3643 174.181 67.5571 173.978 67.8236C173.068 68.8664 172.773 68.3085 172.773 68.3085C172.773 68.3085 173.388 70.0812 175.047 68.955C175.182 68.8612 175.303 68.7725 175.409 68.6891C175.559 68.5716 175.732 68.4911 175.914 68.4533C176.096 68.4155 176.284 68.4212 176.464 68.4701C176.641 68.5144 176.823 68.5354 177.005 68.5327C178.534 68.5327 179.008 66.8643 179.008 66.8643C179.008 66.8643 178.742 67.5421 177.489 67.0207Z" fill="#263238"/>
<path d="M178.258 56.2122C180.534 55.9348 182.831 55.9348 185.107 56.2122C184.517 52.6772 182.123 50.6177 178.67 50.6177C174.8 50.6177 171.188 53.3811 171.188 57.5574C171.188 57.6565 171.188 57.7504 171.188 57.8442C173.474 56.9911 175.848 56.4431 178.258 56.2122Z" fill="#223C6A"/>
<path d="M181.209 58.5691C181.122 58.6421 174.766 60.6547 173.195 58.9236C171.623 57.1926 178.515 57.0205 178.515 57.0205L180.565 57.1821L181.209 58.5691Z" fill="#263238"/>
<path d="M190.712 77.97C190.712 77.97 194.281 77.4486 194.151 103.206C194.069 120.459 194.572 120.37 194.572 120.37L187.162 120.761C187.162 120.761 182.268 78.0117 190.712 77.97Z" fill="#223C6A"/>
<path d="M186.098 118.295L195.263 118.19L195.326 120.745L186.234 121.011L186.098 118.295Z" fill="#223C6A"/>
<path opacity="0.5" d="M186.098 118.295L195.263 118.19L195.326 120.745L186.234 121.011L186.098 118.295Z" fill="#F9F9F9"/>
<path d="M153.408 97.2253L154.97 98.534L150.206 105.265L148.76 103.857L153.408 97.2253Z" fill="#223C6A"/>
<path opacity="0.5" d="M153.408 97.2253L154.97 98.534L150.206 105.265L148.76 103.857L153.408 97.2253Z" fill="#F9F9F9"/>
<path d="M176.623 61.2437C176.603 61.2377 176.585 61.2275 176.569 61.2138C176.553 61.2 176.539 61.1829 176.529 61.1635C176.52 61.1441 176.513 61.1227 176.511 61.1007C176.509 61.0787 176.511 61.0564 176.517 61.0352C176.582 60.8468 176.695 60.6826 176.845 60.5624C176.994 60.4421 177.172 60.3709 177.358 60.3573C177.558 60.3106 177.766 60.3276 177.956 60.4063C178.147 60.4851 178.312 60.6221 178.432 60.8005C178.454 60.8387 178.461 60.8846 178.452 60.9285C178.443 60.9723 178.418 61.0106 178.384 61.0352C178.348 61.0583 178.305 61.0653 178.264 61.0546C178.223 61.0438 178.188 61.0163 178.166 60.9778C178.077 60.8567 177.958 60.7654 177.823 60.7147C177.687 60.6639 177.541 60.6557 177.402 60.691C177.275 60.6981 177.154 60.7434 177.05 60.8218C176.947 60.9002 176.866 61.0085 176.817 61.1342C176.804 61.1764 176.777 61.2115 176.741 61.2321C176.705 61.2526 176.662 61.2568 176.623 61.2437Z" fill="#263238"/>
<path d="M172.527 61.8068H172.483C172.443 61.7936 172.409 61.7637 172.389 61.7236C172.369 61.6836 172.365 61.6366 172.377 61.5931C172.442 61.4047 172.555 61.2405 172.705 61.1203C172.854 61 173.032 60.9288 173.218 60.9152C173.418 60.8698 173.625 60.8875 173.816 60.9661C174.006 61.0447 174.172 61.181 174.292 61.3584C174.303 61.3774 174.311 61.3987 174.314 61.421C174.318 61.4433 174.317 61.4661 174.312 61.488C174.307 61.51 174.298 61.5306 174.285 61.5486C174.273 61.5667 174.257 61.5818 174.239 61.5931C174.222 61.6051 174.202 61.6133 174.182 61.6169C174.162 61.6206 174.141 61.6197 174.121 61.6143C174.101 61.6089 174.082 61.5991 174.066 61.5856C174.05 61.5721 174.036 61.5551 174.026 61.5357C173.936 61.416 173.817 61.3261 173.682 61.2763C173.546 61.2265 173.401 61.2188 173.262 61.2542C173.136 61.2595 173.014 61.3035 172.91 61.3811C172.806 61.4587 172.725 61.5666 172.677 61.6921C172.666 61.726 172.646 61.7554 172.619 61.7761C172.592 61.7967 172.56 61.8075 172.527 61.8068Z" fill="#263238"/>
<path d="M58.9228 153.666C58.9228 157.67 53.5301 164.814 49.8157 164.814C46.1013 164.814 45.4629 157.67 45.4629 153.666C45.4629 151.743 46.1717 149.898 47.4333 148.538C48.695 147.178 50.4062 146.414 52.1904 146.414C53.9747 146.414 55.6859 147.178 56.9475 148.538C58.2092 149.898 58.918 151.743 58.918 153.666H58.9228Z" fill="#223C6A"/>
<path opacity="0.4" d="M58.9228 153.666C58.9228 157.67 53.5301 164.814 49.8157 164.814C46.1013 164.814 45.4629 157.67 45.4629 153.666C45.4629 151.743 46.1717 149.898 47.4333 148.538C48.695 147.178 50.4062 146.414 52.1904 146.414C53.9747 146.414 55.6859 147.178 56.9475 148.538C58.2092 149.898 58.918 151.743 58.918 153.666H58.9228Z" fill="#F9F9F9"/>
<path d="M55.5806 145.162C55.0946 145.447 54.6765 145.85 54.3592 146.338C54.042 146.827 53.8343 147.388 53.7524 147.978C54.254 148.231 54.8035 148.353 55.3569 148.336C55.9102 148.319 56.4523 148.163 56.9396 147.879C57.4269 147.596 57.846 147.194 58.1635 146.705C58.481 146.216 58.6879 145.654 58.7679 145.063C58.2657 144.813 57.7165 144.692 57.1635 144.709C56.6104 144.726 56.0686 144.881 55.5806 145.162Z" fill="#223C6A"/>
<path opacity="0.2" d="M55.5806 145.162C55.0946 145.447 54.6765 145.85 54.3592 146.338C54.042 146.827 53.8343 147.388 53.7524 147.978C54.254 148.231 54.8035 148.353 55.3569 148.336C55.9102 148.319 56.4523 148.163 56.9396 147.879C57.4269 147.596 57.846 147.194 58.1635 146.705C58.481 146.216 58.6879 145.654 58.7679 145.063C58.2657 144.813 57.7165 144.692 57.1635 144.709C56.6104 144.726 56.0686 144.881 55.5806 145.162Z" fill="#F9F9F9"/>
<path d="M52.1273 146.966C52.3104 147.26 52.5542 147.504 52.8396 147.678C53.125 147.853 53.4441 147.954 53.7717 147.973C53.8823 147.64 53.9191 147.283 53.8792 146.932C53.8392 146.581 53.7238 146.245 53.5419 145.951C53.36 145.657 53.1169 145.412 52.8318 145.237C52.5467 145.062 52.2276 144.962 51.9 144.943C51.7897 145.276 51.7527 145.633 51.7922 145.984C51.8316 146.335 51.9464 146.671 52.1273 146.966Z" fill="#223C6A"/>
<path opacity="0.2" d="M52.1273 146.966C52.3104 147.26 52.5542 147.504 52.8396 147.678C53.125 147.853 53.4441 147.954 53.7717 147.973C53.8823 147.64 53.9191 147.283 53.8792 146.932C53.8392 146.581 53.7238 146.245 53.5419 145.951C53.36 145.657 53.1169 145.412 52.8318 145.237C52.5467 145.062 52.2276 144.962 51.9 144.943C51.7897 145.276 51.7527 145.633 51.7922 145.984C51.8316 146.335 51.9464 146.671 52.1273 146.966Z" fill="#F9F9F9"/>
<path d="M84.9914 150.924C86.2005 154.714 83.2599 163.359 79.7438 164.663C76.2277 165.966 73.4563 159.449 72.2666 155.648C71.6855 153.829 71.7986 151.835 72.5809 150.106C73.3632 148.377 74.7506 147.053 76.438 146.427C78.1254 145.8 79.9746 145.922 81.5786 146.766C83.1827 147.609 84.4103 149.105 84.9914 150.924Z" fill="#223C6A"/>
<path opacity="0.4" d="M84.9914 150.924C86.2005 154.714 83.2599 163.359 79.7438 164.663C76.2277 165.966 73.4563 159.449 72.2666 155.648C71.6855 153.829 71.7986 151.835 72.5809 150.106C73.3632 148.377 74.7506 147.053 76.438 146.427C78.1254 145.8 79.9746 145.922 81.5786 146.766C83.1827 147.609 84.4103 149.105 84.9914 150.924Z" fill="#F9F9F9"/>
<path d="M79.2652 144.057C78.8901 144.496 78.6152 145.024 78.4624 145.597C78.3096 146.171 78.2831 146.776 78.385 147.362C78.9358 147.425 79.4926 147.349 80.0111 147.139C80.5295 146.928 80.9952 146.591 81.3711 146.152C81.7469 145.713 82.0225 145.186 82.1758 144.612C82.3292 144.039 82.356 143.434 82.2542 142.847C81.7031 142.785 81.146 142.862 80.6273 143.072C80.1085 143.282 79.6422 143.619 79.2652 144.057Z" fill="#223C6A"/>
<path opacity="0.2" d="M79.2652 144.057C78.8901 144.496 78.6152 145.024 78.4624 145.597C78.3096 146.171 78.2831 146.776 78.385 147.362C78.9358 147.425 79.4926 147.349 80.0111 147.139C80.5295 146.928 80.9952 146.591 81.3711 146.152C81.7469 145.713 82.0225 145.186 82.1758 144.612C82.3292 144.039 82.356 143.434 82.2542 142.847C81.7031 142.785 81.146 142.862 80.6273 143.072C80.1085 143.282 79.6422 143.619 79.2652 144.057Z" fill="#F9F9F9"/>
<path d="M76.542 146.971C76.803 147.186 77.1069 147.331 77.4293 147.397C77.7518 147.462 78.084 147.445 78.3992 147.347C78.4022 146.994 78.3286 146.645 78.1845 146.328C78.0403 146.011 77.8295 145.735 77.5688 145.521C77.3082 145.308 77.0049 145.162 76.683 145.097C76.3612 145.032 76.0297 145.049 75.715 145.147C75.711 145.499 75.7838 145.848 75.9274 146.165C76.071 146.482 76.2815 146.758 76.542 146.971Z" fill="#223C6A"/>
<path opacity="0.2" d="M76.542 146.971C76.803 147.186 77.1069 147.331 77.4293 147.397C77.7518 147.462 78.084 147.445 78.3992 147.347C78.4022 146.994 78.3286 146.645 78.1845 146.328C78.0403 146.011 77.8295 145.735 77.5688 145.521C77.3082 145.308 77.0049 145.162 76.683 145.097C76.3612 145.032 76.0297 145.049 75.715 145.147C75.711 145.499 75.7838 145.848 75.9274 146.165C76.071 146.482 76.2815 146.758 76.542 146.971Z" fill="#F9F9F9"/>
<path d="M58.6757 152.097C58.2888 156.789 63.8943 165.742 68.2423 166.175C72.5903 166.607 74.017 158.317 74.4088 153.635C74.5961 151.386 73.9469 149.149 72.604 147.415C71.9391 146.557 71.1239 145.849 70.205 145.33C69.2861 144.812 68.2814 144.493 67.2484 144.393C66.2153 144.293 65.1741 144.414 64.1842 144.747C63.1943 145.081 62.2751 145.622 61.4791 146.339C59.8714 147.786 58.863 149.863 58.6757 152.113V152.097Z" fill="#223C6A"/>
<path opacity="0.5" d="M58.6757 152.097C58.2888 156.789 63.8943 165.742 68.2423 166.175C72.5903 166.607 74.017 158.317 74.4088 153.635C74.5961 151.386 73.9469 149.149 72.604 147.415C71.9391 146.557 71.1239 145.849 70.205 145.33C69.2861 144.812 68.2814 144.493 67.2484 144.393C66.2153 144.293 65.1741 144.414 64.1842 144.747C63.1943 145.081 62.2751 145.622 61.4791 146.339C59.8714 147.786 58.863 149.863 58.6757 152.113V152.097Z" fill="#F9F9F9"/>
<path d="M63.4107 142.54C63.9514 142.927 64.4015 143.443 64.7254 144.05C65.0494 144.656 65.2384 145.335 65.2776 146.033C64.667 146.271 64.0132 146.353 63.3684 146.27C62.7235 146.188 62.1054 145.944 61.5633 145.559C61.0212 145.174 60.5701 144.657 60.246 144.051C59.9218 143.444 59.7336 142.764 59.6963 142.065C60.3071 141.828 60.9607 141.747 61.6055 141.829C62.2502 141.912 62.8683 142.155 63.4107 142.54Z" fill="#223C6A"/>
<path opacity="0.2" d="M63.4107 142.54C63.9514 142.927 64.4015 143.443 64.7254 144.05C65.0494 144.656 65.2384 145.335 65.2776 146.033C64.667 146.271 64.0132 146.353 63.3684 146.27C62.7235 146.188 62.1054 145.944 61.5633 145.559C61.0212 145.174 60.5701 144.657 60.246 144.051C59.9218 143.444 59.7336 142.764 59.6963 142.065C60.3071 141.828 60.9607 141.747 61.6055 141.829C62.2502 141.912 62.8683 142.155 63.4107 142.54Z" fill="#F9F9F9"/>
<path d="M67.2711 145.037C67.0284 145.359 66.7201 145.615 66.3703 145.787C66.0204 145.959 65.6385 146.041 65.2543 146.028C65.1583 145.626 65.1508 145.206 65.2322 144.8C65.3136 144.395 65.4817 144.015 65.7231 143.692C65.9646 143.369 66.2727 143.111 66.6228 142.939C66.973 142.767 67.3556 142.686 67.7402 142.701C67.8342 143.103 67.8408 143.523 67.7594 143.929C67.6781 144.334 67.5109 144.713 67.2711 145.037Z" fill="#223C6A"/>
<path opacity="0.2" d="M67.2711 145.037C67.0284 145.359 66.7201 145.615 66.3703 145.787C66.0204 145.959 65.6385 146.041 65.2543 146.028C65.1583 145.626 65.1508 145.206 65.2322 144.8C65.3136 144.395 65.4817 144.015 65.7231 143.692C65.9646 143.369 66.2727 143.111 66.6228 142.939C66.973 142.767 67.3556 142.686 67.7402 142.701C67.8342 143.103 67.8408 143.523 67.7594 143.929C67.6781 144.334 67.5109 144.713 67.2711 145.037Z" fill="#F9F9F9"/>
<path d="M84.7308 148.786C83.3572 153.249 86.912 163.354 91.052 164.835C95.1921 166.315 98.3454 158.614 99.719 154.151C100.379 152.008 100.222 149.67 99.2829 147.651C98.3437 145.632 96.699 144.098 94.7108 143.387C92.7226 142.676 90.5537 142.845 88.6812 143.857C86.8086 144.87 85.3859 146.643 84.7259 148.786H84.7308Z" fill="#223C6A"/>
<path opacity="0.5" d="M84.7308 148.786C83.3572 153.249 86.912 163.354 91.052 164.835C95.1921 166.315 98.3454 158.614 99.719 154.151C100.379 152.008 100.222 149.67 99.2829 147.651C98.3437 145.632 96.699 144.098 94.7108 143.387C92.7226 142.676 90.5537 142.845 88.6812 143.857C86.8086 144.87 85.3859 146.643 84.7259 148.786H84.7308Z" fill="#F9F9F9"/>
<path d="M91.3517 140.652C91.7955 141.162 92.1235 141.776 92.3098 142.445C92.4961 143.115 92.5357 143.822 92.4254 144.511C91.7803 144.593 91.1262 144.511 90.5155 144.272C89.9049 144.033 89.3545 143.644 88.9085 143.135C88.4625 142.625 88.1331 142.011 87.9469 141.34C87.7606 140.669 87.7225 139.96 87.8356 139.271C88.4809 139.191 89.1345 139.275 89.7448 139.515C90.355 139.754 90.9051 140.144 91.3517 140.652Z" fill="#223C6A"/>
<path opacity="0.2" d="M91.3517 140.652C91.7955 141.162 92.1235 141.776 92.3098 142.445C92.4961 143.115 92.5357 143.822 92.4254 144.511C91.7803 144.593 91.1262 144.511 90.5155 144.272C89.9049 144.033 89.3545 143.644 88.9085 143.135C88.4625 142.625 88.1331 142.011 87.9469 141.34C87.7606 140.669 87.7225 139.96 87.8356 139.271C88.4809 139.191 89.1345 139.275 89.7448 139.515C90.355 139.754 90.9051 140.144 91.3517 140.652Z" fill="#F9F9F9"/>
<path d="M94.5772 144.031C94.2744 144.287 93.9202 144.462 93.5431 144.544C93.166 144.625 92.7764 144.61 92.4056 144.5C92.3992 144.087 92.4824 143.678 92.6484 143.305C92.8145 142.932 93.0588 142.606 93.3621 142.353C93.6654 142.1 94.0193 141.927 94.3956 141.847C94.772 141.767 95.1604 141.783 95.53 141.893C95.5351 142.305 95.4517 142.712 95.2864 143.083C95.1211 143.454 94.8784 143.778 94.5772 144.031Z" fill="#223C6A"/>
<path opacity="0.2" d="M94.5772 144.031C94.2744 144.287 93.9202 144.462 93.5431 144.544C93.166 144.625 92.7764 144.61 92.4056 144.5C92.3992 144.087 92.4824 143.678 92.6484 143.305C92.8145 142.932 93.0588 142.606 93.3621 142.353C93.6654 142.1 94.0193 141.927 94.3956 141.847C94.772 141.767 95.1604 141.783 95.53 141.893C95.5351 142.305 95.4517 142.712 95.2864 143.083C95.1211 143.454 94.8784 143.778 94.5772 144.031Z" fill="#F9F9F9"/>
<path d="M35.0693 155.585H110.475C110.475 155.585 111.35 173.995 106.335 179.048C102.074 183.354 69.2729 187.301 56.3547 188.912C53.9364 189.215 46.0965 188.454 44.1426 186.592C39.219 181.9 35.64 172.546 35.0693 155.585Z" fill="#223C6A"/>
<g opacity="0.35">
<path opacity="0.35" d="M44.1421 186.603C46.0767 188.464 53.9408 189.21 56.3542 188.923C59.1352 188.579 62.84 188.12 66.9945 187.578C79.342 185.544 90.553 183.099 93.0825 180.539C97.7351 175.846 98.0205 161.247 97.948 155.585H35.0737C35.6396 172.546 39.2186 181.9 44.1421 186.603Z" fill="black"/>
</g>
<path d="M113.174 153.849H33.5894V157.144H113.174V153.849Z" fill="#223C6A"/>
<g opacity="0.4">
<path opacity="0.4" d="M113.174 153.849H33.5894V157.144H113.174V153.849Z" fill="#F9F9F9"/>
</g>
<path d="M56.1829 218.707C63.1778 217.483 67.9279 210.378 66.7924 202.837C65.657 195.296 59.0661 190.176 52.0712 191.4C45.0763 192.624 40.3262 199.729 41.4616 207.27C42.5971 214.811 49.188 219.931 56.1829 218.707Z" fill="#2E353A"/>
<g opacity="0.35">
<path opacity="0.35" d="M110.151 166.915L106.209 172.864C105.523 173.896 105.04 175.069 104.79 176.31C104.541 177.551 104.53 178.834 104.758 180.08C105.327 179.821 105.856 179.47 106.325 179.037C108.608 176.764 109.667 171.732 110.151 166.915Z" fill="black"/>
</g>
<path d="M60.118 205.055C60.118 203.776 59.7663 202.526 59.1073 201.463C58.4483 200.4 57.5117 199.571 56.4158 199.082C55.32 198.592 54.1141 198.464 52.9508 198.714C51.7874 198.963 50.7188 199.579 49.8801 200.483C49.0414 201.387 48.4702 202.539 48.2388 203.794C48.0074 205.048 48.1261 206.348 48.58 207.529C49.034 208.71 49.8026 209.72 50.7889 210.43C51.7751 211.141 52.9346 211.52 54.1208 211.52C55.7113 211.52 57.2368 210.839 58.3615 209.626C59.4862 208.414 60.118 206.77 60.118 205.055Z" fill="#F0F0F0"/>
<path d="M56.8428 205.055C56.8428 204.474 56.6832 203.907 56.384 203.424C56.0848 202.942 55.6595 202.565 55.1619 202.343C54.6644 202.121 54.1169 202.063 53.5887 202.176C53.0605 202.289 52.5753 202.569 52.1945 202.979C51.8137 203.39 51.5544 203.913 51.4493 204.482C51.3442 205.052 51.3982 205.642 51.6042 206.178C51.8103 206.715 52.1593 207.173 52.6071 207.496C53.0549 207.818 53.5814 207.99 54.1199 207.99C54.8421 207.99 55.5347 207.681 56.0453 207.131C56.556 206.58 56.8428 205.834 56.8428 205.055Z" fill="#263238"/>
<path d="M109.033 216.859C107.436 216.865 105.884 216.285 104.632 215.216C103.38 214.146 102.502 212.65 102.141 210.973L96.7293 184.335L64.0347 189.825L55.6482 205.988C55.5358 206.205 55.385 206.395 55.2043 206.548C55.0236 206.702 54.8167 206.816 54.5953 206.883C54.3739 206.95 54.1423 206.97 53.9139 206.941C53.6854 206.911 53.4646 206.834 53.2639 206.713C53.0632 206.592 52.8866 206.429 52.7442 206.234C52.6017 206.04 52.4963 205.816 52.4339 205.578C52.3715 205.339 52.3533 205.089 52.3803 204.843C52.4074 204.597 52.4792 204.359 52.5916 204.142L61.3891 187.181C61.52 186.932 61.7015 186.717 61.9201 186.554C62.1387 186.39 62.3887 186.282 62.6515 186.238L97.8175 180.33C98.2576 180.257 98.7072 180.367 99.0747 180.638C99.4422 180.909 99.7 181.321 99.7956 181.79L105.575 210.154C105.688 210.665 105.897 211.146 106.189 211.567C106.482 211.987 106.851 212.338 107.275 212.597C107.699 212.856 108.168 213.019 108.653 213.074C109.138 213.129 109.628 213.076 110.092 212.917C110.94 212.638 111.658 212.026 112.106 211.202C112.554 210.378 112.699 209.403 112.511 208.47L106.46 176.462C106.384 176.06 106.43 175.644 106.591 175.273L114.087 158.265C114.204 158.001 114.375 157.769 114.588 157.588C114.801 157.407 115.05 157.282 115.316 157.222L144.078 150.804C144.523 150.73 144.978 150.843 145.347 151.119C145.717 151.396 145.974 151.815 146.066 152.29C146.157 152.766 146.075 153.26 145.838 153.673C145.6 154.085 145.225 154.383 144.789 154.506L116.878 160.731L110.01 176.336L115.925 207.698C116.143 208.805 116.128 209.95 115.883 211.05C115.638 212.149 115.167 213.176 114.507 214.055C113.847 214.934 113.012 215.643 112.065 216.13C111.118 216.617 110.083 216.869 109.033 216.87V216.859Z" fill="#223C6A"/>
<g opacity="0.7">
<path opacity="0.7" d="M109.033 216.859C107.436 216.865 105.884 216.285 104.632 215.216C103.38 214.146 102.502 212.65 102.141 210.973L96.7293 184.335L64.0347 189.825L55.6482 205.988C55.5358 206.205 55.385 206.395 55.2043 206.548C55.0236 206.702 54.8167 206.816 54.5953 206.883C54.3739 206.95 54.1423 206.97 53.9139 206.941C53.6854 206.911 53.4646 206.834 53.2639 206.713C53.0632 206.592 52.8866 206.429 52.7442 206.234C52.6017 206.04 52.4963 205.816 52.4339 205.578C52.3715 205.339 52.3533 205.089 52.3803 204.843C52.4074 204.597 52.4792 204.359 52.5916 204.142L61.3891 187.181C61.52 186.932 61.7015 186.717 61.9201 186.554C62.1387 186.39 62.3887 186.282 62.6515 186.238L97.8175 180.33C98.2576 180.257 98.7072 180.367 99.0747 180.638C99.4422 180.909 99.7 181.321 99.7956 181.79L105.575 210.154C105.688 210.665 105.897 211.146 106.189 211.567C106.482 211.987 106.851 212.338 107.275 212.597C107.699 212.856 108.168 213.019 108.653 213.074C109.138 213.129 109.628 213.076 110.092 212.917C110.94 212.638 111.658 212.026 112.106 211.202C112.554 210.378 112.699 209.403 112.511 208.47L106.46 176.462C106.384 176.06 106.43 175.644 106.591 175.273L114.087 158.265C114.204 158.001 114.375 157.769 114.588 157.588C114.801 157.407 115.05 157.282 115.316 157.222L144.078 150.804C144.523 150.73 144.978 150.843 145.347 151.119C145.717 151.396 145.974 151.815 146.066 152.29C146.157 152.766 146.075 153.26 145.838 153.673C145.6 154.085 145.225 154.383 144.789 154.506L116.878 160.731L110.01 176.336L115.925 207.698C116.143 208.805 116.128 209.95 115.883 211.05C115.638 212.149 115.167 213.176 114.507 214.055C113.847 214.934 113.012 215.643 112.065 216.13C111.118 216.617 110.083 216.869 109.033 216.87V216.859Z" fill="white"/>
</g>
<path d="M135.112 151.351L148.253 148.468C149.037 148.325 149.842 148.517 150.498 149.003C151.154 149.488 151.61 150.23 151.768 151.07C151.926 151.911 151.775 152.785 151.346 153.508C150.918 154.231 150.245 154.745 149.471 154.944L136.335 157.827C136.132 157.869 135.112 151.351 135.112 151.351Z" fill="#223C6A"/>
<path d="M124.568 194.32C124.568 196.859 121.154 201.379 118.803 201.379C116.453 201.379 116.046 196.859 116.046 194.32C116.046 193.101 116.495 191.933 117.294 191.071C118.093 190.21 119.177 189.726 120.307 189.726C121.437 189.726 122.521 190.21 123.32 191.071C124.119 191.933 124.568 193.101 124.568 194.32Z" fill="#223C6A"/>
<path opacity="0.5" d="M124.568 194.32C124.568 196.859 121.154 201.379 118.803 201.379C116.453 201.379 116.046 196.859 116.046 194.32C116.046 193.101 116.495 191.933 117.294 191.071C118.093 190.21 119.177 189.726 120.307 189.726C121.437 189.726 122.521 190.21 123.32 191.071C124.119 191.933 124.568 193.101 124.568 194.32Z" fill="#F9F9F9"/>
<path d="M122.455 188.939C122.146 189.117 121.881 189.371 121.679 189.68C121.478 189.988 121.346 190.343 121.294 190.717C121.611 190.876 121.959 190.953 122.309 190.942C122.659 190.931 123.001 190.832 123.31 190.653C123.618 190.475 123.884 190.221 124.085 189.913C124.287 189.604 124.419 189.249 124.471 188.876C124.154 188.717 123.806 188.639 123.456 188.65C123.106 188.661 122.763 188.76 122.455 188.939Z" fill="#223C6A"/>
<path opacity="0.2" d="M122.455 188.939C122.146 189.117 121.881 189.371 121.679 189.68C121.478 189.988 121.346 190.343 121.294 190.717C121.611 190.876 121.959 190.953 122.309 190.942C122.659 190.931 123.001 190.832 123.31 190.653C123.618 190.475 123.884 190.221 124.085 189.913C124.287 189.604 124.419 189.249 124.471 188.876C124.154 188.717 123.806 188.639 123.456 188.65C123.106 188.661 122.763 188.76 122.455 188.939Z" fill="#F9F9F9"/>
<path d="M120.269 190.07C120.384 190.255 120.538 190.409 120.717 190.519C120.897 190.629 121.098 190.693 121.304 190.706C121.375 190.495 121.398 190.27 121.373 190.047C121.348 189.824 121.275 189.611 121.16 189.425C121.045 189.238 120.891 189.083 120.71 188.973C120.529 188.862 120.327 188.798 120.119 188.787C120.05 188.999 120.028 189.225 120.054 189.448C120.08 189.67 120.154 189.883 120.269 190.07Z" fill="#223C6A"/>
<path opacity="0.2" d="M120.269 190.07C120.384 190.255 120.538 190.409 120.717 190.519C120.897 190.629 121.098 190.693 121.304 190.706C121.375 190.495 121.398 190.27 121.373 190.047C121.348 189.824 121.275 189.611 121.16 189.425C121.045 189.238 120.891 189.083 120.71 188.973C120.529 188.862 120.327 188.798 120.119 188.787C120.05 188.999 120.028 189.225 120.054 189.448C120.08 189.67 120.154 189.883 120.269 190.07Z" fill="#F9F9F9"/>
<path d="M141.07 192.589C141.839 194.987 139.972 200.462 137.748 201.285C135.523 202.109 133.782 197.975 133.013 195.576C132.82 195.003 132.736 194.395 132.764 193.786C132.792 193.178 132.932 192.581 133.176 192.032C133.42 191.482 133.763 190.99 134.185 190.585C134.607 190.18 135.099 189.869 135.634 189.671C136.168 189.472 136.734 189.391 137.298 189.431C137.862 189.47 138.413 189.631 138.919 189.902C139.425 190.174 139.876 190.551 140.245 191.012C140.614 191.474 140.895 192.009 141.07 192.589Z" fill="#223C6A"/>
<path opacity="0.4" d="M141.07 192.589C141.839 194.987 139.972 200.462 137.748 201.285C135.523 202.109 133.782 197.975 133.013 195.576C132.82 195.003 132.736 194.395 132.764 193.786C132.792 193.178 132.932 192.581 133.176 192.032C133.42 191.482 133.763 190.99 134.185 190.585C134.607 190.18 135.099 189.869 135.634 189.671C136.168 189.472 136.734 189.391 137.298 189.431C137.862 189.47 138.413 189.631 138.919 189.902C139.425 190.174 139.876 190.551 140.245 191.012C140.614 191.474 140.895 192.009 141.07 192.589Z" fill="#F9F9F9"/>
<path d="M137.448 188.24C137.212 188.518 137.04 188.851 136.943 189.213C136.847 189.574 136.829 189.955 136.892 190.326C137.24 190.365 137.593 190.315 137.921 190.182C138.248 190.048 138.543 189.834 138.78 189.556C139.017 189.277 139.191 188.943 139.287 188.58C139.383 188.217 139.4 187.834 139.334 187.463C138.986 187.426 138.633 187.476 138.306 187.611C137.979 187.746 137.685 187.961 137.448 188.24Z" fill="#223C6A"/>
<path opacity="0.2" d="M137.448 188.24C137.212 188.518 137.04 188.851 136.943 189.213C136.847 189.574 136.829 189.955 136.892 190.326C137.24 190.365 137.593 190.315 137.921 190.182C138.248 190.048 138.543 189.834 138.78 189.556C139.017 189.277 139.191 188.943 139.287 188.58C139.383 188.217 139.4 187.834 139.334 187.463C138.986 187.426 138.633 187.476 138.306 187.611C137.979 187.746 137.685 187.961 137.448 188.24Z" fill="#F9F9F9"/>
<path d="M135.721 190.07C135.835 190.071 135.947 190.041 136.047 189.983C136.147 189.924 136.231 189.839 136.292 189.736C136.353 189.632 136.388 189.513 136.395 189.391C136.401 189.268 136.378 189.146 136.329 189.036C136.279 188.926 136.204 188.831 136.11 188.761C136.017 188.69 135.909 188.647 135.796 188.635C135.682 188.622 135.568 188.641 135.464 188.69C135.359 188.739 135.268 188.815 135.199 188.913C135.196 189.136 135.242 189.357 135.333 189.558C135.423 189.759 135.556 189.934 135.721 190.07Z" fill="#223C6A"/>
<path opacity="0.2" d="M135.721 190.07C135.835 190.071 135.947 190.041 136.047 189.983C136.147 189.924 136.231 189.839 136.292 189.736C136.353 189.632 136.388 189.513 136.395 189.391C136.401 189.268 136.378 189.146 136.329 189.036C136.279 188.926 136.204 188.831 136.11 188.761C136.017 188.69 135.909 188.647 135.796 188.635C135.682 188.622 135.568 188.641 135.464 188.69C135.359 188.739 135.268 188.815 135.199 188.913C135.196 189.136 135.242 189.357 135.333 189.558C135.423 189.759 135.556 189.934 135.721 190.07Z" fill="#F9F9F9"/>
<path d="M124.413 193.329C124.166 196.295 127.716 201.963 130.468 202.229C133.22 202.495 134.125 197.255 134.371 194.293C134.448 193.578 134.392 192.854 134.205 192.163C134.018 191.472 133.705 190.828 133.284 190.269C132.863 189.711 132.342 189.249 131.752 188.911C131.163 188.573 130.516 188.366 129.851 188.301C129.186 188.237 128.516 188.317 127.88 188.536C127.244 188.755 126.655 189.11 126.148 189.578C125.642 190.047 125.227 190.62 124.929 191.264C124.631 191.908 124.455 192.61 124.413 193.329Z" fill="#223C6A"/>
<path opacity="0.5" d="M124.413 193.329C124.166 196.295 127.716 201.963 130.468 202.229C133.22 202.495 134.125 197.255 134.371 194.293C134.448 193.578 134.392 192.854 134.205 192.163C134.018 191.472 133.705 190.828 133.284 190.269C132.863 189.711 132.342 189.249 131.752 188.911C131.163 188.573 130.516 188.366 129.851 188.301C129.186 188.237 128.516 188.317 127.88 188.536C127.244 188.755 126.655 189.11 126.148 189.578C125.642 190.047 125.227 190.62 124.929 191.264C124.631 191.908 124.455 192.61 124.413 193.329Z" fill="#F9F9F9"/>
<path d="M127.408 187.275C127.751 187.519 128.036 187.846 128.241 188.23C128.446 188.614 128.565 189.044 128.588 189.486C128.202 189.637 127.788 189.689 127.38 189.637C126.972 189.585 126.581 189.431 126.238 189.188C125.895 188.944 125.61 188.617 125.405 188.234C125.2 187.85 125.081 187.42 125.057 186.978C125.443 186.826 125.857 186.774 126.265 186.826C126.673 186.877 127.065 187.031 127.408 187.275Z" fill="#223C6A"/>
<path opacity="0.2" d="M127.408 187.275C127.751 187.519 128.036 187.846 128.241 188.23C128.446 188.614 128.565 189.044 128.588 189.486C128.202 189.637 127.788 189.689 127.38 189.637C126.972 189.585 126.581 189.431 126.238 189.188C125.895 188.944 125.61 188.617 125.405 188.234C125.2 187.85 125.081 187.42 125.057 186.978C125.443 186.826 125.857 186.774 126.265 186.826C126.673 186.877 127.065 187.031 127.408 187.275Z" fill="#F9F9F9"/>
<path d="M129.854 188.855C129.7 189.059 129.505 189.221 129.284 189.331C129.063 189.44 128.821 189.493 128.578 189.486C128.52 189.233 128.517 188.969 128.57 188.715C128.623 188.461 128.73 188.224 128.882 188.022C129.034 187.819 129.228 187.658 129.448 187.55C129.668 187.443 129.908 187.391 130.149 187.4C130.206 187.651 130.209 187.912 130.158 188.165C130.107 188.417 130.003 188.653 129.854 188.855Z" fill="#223C6A"/>
<path opacity="0.2" d="M129.854 188.855C129.7 189.059 129.505 189.221 129.284 189.331C129.063 189.44 128.821 189.493 128.578 189.486C128.52 189.233 128.517 188.969 128.57 188.715C128.623 188.461 128.73 188.224 128.882 188.022C129.034 187.819 129.228 187.658 129.448 187.55C129.668 187.443 129.908 187.391 130.149 187.4C130.206 187.651 130.209 187.912 130.158 188.165C130.107 188.417 130.003 188.653 129.854 188.855Z" fill="#F9F9F9"/>
<path d="M140.896 191.233C140.025 194.059 142.279 200.456 144.896 201.395C147.512 202.333 149.514 197.453 150.385 194.617C150.613 193.939 150.713 193.219 150.679 192.5C150.645 191.78 150.477 191.075 150.186 190.426C149.894 189.777 149.485 189.198 148.982 188.723C148.48 188.248 147.894 187.886 147.259 187.659C146.625 187.432 145.955 187.344 145.288 187.401C144.622 187.459 143.973 187.659 143.379 187.991C142.786 188.324 142.261 188.781 141.834 189.336C141.407 189.891 141.088 190.532 140.896 191.222V191.233Z" fill="#223C6A"/>
<path opacity="0.5" d="M140.896 191.233C140.025 194.059 142.279 200.456 144.896 201.395C147.512 202.333 149.514 197.453 150.385 194.617C150.613 193.939 150.713 193.219 150.679 192.5C150.645 191.78 150.477 191.075 150.186 190.426C149.894 189.777 149.485 189.198 148.982 188.723C148.48 188.248 147.894 187.886 147.259 187.659C146.625 187.432 145.955 187.344 145.288 187.401C144.622 187.459 143.973 187.659 143.379 187.991C142.786 188.324 142.261 188.781 141.834 189.336C141.407 189.891 141.088 190.532 140.896 191.222V191.233Z" fill="#F9F9F9"/>
<path d="M145.099 186.081C145.381 186.404 145.589 186.793 145.706 187.218C145.824 187.642 145.848 188.09 145.776 188.527C145.368 188.577 144.954 188.524 144.568 188.372C144.182 188.22 143.835 187.973 143.553 187.65C143.271 187.328 143.063 186.939 142.945 186.514C142.827 186.09 142.803 185.642 142.874 185.205C143.283 185.156 143.696 185.21 144.082 185.362C144.468 185.514 144.816 185.76 145.099 186.081Z" fill="#223C6A"/>
<path opacity="0.2" d="M145.099 186.081C145.381 186.404 145.589 186.793 145.706 187.218C145.824 187.642 145.848 188.09 145.776 188.527C145.368 188.577 144.954 188.524 144.568 188.372C144.182 188.22 143.835 187.973 143.553 187.65C143.271 187.328 143.063 186.939 142.945 186.514C142.827 186.09 142.803 185.642 142.874 185.205C143.283 185.156 143.696 185.21 144.082 185.362C144.468 185.514 144.816 185.76 145.099 186.081Z" fill="#F9F9F9"/>
<path d="M147.121 188.224C146.988 188.227 146.856 188.192 146.739 188.124C146.621 188.056 146.522 187.957 146.45 187.836C146.378 187.715 146.336 187.576 146.327 187.433C146.319 187.289 146.345 187.146 146.402 187.016C146.459 186.886 146.547 186.775 146.655 186.691C146.764 186.608 146.891 186.556 147.023 186.54C147.156 186.524 147.29 186.545 147.413 186.601C147.536 186.657 147.643 186.745 147.726 186.858C147.729 187.121 147.676 187.381 147.572 187.618C147.467 187.855 147.313 188.062 147.121 188.224Z" fill="#223C6A"/>
<path opacity="0.2" d="M147.121 188.224C146.988 188.227 146.856 188.192 146.739 188.124C146.621 188.056 146.522 187.957 146.45 187.836C146.378 187.715 146.336 187.576 146.327 187.433C146.319 187.289 146.345 187.146 146.402 187.016C146.459 186.886 146.547 186.775 146.655 186.691C146.764 186.608 146.891 186.556 147.023 186.54C147.156 186.524 147.29 186.545 147.413 186.601C147.536 186.657 147.643 186.745 147.726 186.858C147.729 187.121 147.676 187.381 147.572 187.618C147.467 187.855 147.313 188.062 147.121 188.224Z" fill="#F9F9F9"/>
<path d="M144.103 204.304H158.714L154.472 193.636H139.866L144.103 204.304Z" fill="#223C6A"/>
<path d="M154.457 193.636H128.036V217.193H154.457V193.636Z" fill="#223C6A"/>
<path opacity="0.3" d="M154.457 193.636H128.036V217.193H154.457V193.636Z" fill="#F9F9F9"/>
<path d="M134.551 193.636H114.073V217.193H134.551V193.636Z" fill="#223C6A"/>
<path opacity="0.1" d="M134.551 193.636H114.073V217.193H134.551V193.636Z" fill="#E0E0E0"/>
<path opacity="0.35" d="M114.073 205.415H131.006L134.546 193.636H114.073V205.415Z" fill="black"/>
<path d="M130.309 204.304H109.836L114.073 193.636H134.546L130.309 204.304Z" fill="#223C6A"/>
</g>
<defs>
<clipPath id="clip0_704_489">
<rect width="241.824" height="260.698" fill="white" transform="translate(0.0917969 0.282227)"/>
</clipPath>
</defs>
</svg>
