<svg width="250" height="250" viewBox="0 0 250 250" fill="none" xmlns="http://www.w3.org/2000/svg">
<g clip-path="url(#clip0_704_206)">
<path d="M249.733 191.275H0.963379V191.399H249.733V191.275Z" fill="#EBEBEB"/>
<path d="M224.806 199.281H208.328V199.405H224.806V199.281Z" fill="#EBEBEB"/>
<path d="M165.758 200.635H161.435V200.759H165.758V200.635Z" fill="#EBEBEB"/>
<path d="M207.83 194.663H198.282V194.788H207.83V194.663Z" fill="#EBEBEB"/>
<path d="M48.5532 195.499H27.0645V195.624H48.5532V195.499Z" fill="#EBEBEB"/>
<path d="M56.1355 195.499H52.9861V195.624H56.1355V195.499Z" fill="#EBEBEB"/>
<path d="M112.984 197.599H66.375V197.724H112.984V197.599Z" fill="#EBEBEB"/>
<path d="M118.88 169.081H22.8103C22.0577 169.08 21.3364 168.78 20.8047 168.247C20.273 167.714 19.9744 166.992 19.9744 166.24V31.1729C19.9809 30.4245 20.2824 29.7089 20.8134 29.1816C21.3444 28.6542 22.062 28.3577 22.8103 28.3564H118.88C119.634 28.3564 120.356 28.6558 120.889 29.1887C121.422 29.7215 121.721 30.4442 121.721 31.1978V166.24C121.721 166.993 121.422 167.716 120.889 168.249C120.356 168.782 119.634 169.081 118.88 169.081ZM22.8103 28.456C22.0907 28.4573 21.401 28.7441 20.8927 29.2535C20.3843 29.7629 20.0987 30.4532 20.0987 31.1729V166.24C20.0987 166.959 20.3843 167.65 20.8927 168.159C21.401 168.668 22.0907 168.955 22.8103 168.957H118.88C119.6 168.955 120.29 168.669 120.8 168.159C121.309 167.65 121.595 166.96 121.597 166.24V31.1729C121.595 30.4527 121.309 29.7624 120.8 29.2532C120.29 28.744 119.6 28.4573 118.88 28.456H22.8103Z" fill="#EBEBEB"/>
<path d="M226.503 169.081H130.428C129.675 169.08 128.953 168.78 128.42 168.247C127.888 167.715 127.588 166.993 127.587 166.24V31.1729C127.595 30.4241 127.897 29.7085 128.429 29.1813C128.961 28.6541 129.679 28.3577 130.428 28.3564H226.503C227.25 28.359 227.966 28.6561 228.496 29.1833C229.026 29.7105 229.327 30.4254 229.334 31.1729V166.24C229.334 166.992 229.036 167.713 228.505 168.245C227.974 168.778 227.254 169.078 226.503 169.081ZM130.428 28.456C129.708 28.4573 129.018 28.744 128.508 29.2532C127.999 29.7624 127.713 30.4527 127.711 31.1729V166.24C127.713 166.96 127.999 167.65 128.508 168.159C129.018 168.669 129.708 168.955 130.428 168.957H226.503C227.223 168.955 227.913 168.669 228.422 168.159C228.931 167.65 229.218 166.96 229.219 166.24V31.1729C229.218 30.4527 228.931 29.7624 228.422 29.2532C227.913 28.744 227.223 28.4573 226.503 28.456H130.428Z" fill="#EBEBEB"/>
<path d="M29.5371 188.373H218.298V120.992H224.617V118.877H220.796L211.542 104.954H206.258V104.934H176.744L168.326 87.9106H125.378V81.581H130.508V79.0481H125.03L117.014 64.0999H95.6998L85.3211 79.0481H80.0074V81.581H85.137V104.934H69.9273L63.2503 119.32H51.3392V114.274H41.886V119.32H39.5774V92.8419H38.4331V119.32H33.2786L25.9697 136.313H23.0442V138.921H29.5371V188.373Z" fill="#F0F0F0"/>
<path d="M59.4042 67.0757C67.0405 67.0757 73.2309 60.8844 73.2309 53.2471C73.2309 45.6097 67.0405 39.4185 59.4042 39.4185C51.768 39.4185 45.5776 45.6097 45.5776 53.2471C45.5776 60.8844 51.768 67.0757 59.4042 67.0757Z" fill="#F9F9F9"/>
<path d="M52.2348 53.0927C52.2341 52.7181 52.146 52.3488 51.9776 52.0142C51.8092 51.6796 51.565 51.3889 51.2646 51.1652C50.9641 50.9415 50.6157 50.791 50.2469 50.7257C49.8781 50.6603 49.4991 50.6819 49.1401 50.7887C49.2475 50.0655 49.1976 49.3276 48.9937 48.6254C48.7898 47.9233 48.4368 47.2734 47.9588 46.7202C47.4808 46.167 46.889 45.7235 46.2239 45.42C45.5588 45.1165 44.8361 44.9602 44.105 44.9617C43.7895 44.9634 43.4748 44.9934 43.1647 45.0512C42.6647 44.2247 41.909 43.5836 41.0121 43.2251C40.1151 42.8665 39.1258 42.8101 38.1939 43.0644C37.2621 43.3186 36.4384 43.8696 35.8477 44.634C35.257 45.3984 34.9315 46.3345 34.9204 47.3005H34.8458C33.7585 47.3005 32.7157 47.7324 31.9469 48.5014C31.178 49.2704 30.7461 50.3133 30.7461 51.4008C30.7461 52.4882 31.178 53.5312 31.9469 54.3001C32.7157 55.0691 33.7585 55.5011 34.8458 55.5011H49.8964C50.5237 55.4855 51.1199 55.2245 51.5571 54.7743C51.9943 54.324 52.2376 53.7203 52.2348 53.0927Z" fill="#F5F5F5"/>
<path d="M175.599 64.2292C175.599 63.5918 175.346 62.9804 174.896 62.5297C174.445 62.0789 173.834 61.8257 173.196 61.8257C172.962 61.8257 172.729 61.8592 172.505 61.9253C172.612 61.202 172.562 60.4641 172.358 59.762C172.155 59.0598 171.802 58.41 171.324 57.8568C170.846 57.3036 170.254 56.8601 169.589 56.5566C168.924 56.2531 168.201 56.0967 167.47 56.0982C167.156 56.0977 166.842 56.1277 166.534 56.1878C166.033 55.3628 165.278 54.7232 164.381 54.3654C163.485 54.0077 162.496 53.9512 161.565 54.2046C160.634 54.4579 159.81 55.0073 159.219 55.7699C158.627 56.5325 158.299 57.4669 158.285 58.432H158.186C157.098 58.432 156.056 58.864 155.287 59.633C154.518 60.4019 154.086 61.4449 154.086 62.5323C154.086 63.6198 154.518 64.6627 155.287 65.4317C156.056 66.2007 157.098 66.6327 158.186 66.6327H173.236C173.867 66.6235 174.469 66.3661 174.911 65.9162C175.354 65.4663 175.601 64.8602 175.599 64.2292Z" fill="#F5F5F5"/>
<path d="M107.795 48.679C107.795 48.3046 107.882 47.9354 108.05 47.6008C108.218 47.2661 108.462 46.9753 108.762 46.7515C109.062 46.5277 109.41 46.3772 109.779 46.3118C110.147 46.2465 110.526 46.2681 110.885 46.3751C110.783 45.6528 110.837 44.9172 111.043 44.2175C111.25 43.5179 111.603 42.8704 112.08 42.3186C112.557 41.7667 113.146 41.3232 113.808 41.0179C114.471 40.7125 115.19 40.5523 115.92 40.5481C116.235 40.5473 116.55 40.5773 116.86 40.6376C117.361 39.8123 118.117 39.1725 119.014 38.8149C119.911 38.4572 120.9 38.4012 121.832 38.6552C122.763 38.9092 123.587 39.4594 124.178 40.2228C124.769 40.9862 125.096 41.9213 125.109 42.8868H125.184C126.271 42.8868 127.314 43.3188 128.083 44.0878C128.852 44.8568 129.284 45.8997 129.284 46.9872C129.284 48.0746 128.852 49.1176 128.083 49.8865C127.314 50.6555 126.271 51.0875 125.184 51.0875H110.128C109.502 51.0706 108.907 50.8091 108.471 50.3589C108.035 49.9088 107.792 49.3058 107.795 48.679Z" fill="#F5F5F5"/>
<path d="M219.114 95.5638C219.114 94.9263 218.861 94.315 218.41 93.8643C217.96 93.4135 217.348 93.1603 216.711 93.1603C216.477 93.1594 216.243 93.1947 216.02 93.2648C216.055 93.0193 216.074 92.7715 216.074 92.5234C216.074 91.1733 215.538 89.8785 214.583 88.9238C213.629 87.9691 212.334 87.4328 210.984 87.4328C210.671 87.4348 210.358 87.4648 210.049 87.5224C209.548 86.6971 208.792 86.0573 207.895 85.6996C206.998 85.342 206.009 85.2859 205.078 85.5399C204.146 85.7939 203.322 86.3442 202.731 87.1076C202.14 87.8709 201.813 88.806 201.8 89.7716H201.725C200.638 89.7716 199.595 90.2036 198.826 90.9725C198.057 91.7415 197.625 92.7844 197.625 93.8719C197.625 94.9594 198.057 96.0023 198.826 96.7713C199.595 97.5402 200.638 97.9722 201.725 97.9722H216.781C217.407 97.9553 218.002 97.6938 218.438 97.2437C218.874 96.7936 219.117 96.1906 219.114 95.5638Z" fill="#F5F5F5"/>
<path d="M82.3856 60.2932C82.3856 59.8973 82.2283 59.5176 81.9484 59.2376C81.6685 58.9577 81.2888 58.8004 80.893 58.8004C80.7478 58.7988 80.6033 58.8206 80.4651 58.8651C80.4868 58.7117 80.4984 58.5571 80.4999 58.4023C80.5012 57.9858 80.4203 57.5732 80.2619 57.1881C80.1035 56.803 79.8706 56.4529 79.5766 56.158C79.2827 55.8631 78.9334 55.629 78.5488 55.4694C78.1642 55.3097 77.752 55.2275 77.3356 55.2275C77.1403 55.228 76.9454 55.2463 76.7534 55.2823C76.4431 54.764 75.9717 54.3615 75.4111 54.1363C74.8506 53.9112 74.2318 53.8757 73.6492 54.0353C73.0666 54.195 72.5523 54.5409 72.1848 55.0204C71.8173 55.4998 71.6168 56.0864 71.6139 56.6905H71.5691C71.2248 56.6753 70.8809 56.73 70.5583 56.8513C70.2357 56.9726 69.9409 57.158 69.6919 57.3963C69.4429 57.6346 69.2447 57.9209 69.1093 58.2379C68.9739 58.5549 68.9041 58.896 68.9041 59.2408C68.9041 59.5855 68.9739 59.9266 69.1093 60.2436C69.2447 60.5606 69.4429 60.8469 69.6919 61.0852C69.9409 61.3236 70.2357 61.509 70.5583 61.6303C70.8809 61.7516 71.2248 61.8062 71.5691 61.791H80.9278C81.3185 61.7819 81.69 61.6199 81.9625 61.3399C82.2351 61.0598 82.387 60.684 82.3856 60.2932Z" fill="#F5F5F5"/>
<path d="M88.4654 86.4177C88.4654 86.0218 88.6226 85.6421 88.9025 85.3621C89.1825 85.0822 89.5621 84.9249 89.958 84.9249C90.1046 84.9262 90.2503 84.9479 90.3908 84.9896C90.3667 84.8382 90.3551 84.6851 90.356 84.5318C90.356 84.1162 90.4379 83.7046 90.5969 83.3207C90.7559 82.9367 90.989 82.5878 91.2828 82.2939C91.5767 82 91.9255 81.7669 92.3094 81.6079C92.6933 81.4488 93.1048 81.367 93.5204 81.367C93.7157 81.3675 93.9105 81.3858 94.1025 81.4217C94.4143 80.9088 94.8845 80.5112 95.4421 80.289C95.9997 80.0668 96.6144 80.032 97.1935 80.1899C97.7726 80.3478 98.2846 80.6897 98.6524 81.1641C99.0201 81.6386 99.2236 82.2198 99.2321 82.82H99.2769C99.9337 82.849 100.554 83.1304 101.008 83.6055C101.463 84.0806 101.717 84.7127 101.717 85.3703C101.717 86.0278 101.463 86.6599 101.008 87.135C100.554 87.6101 99.9337 87.8915 99.2769 87.9205H89.9182C89.5275 87.9101 89.1565 87.7469 88.8849 87.4659C88.6133 87.1849 88.4626 86.8086 88.4654 86.4177Z" fill="#F5F5F5"/>
<path d="M200.477 53.5009C200.476 53.268 200.53 53.0382 200.634 52.8299C200.739 52.6217 200.89 52.4407 201.077 52.3014C201.263 52.1622 201.48 52.0685 201.709 52.0279C201.938 51.9873 202.174 52.001 202.397 52.0677C202.377 51.916 202.367 51.763 202.367 51.6099C202.367 51.1946 202.448 50.7831 202.606 50.3992C202.765 50.0152 202.997 49.6663 203.291 49.3724C203.584 49.0784 203.933 48.8452 204.316 48.6861C204.7 48.527 205.111 48.4451 205.527 48.4451C205.724 48.4456 205.92 48.4639 206.114 48.4999C206.424 47.9857 206.894 47.5869 207.452 47.3638C208.009 47.1407 208.625 47.1055 209.204 47.2636C209.783 47.4217 210.295 47.7645 210.663 48.2399C211.03 48.7153 211.232 49.2975 211.238 49.8981H211.288C211.945 49.9272 212.565 50.2085 213.02 50.6836C213.474 51.1587 213.728 51.7909 213.728 52.4484C213.728 53.1059 213.474 53.7381 213.02 54.2132C212.565 54.6883 211.945 54.9696 211.288 54.9987H201.969C201.773 54.9987 201.578 54.9599 201.397 54.8846C201.215 54.8092 201.051 54.6988 200.912 54.5597C200.773 54.4205 200.663 54.2554 200.589 54.0737C200.514 53.892 200.476 53.6973 200.477 53.5009Z" fill="#F5F5F5"/>
<path d="M125.348 213.747C178.626 213.747 221.816 211.225 221.816 208.114C221.816 205.003 178.626 202.481 125.348 202.481C72.0705 202.481 28.8804 205.003 28.8804 208.114C28.8804 211.225 72.0705 213.747 125.348 213.747Z" fill="#F5F5F5"/>
<path d="M24.1236 169.3H226.572C227.224 169.3 227.849 169.559 228.31 170.02C228.771 170.481 229.03 171.106 229.03 171.758V191.125H21.6658V171.758C21.6658 171.106 21.9247 170.481 22.3857 170.02C22.8466 169.559 23.4718 169.3 24.1236 169.3Z" fill="#E0E0E0"/>
<path d="M142.339 170.947L141.548 170.176H122.407L121.507 170.947H142.339Z" fill="#F0F0F0"/>
<path d="M121.044 171.34L118.979 173.111H144.573L142.747 171.34H121.044Z" fill="#F0F0F0"/>
<path d="M118.522 173.504L114.616 176.853H148.429L144.981 173.504H118.522Z" fill="#F0F0F0"/>
<path d="M149.444 177.839H113.467L106.8 183.546H155.325L149.444 177.839Z" fill="#F0F0F0"/>
<path d="M156.947 185.119H104.964L98.5305 190.632H162.628L156.947 185.119Z" fill="#F0F0F0"/>
<path d="M136.975 191.26H136.403V187.527H136.975V191.26ZM136.975 185.194H136.403V181.462H136.975V185.194ZM136.975 179.128H136.403V175.396H136.975V179.128ZM136.975 173.067H136.403V169.33H136.975V173.067ZM136.975 167.001H136.403V163.264H136.975V167.001ZM136.975 160.935H136.403V157.203H136.975V160.935ZM136.975 154.869H136.403V151.137H136.975V154.869ZM136.975 148.803H136.403V145.071H136.975V148.803ZM136.975 142.737H136.403V139.005H136.975V142.737ZM136.975 136.672H136.403V132.939H136.975V136.672ZM136.975 130.606H136.403V126.883H136.975V130.606ZM136.975 124.54H136.403V120.808H136.975V124.54ZM136.975 118.474H136.403V114.742H136.975V118.474ZM136.975 112.408H136.403V108.676H136.975V112.408ZM136.975 106.342H136.403V102.61H136.975V106.342ZM136.975 100.276H136.403V96.5292H136.975V100.276ZM136.975 94.2103H136.403V90.4782H136.975V94.2103ZM136.975 88.1444H136.403V84.4123H136.975V88.1444ZM136.975 82.0785H136.403V78.3464H136.975V82.0785ZM136.975 76.0126H136.403V72.2805H136.975V76.0126ZM136.975 69.9517H136.403V66.2147H136.975V69.9517ZM136.975 63.8858H136.403V60.1488H136.975V63.8858ZM136.975 57.8199H136.403V54.0879H136.975V57.8199ZM136.975 51.7541H136.403V48.022H136.975V51.7541Z" fill="#263238"/>
<g opacity="0.7">
<path opacity="0.7" d="M136.975 191.26H136.403V187.527H136.975V191.26ZM136.975 185.194H136.403V181.462H136.975V185.194ZM136.975 179.128H136.403V175.396H136.975V179.128ZM136.975 173.067H136.403V169.33H136.975V173.067ZM136.975 167.001H136.403V163.264H136.975V167.001ZM136.975 160.935H136.403V157.203H136.975V160.935ZM136.975 154.869H136.403V151.137H136.975V154.869ZM136.975 148.803H136.403V145.071H136.975V148.803ZM136.975 142.737H136.403V139.005H136.975V142.737ZM136.975 136.672H136.403V132.939H136.975V136.672ZM136.975 130.606H136.403V126.883H136.975V130.606ZM136.975 124.54H136.403V120.808H136.975V124.54ZM136.975 118.474H136.403V114.742H136.975V118.474ZM136.975 112.408H136.403V108.676H136.975V112.408ZM136.975 106.342H136.403V102.61H136.975V106.342ZM136.975 100.276H136.403V96.5292H136.975V100.276ZM136.975 94.2103H136.403V90.4782H136.975V94.2103ZM136.975 88.1444H136.403V84.4123H136.975V88.1444ZM136.975 82.0785H136.403V78.3464H136.975V82.0785ZM136.975 76.0126H136.403V72.2805H136.975V76.0126ZM136.975 69.9517H136.403V66.2147H136.975V69.9517ZM136.975 63.8858H136.403V60.1488H136.975V63.8858ZM136.975 57.8199H136.403V54.0879H136.975V57.8199ZM136.975 51.7541H136.403V48.022H136.975V51.7541Z" fill="white"/>
</g>
<path d="M135.08 128.546H75.1465V169.614H135.08V128.546Z" fill="#263238"/>
<path opacity="0.8" d="M135.08 128.546H75.1465V169.614H135.08V128.546Z" fill="white"/>
<path opacity="0.05" d="M121.288 128.546H75.1465V169.614H121.288V128.546Z" fill="black"/>
<path d="M135.08 139.229H125.592V169.613H135.08V139.229Z" fill="#263238"/>
<path opacity="0.1" d="M135.08 139.229H125.592V169.613H135.08V139.229Z" fill="white"/>
<path d="M105.725 148.564H100.436V157.273H105.725V148.564Z" fill="#263238"/>
<path d="M105.725 139.229H100.436V147.937H105.725V139.229Z" fill="#263238"/>
<path d="M111.785 148.564H106.352V157.273H111.785V148.564Z" fill="#263238"/>
<path d="M111.785 139.229H106.352V147.937H111.785V139.229Z" fill="#263238"/>
<path opacity="0.5" d="M105.725 148.564H100.436V157.273H105.725V148.564Z" fill="white"/>
<path opacity="0.5" d="M105.725 139.229H100.436V147.937H105.725V139.229Z" fill="white"/>
<path opacity="0.5" d="M111.785 148.564H106.352V157.273H111.785V148.564Z" fill="white"/>
<path opacity="0.5" d="M111.785 139.229H106.352V147.937H111.785V139.229Z" fill="white"/>
<path opacity="0.3" d="M100.441 139.229V143.538L101.591 139.229H100.441Z" fill="white"/>
<path opacity="0.3" d="M100.441 148.564V151.873L101.322 148.564H100.441Z" fill="white"/>
<path opacity="0.3" d="M103.825 139.229L101.496 147.937H100.581L102.909 139.229H103.825Z" fill="white"/>
<path opacity="0.3" d="M111.785 148.564H110.536L108.208 157.278H110.969L111.785 154.247V148.564Z" fill="white"/>
<path opacity="0.3" d="M111.785 143.922L110.706 147.937H111.785V143.922Z" fill="white"/>
<path d="M87.2266 148.564H81.9377V157.273H87.2266V148.564Z" fill="#263238"/>
<path d="M87.2266 139.229H81.9377V147.937H87.2266V139.229Z" fill="#263238"/>
<path d="M93.2864 148.564H87.8533V157.273H93.2864V148.564Z" fill="#263238"/>
<path d="M93.2864 139.229H87.8533V147.937H93.2864V139.229Z" fill="#263238"/>
<path opacity="0.5" d="M87.2266 148.564H81.9377V157.273H87.2266V148.564Z" fill="white"/>
<path opacity="0.5" d="M87.2266 139.229H81.9377V147.937H87.2266V139.229Z" fill="white"/>
<path opacity="0.5" d="M93.2864 148.564H87.8533V157.273H93.2864V148.564Z" fill="white"/>
<path opacity="0.5" d="M93.2864 139.229H87.8533V147.937H93.2864V139.229Z" fill="white"/>
<path opacity="0.3" d="M81.9377 139.229V143.538L83.0921 139.229H81.9377Z" fill="white"/>
<path opacity="0.3" d="M81.9377 148.564V151.873L82.8234 148.564H81.9377Z" fill="white"/>
<path opacity="0.3" d="M85.3258 139.229L82.9974 147.937H82.0769L84.4104 139.229H85.3258Z" fill="white"/>
<path opacity="0.3" d="M93.2816 148.564H92.0378L89.7043 157.278H92.4707L93.2816 154.247V148.564Z" fill="white"/>
<path opacity="0.3" d="M93.2815 143.922L92.2068 147.937H93.2815V143.922Z" fill="white"/>
<path d="M93.779 136.333H80.241V138.04H93.779V136.333Z" fill="#263238"/>
<path opacity="0.4" d="M93.7791 136.333H92.0725V138.04H93.7791V136.333Z" fill="white"/>
<path d="M112.278 136.333H98.7395V138.04H112.278V136.333Z" fill="#263238"/>
<path opacity="0.4" d="M112.278 136.333H110.571V138.04H112.278V136.333Z" fill="white"/>
<path d="M135.08 99.2512H80.853V127.197H135.08V99.2512Z" fill="#263238"/>
<path opacity="0.8" d="M135.08 99.2512H80.853V127.197H135.08V99.2512Z" fill="white"/>
<path opacity="0.05" d="M120.671 99.2512H80.853V127.197H120.671V99.2512Z" fill="black"/>
<path d="M135.08 89.7717V99.2512H77.5593L79.848 97.4548L89.6346 89.7717H135.08Z" fill="#263238"/>
<path opacity="0.4" d="M135.08 89.7717V98.465H121.193L121.134 97.4548L120.671 89.7717H135.08Z" fill="white"/>
<path d="M135.08 97.4548H76.4648V100.117H135.08V97.4548Z" fill="#263238"/>
<path opacity="0.4" d="M135.08 97.4548H76.4648V100.117H135.08V97.4548Z" fill="white"/>
<path opacity="0.4" d="M135.08 97.4548H121.472V100.117H135.08V97.4548Z" fill="white"/>
<path d="M109.074 116.056H103.785V124.764H109.074V116.056Z" fill="#263238"/>
<path d="M109.074 106.72H103.785V115.429H109.074V106.72Z" fill="#263238"/>
<path d="M115.129 116.056H109.696V124.764H115.129V116.056Z" fill="#263238"/>
<path d="M115.129 106.72H109.696V115.429H115.129V106.72Z" fill="#263238"/>
<path opacity="0.5" d="M109.074 116.056H103.785V124.764H109.074V116.056Z" fill="white"/>
<path opacity="0.5" d="M109.074 106.72H103.785V115.429H109.074V106.72Z" fill="white"/>
<path opacity="0.5" d="M115.129 116.056H109.696V124.764H115.129V116.056Z" fill="white"/>
<path opacity="0.5" d="M115.129 106.72H109.696V115.429H115.129V106.72Z" fill="white"/>
<path opacity="0.3" d="M103.785 106.72V111.029L104.939 106.72H103.785Z" fill="white"/>
<path opacity="0.3" d="M103.785 116.056V119.364L104.67 116.056H103.785Z" fill="white"/>
<path opacity="0.3" d="M107.173 106.72L104.839 115.429H103.924L106.257 106.72H107.173Z" fill="white"/>
<path opacity="0.3" d="M115.129 116.056H113.885L111.551 124.769H114.318L115.129 121.738V116.056Z" fill="white"/>
<path opacity="0.3" d="M115.128 111.413L114.054 115.428H115.128V111.413Z" fill="white"/>
<path d="M90.575 116.056H85.2861V124.764H90.575V116.056Z" fill="#263238"/>
<path d="M90.575 106.72H85.2861V115.429H90.575V106.72Z" fill="#263238"/>
<path d="M96.6302 116.056H91.197V124.764H96.6302V116.056Z" fill="#263238"/>
<path d="M96.6302 106.72H91.197V115.429H96.6302V106.72Z" fill="#263238"/>
<path opacity="0.5" d="M90.575 116.056H85.2861V124.764H90.575V116.056Z" fill="white"/>
<path opacity="0.5" d="M90.575 106.72H85.2861V115.429H90.575V106.72Z" fill="white"/>
<path opacity="0.5" d="M96.6302 116.056H91.197V124.764H96.6302V116.056Z" fill="white"/>
<path opacity="0.5" d="M96.6302 106.72H91.197V115.429H96.6302V106.72Z" fill="white"/>
<path opacity="0.3" d="M85.2861 106.72V111.029L86.4354 106.72H85.2861Z" fill="white"/>
<path opacity="0.3" d="M85.2861 116.056V119.364L86.1717 116.056H85.2861Z" fill="white"/>
<path opacity="0.3" d="M88.6692 106.72L86.3408 115.429H85.4253L87.7538 106.72H88.6692Z" fill="white"/>
<path opacity="0.3" d="M96.63 116.056H95.3812L93.0527 124.769H95.8191L96.63 121.738V116.056Z" fill="white"/>
<path opacity="0.3" d="M96.6299 111.413L95.5552 115.428H96.6299V111.413Z" fill="white"/>
<path d="M97.1225 103.824H83.5845V105.531H97.1225V103.824Z" fill="#263238"/>
<path opacity="0.4" d="M97.1274 103.824H95.4209V105.531H97.1274V103.824Z" fill="white"/>
<path d="M115.626 103.824H102.088V105.531H115.626V103.824Z" fill="#263238"/>
<path opacity="0.4" d="M115.626 103.824H113.92V105.531H115.626V103.824Z" fill="white"/>
<path d="M130.811 116.056H125.522V124.764H130.811V116.056Z" fill="#263238"/>
<path d="M130.811 106.72H125.522V115.429H130.811V106.72Z" fill="#263238"/>
<path d="M135.08 116.056H131.433V124.769H135.08V116.056Z" fill="#263238"/>
<path d="M135.08 106.72H131.433V115.429H135.08V106.72Z" fill="#263238"/>
<path opacity="0.5" d="M130.811 116.056H125.522V124.764H130.811V116.056Z" fill="white"/>
<path opacity="0.5" d="M130.811 106.72H125.522V115.429H130.811V106.72Z" fill="white"/>
<path opacity="0.5" d="M135.08 116.056H131.433V124.769H135.08V116.056Z" fill="white"/>
<path opacity="0.5" d="M135.08 106.72H131.433V115.429H135.08V106.72Z" fill="white"/>
<path opacity="0.3" d="M125.522 106.72V111.029L126.677 106.72H125.522Z" fill="white"/>
<path opacity="0.3" d="M125.522 116.056V119.364L126.408 116.056H125.522Z" fill="white"/>
<path opacity="0.3" d="M128.91 106.72L126.577 115.429H125.661L127.995 106.72H128.91Z" fill="white"/>
<path opacity="0.3" d="M135.08 118.081V124.768H133.289L135.08 118.081Z" fill="white"/>
<path d="M135.08 103.824H124.751V105.531H135.08V103.824Z" fill="#263238"/>
<path opacity="0.4" d="M124.751 105.531H126.458V103.824H124.751V105.531Z" fill="white"/>
<path d="M135.08 127.237V132.6H68.7729L71.0567 130.894L75.9574 127.237H135.08Z" fill="#263238"/>
<path opacity="0.4" d="M135.08 127.237V131.849H121.193L121.134 130.894L120.984 128.545L120.9 127.237H135.08Z" fill="white"/>
<path d="M135.08 130.894H67.6782V133.422H135.08V130.894Z" fill="#263238"/>
<path opacity="0.4" d="M135.08 130.894H67.6782V133.422H135.08V130.894Z" fill="white"/>
<path opacity="0.4" d="M135.08 130.894H121.472V133.422H135.08V130.894Z" fill="white"/>
<path d="M135.08 168.683V169.613H71.5742L72.9076 168.683H135.08Z" fill="#263238"/>
<path d="M117.512 62.6917H90.8688C90.3832 62.6917 89.9175 62.8846 89.5741 63.228C89.2307 63.5714 89.0378 64.0372 89.0378 64.5229V72.6389C89.0378 73.1246 89.2307 73.5903 89.5741 73.9338C89.9175 74.2772 90.3832 74.4701 90.8688 74.4701H102.735L104.193 79.4462L105.646 74.4701H117.512C117.998 74.4701 118.463 74.2772 118.807 73.9338C119.15 73.5903 119.343 73.1246 119.343 72.6389V64.498C119.336 64.0166 119.141 63.5572 118.798 63.2192C118.455 62.8811 117.993 62.6916 117.512 62.6917Z" fill="#223C6A"/>
<path d="M96.5406 69.1597C96.5406 69.8015 96.043 70.1548 95.1126 70.1548H93.3364V66.4282H94.9982C95.854 66.4282 96.3316 66.7914 96.3316 67.3885C96.3389 67.5604 96.2957 67.7308 96.2073 67.8785C96.1189 68.0261 95.9891 68.1446 95.8341 68.2194C96.0445 68.2663 96.2313 68.3868 96.3608 68.5592C96.4903 68.7316 96.554 68.9445 96.5406 69.1597ZM93.8688 66.871V68.0651H94.9584C95.5007 68.0651 95.8092 67.8611 95.8092 67.4681C95.8092 67.075 95.5007 66.871 94.9584 66.871H93.8688ZM96.0032 69.1199C96.0032 68.687 95.6798 68.498 95.0927 68.498H93.8688V69.7369H95.0927C95.6798 69.7219 95.9933 69.5329 95.9933 69.105L96.0032 69.1199Z" fill="white"/>
<path d="M100.068 69.6871V70.1548H97.3616V66.4282H99.9736V66.8909H97.874V68.0353H99.7448V68.488H97.874V69.6871H100.068Z" fill="white"/>
<path d="M101.466 66.8909V68.1895H103.332V68.6622H101.466V70.1548H100.934V66.4282H103.561V66.8909H101.466Z" fill="white"/>
<path d="M103.954 68.2889C103.937 67.8921 104.039 67.4993 104.247 67.1611C104.455 66.8229 104.76 66.5547 105.122 66.391C105.484 66.2273 105.886 66.1756 106.278 66.2426C106.669 66.3096 107.032 66.4921 107.318 66.7668C107.605 67.0415 107.803 67.3957 107.887 67.7838C107.971 68.172 107.937 68.5764 107.789 68.945C107.641 69.3136 107.387 69.6296 107.058 69.8523C106.729 70.0749 106.341 70.1941 105.944 70.1944C105.686 70.2073 105.429 70.1675 105.187 70.0773C104.945 69.9872 104.725 69.8487 104.538 69.6704C104.352 69.492 104.204 69.2774 104.104 69.0399C104.003 68.8023 103.952 68.5468 103.954 68.2889ZM107.382 68.2889C107.385 68.0017 107.302 67.7201 107.145 67.4799C106.987 67.2398 106.762 67.0519 106.497 66.9402C106.233 66.8284 105.941 66.7979 105.659 66.8525C105.377 66.907 105.118 67.0442 104.914 67.2466C104.71 67.449 104.571 67.7074 104.514 67.989C104.458 68.2706 104.486 68.5626 104.596 68.828C104.706 69.0933 104.893 69.32 105.132 69.4791C105.371 69.6383 105.652 69.7227 105.939 69.7218C106.13 69.7286 106.32 69.6964 106.497 69.627C106.675 69.5576 106.837 69.4525 106.973 69.3183C107.108 69.184 107.215 69.0235 107.286 68.8464C107.357 68.6694 107.392 68.4796 107.387 68.2889H107.382Z" fill="white"/>
<path d="M111.223 70.1548L110.422 69.0104H110.188H109.268V70.1548H108.73V66.4282H110.183C111.153 66.4282 111.74 66.9258 111.74 67.7268C111.752 67.9857 111.678 68.2412 111.53 68.4536C111.381 68.666 111.167 68.8233 110.919 68.901L111.8 70.1548H111.223ZM111.223 67.7268C111.223 67.1944 110.865 66.8909 110.183 66.8909H109.278V68.5676H110.183C110.85 68.5676 111.208 68.2592 111.208 67.7268H111.223Z" fill="white"/>
<path d="M115.302 69.6871V70.1548H112.601V66.4282H115.228V66.8909H113.133V68.0353H114.999V68.488H113.133V69.6871H115.302Z" fill="white"/>
<path d="M208.771 92.4238H207.368V129.964H208.771V92.4238Z" fill="#223C6A"/>
<path d="M165.037 123.485H138.254V169.613H165.037V123.485Z" fill="#223C6A"/>
<path opacity="0.8" d="M165.037 123.485H138.254V169.613H165.037V123.485Z" fill="white"/>
<path d="M194.153 131.253H163.37V169.614H194.153V131.253Z" fill="#223C6A"/>
<path opacity="0.4" d="M194.158 131.248H163.375V169.608H194.158V131.248Z" fill="white"/>
<path opacity="0.1" d="M194.158 131.248V146.066L176.361 153.705V169.613H163.375V131.248H194.158Z" fill="black"/>
<path d="M206.78 132.994H204.442V169.614H206.78V132.994Z" fill="#223C6A"/>
<path d="M201.342 132.994H199.004V169.614H201.342V132.994Z" fill="#223C6A"/>
<path d="M195.899 132.994H193.561V169.614H195.899V132.994Z" fill="#223C6A"/>
<path d="M190.461 132.994H188.123V169.614H190.461V132.994Z" fill="#223C6A"/>
<path d="M185.018 132.994H182.68V169.614H185.018V132.994Z" fill="#223C6A"/>
<path d="M177.182 118.837V119.917H181.043V120.962H177.182V121.246H181.043V122.32H177.182V122.599H181.043V123.674H177.182V123.953H181.043V125.027H177.182V125.311H181.043V126.386H177.182V126.665H181.043V127.739H177.182V128.023H181.043V129.098H177.182V129.372H181.043V129.964H181.859V129.372H192.745V129.964H193.561V129.372H204.457V129.964H205.278V119.917H206.801V118.842L177.182 118.837ZM181.859 119.912H192.745V120.957H181.859V119.912ZM181.859 121.241H192.745V122.315H181.859V121.241ZM181.859 122.594H192.745V123.669H181.859V122.594ZM181.859 123.948H192.745V125.022H181.859V123.948ZM181.859 125.306H192.745V126.386H181.859V125.306ZM181.859 126.66H192.745V127.734H181.859V126.66ZM181.859 129.093V128.018H192.745V129.093H181.859ZM193.561 119.917H204.457V120.962H193.561V119.917ZM193.561 121.246H204.457V122.32H193.561V121.246ZM193.561 122.599H204.457V123.674H193.561V122.599ZM193.561 123.953H204.457V125.027H193.561V123.953ZM193.561 125.311H204.457V126.386H193.561V125.311ZM193.561 126.665H204.457V127.739H193.561V126.665ZM193.561 129.098V128.023H204.457V129.098H193.561Z" fill="#223C6A"/>
<g opacity="0.2">
<path opacity="0.2" d="M177.182 118.837V119.917H181.043V120.962H177.182V121.246H181.043V122.32H177.182V122.599H181.043V123.674H177.182V123.953H181.043V125.027H177.182V125.311H181.043V126.386H177.182V126.665H181.043V127.739H177.182V128.023H181.043V129.098H177.182V129.372H181.043V129.964H181.859V129.372H192.745V129.964H193.561V129.372H204.457V129.964H205.278V119.917H206.801V118.842L177.182 118.837ZM181.859 119.912H192.745V120.957H181.859V119.912ZM181.859 121.241H192.745V122.315H181.859V121.241ZM181.859 122.594H192.745V123.669H181.859V122.594ZM181.859 123.948H192.745V125.022H181.859V123.948ZM181.859 125.306H192.745V126.386H181.859V125.306ZM181.859 126.66H192.745V127.734H181.859V126.66ZM181.859 129.093V128.018H192.745V129.093H181.859ZM193.561 119.917H204.457V120.962H193.561V119.917ZM193.561 121.246H204.457V122.32H193.561V121.246ZM193.561 122.599H204.457V123.674H193.561V122.599ZM193.561 123.953H204.457V125.027H193.561V123.953ZM193.561 125.311H204.457V126.386H193.561V125.311ZM193.561 126.665H204.457V127.739H193.561V126.665ZM193.561 129.098V128.023H204.457V129.098H193.561Z" fill="black"/>
</g>
<path d="M178.351 92.4238H138.254V129.675H178.351V92.4238Z" fill="#223C6A"/>
<path opacity="0.8" d="M178.351 92.4238H138.254V129.675H178.351V92.4238Z" fill="white"/>
<path d="M174.789 97.7236H138.254V129.675H174.789V97.7236Z" fill="#223C6A"/>
<path opacity="0.1" d="M138.254 97.7236V100.167H172.376V127.6H138.254V129.675H174.789V97.7236H138.254Z" fill="white"/>
<path d="M169.808 100.167H138.254V127.227H169.808V100.167Z" fill="#223C6A"/>
<path opacity="0.5" d="M169.808 100.167H138.254V127.227H169.808V100.167Z" fill="white"/>
<path opacity="0.3" d="M169.808 100.167V115.095L166.559 127.227H160.33L167.574 100.167H169.808Z" fill="white"/>
<path opacity="0.3" d="M165.813 100.167L158.569 127.227H157.664L164.908 100.167H165.813Z" fill="white"/>
<path d="M165.813 154.168V139.229H168.988V136.627H145.539V156.815H168.988V154.168H165.813Z" fill="#223C6A"/>
<path d="M166.49 139.229H150.285V154.173H166.49V139.229Z" fill="black"/>
<path d="M166.49 139.229H150.285V154.173H166.49V139.229Z" fill="#223C6A"/>
<path opacity="0.5" d="M166.49 139.229H150.285V154.173H166.49V139.229Z" fill="white"/>
<path opacity="0.3" d="M161.301 139.229L157.305 154.168H151.076L155.071 139.229H161.301Z" fill="white"/>
<path opacity="0.3" d="M165.002 139.229L161.007 154.168H159.21L163.211 139.229H165.002Z" fill="white"/>
<path opacity="0.1" d="M147.753 136.627H145.539V156.815H147.753V136.627Z" fill="black"/>
<path d="M144.479 133.029H138.628V169.613H144.479V133.029Z" fill="#223C6A"/>
<path opacity="0.3" d="M144.479 133.029H138.628V169.613H144.479V133.029Z" fill="white"/>
<path opacity="0.2" d="M144.479 133.029H141.553V169.613H144.479V133.029Z" fill="white"/>
<path d="M188.595 133.029H182.744V169.613H188.595V133.029Z" fill="#223C6A"/>
<path opacity="0.3" d="M188.595 133.029H182.744V169.613H188.595V133.029Z" fill="white"/>
<path opacity="0.2" d="M188.595 133.029H185.67V169.613H188.595V133.029Z" fill="white"/>
<path d="M211.96 129.675H138.254V133.472H211.96V129.675Z" fill="#223C6A"/>
<path opacity="0.3" d="M211.96 129.675H138.254V133.472H211.96V129.675Z" fill="white"/>
<path opacity="0.2" d="M188.596 129.675H141.553V133.472H188.596V129.675Z" fill="white"/>
<path d="M210.184 89.7368H138.254V93.533H210.184V89.7368Z" fill="#223C6A"/>
<path opacity="0.3" d="M210.184 89.7368H138.254V93.533H210.184V89.7368Z" fill="white"/>
<path opacity="0.2" d="M210.184 89.7368H141.553V93.533H210.184V89.7368Z" fill="white"/>
<path d="M215.741 169.613H138.254V168.683H214.408L215.741 169.613Z" fill="#223C6A"/>
<path d="M187.541 62.6917H160.917C160.677 62.6917 160.439 62.739 160.217 62.831C159.995 62.9231 159.793 63.058 159.623 63.228C159.453 63.398 159.318 63.5999 159.226 63.8221C159.134 64.0443 159.086 64.2824 159.086 64.5229V72.6389C159.086 72.8794 159.134 73.1175 159.226 73.3397C159.318 73.5618 159.453 73.7637 159.623 73.9338C159.793 74.1038 159.995 74.2387 160.217 74.3307C160.439 74.4228 160.677 74.4701 160.917 74.4701H172.784L174.241 79.4462L175.694 74.4701H187.541C188.026 74.4701 188.492 74.2772 188.835 73.9338C189.179 73.5903 189.372 73.1246 189.372 72.6389V64.498C189.365 64.0166 189.169 63.5572 188.827 63.2192C188.484 62.8811 188.022 62.6916 187.541 62.6917Z" fill="#223C6A"/>
<path d="M168.246 69.2194H166.256L165.843 70.1548H165.295L166.982 66.4282H167.509L169.201 70.1548H168.634L168.246 69.2194ZM168.057 68.7965L167.256 66.9705L166.45 68.7965H168.057Z" fill="white"/>
<path d="M170.296 66.8909V68.1895H172.167V68.6622H170.296V70.1548H169.764V66.4282H172.396V66.8909H170.296Z" fill="white"/>
<path d="M173.908 66.8909H172.614V66.4282H175.694V66.8909H174.415V70.1548H173.908V66.8909Z" fill="white"/>
<path d="M178.998 69.6871V70.1548H176.291V66.4282H178.923V66.8909H176.823V68.0353H178.694V68.488H176.823V69.6871H178.998Z" fill="white"/>
<path d="M182.347 70.1548L181.57 69.0104H181.337H180.416V70.1548H179.884V66.4282H181.337C182.302 66.4282 182.889 66.9258 182.889 67.7268C182.901 67.9857 182.827 68.2412 182.678 68.4536C182.53 68.666 182.315 68.8233 182.068 68.901L182.954 70.1548H182.347ZM182.347 67.7268C182.347 67.1944 181.988 66.8909 181.312 66.8909H180.406V68.5676H181.312C181.973 68.5676 182.332 68.2592 182.332 67.7268H182.347Z" fill="white"/>
<path d="M44.7466 163.707C44.7466 163.707 42.1942 161.577 40.01 163.707C37.8258 165.836 37.3979 179.013 37.3979 179.013" stroke="#223C6A" stroke-miterlimit="10"/>
<path d="M37.214 181.54C37.214 181.54 38.7066 166.069 33.0596 159.571" stroke="#223C6A" stroke-miterlimit="10"/>
<path d="M37.7812 179.908C37.7812 179.908 36.6219 162.298 40.8709 158.392" stroke="#223C6A" stroke-miterlimit="10"/>
<path d="M37.2142 179.909C37.2142 179.909 37.1196 168.275 33.9603 166.474C30.8009 164.672 29.1938 170.564 29.1938 170.564" stroke="#223C6A" stroke-miterlimit="10"/>
<path d="M38.4627 179.909C38.4627 179.909 37.9652 170.977 40.3931 167.782C42.8211 164.587 45.4133 169.151 45.4133 169.151" stroke="#223C6A" stroke-miterlimit="10"/>
<path d="M37.612 181.123C37.612 181.123 39.1942 160.223 36.5771 156.69" stroke="#223C6A" stroke-miterlimit="10"/>
<path d="M31.2585 168.185C31.2585 168.185 32.8307 168.763 32.363 170.136C31.8953 171.509 26.9199 173.759 26.9199 173.759C26.9199 173.759 24.8352 171.848 26.7508 168.743C28.6663 165.638 31.2137 167.19 31.2585 168.185Z" fill="#223C6A"/>
<path opacity="0.2" d="M31.2585 168.185C31.2585 168.185 32.8307 168.763 32.363 170.136C31.8953 171.509 26.9199 173.759 26.9199 173.759C26.9199 173.759 24.8352 171.848 26.7508 168.743C28.6663 165.638 31.2137 167.19 31.2585 168.185Z" fill="white"/>
<path d="M38.0994 165.553C38.0994 165.553 36.4227 165.483 36.3282 166.926C36.2337 168.369 39.9602 172.365 39.9602 172.365C39.9602 172.365 42.6171 171.405 42.0499 167.802C41.4827 164.199 38.5174 164.662 38.0994 165.553Z" fill="#223C6A"/>
<path opacity="0.2" d="M38.0994 165.553C38.0994 165.553 36.4227 165.483 36.3282 166.926C36.2337 168.369 39.9602 172.365 39.9602 172.365C39.9602 172.365 42.6171 171.405 42.0499 167.802C41.4827 164.199 38.5174 164.662 38.0994 165.553Z" fill="white"/>
<path d="M39.5176 158.635C39.5176 158.635 38.4031 158.516 38.4927 157.834C38.5822 157.153 42.8362 155.401 45.3438 158.237C45.3438 158.237 43.7367 160.994 41.4132 161.034C39.0897 161.073 39.5176 158.635 39.5176 158.635Z" fill="#223C6A"/>
<path opacity="0.2" d="M39.5176 158.635C39.5176 158.635 38.4031 158.516 38.4927 157.834C38.5822 157.153 42.8362 155.401 45.3438 158.237C45.3438 158.237 43.7367 160.994 41.4132 161.034C39.0897 161.073 39.5176 158.635 39.5176 158.635Z" fill="white"/>
<path d="M37.438 156.983C37.438 156.983 38.4331 157.481 38.7316 156.849C39.0301 156.217 36.3335 152.486 32.7064 153.56C32.7064 153.56 32.6069 156.755 34.5622 158.013C36.5176 159.272 37.438 156.983 37.438 156.983Z" fill="#223C6A"/>
<path opacity="0.2" d="M37.438 156.983C37.438 156.983 38.4331 157.481 38.7316 156.849C39.0301 156.217 36.3335 152.486 32.7064 153.56C32.7064 153.56 32.6069 156.755 34.5622 158.013C36.5176 159.272 37.438 156.983 37.438 156.983Z" fill="white"/>
<path d="M42.7267 167.608C42.7267 167.608 41.9555 166.986 42.7864 166.682C43.6173 166.379 47.7021 166.463 47.7618 170.509C47.7618 170.509 43.0054 171.3 42.4183 169.757C41.8312 168.215 42.7267 167.608 42.7267 167.608Z" fill="#223C6A"/>
<path opacity="0.2" d="M42.7267 167.608C42.7267 167.608 41.9555 166.986 42.7864 166.682C43.6173 166.379 47.7021 166.463 47.7618 170.509C47.7618 170.509 43.0054 171.3 42.4183 169.757C41.8312 168.215 42.7267 167.608 42.7267 167.608Z" fill="white"/>
<path d="M33.0297 158.536C33.0297 158.536 33.8009 157.914 32.97 157.605C32.1391 157.297 28.0543 157.391 27.9946 161.436C27.9946 161.436 32.7511 162.228 33.3382 160.685C33.9253 159.143 33.0297 158.536 33.0297 158.536Z" fill="#223C6A"/>
<path opacity="0.2" d="M33.0297 158.536C33.0297 158.536 33.8009 157.914 32.97 157.605C32.1391 157.297 28.0543 157.391 27.9946 161.436C27.9946 161.436 32.7511 162.228 33.3382 160.685C33.9253 159.143 33.0297 158.536 33.0297 158.536Z" fill="white"/>
<path d="M35.5423 161.796C35.5423 161.796 35.612 161.035 35 161.333C34.3881 161.632 32.2586 163.925 34.4677 166.105C34.4677 166.105 37.4529 163.905 36.9006 162.761C36.3484 161.617 35.5423 161.796 35.5423 161.796Z" fill="#223C6A"/>
<path opacity="0.2" d="M35.5423 161.796C35.5423 161.796 35.612 161.035 35 161.333C34.3881 161.632 32.2586 163.925 34.4677 166.105C34.4677 166.105 37.4529 163.905 36.9006 162.761C36.3484 161.617 35.5423 161.796 35.5423 161.796Z" fill="white"/>
<path d="M43.4184 162.871C43.4184 162.871 42.9556 162.268 43.6323 162.194C44.309 162.119 47.334 162.925 46.6175 165.945C46.6175 165.945 42.9308 165.672 42.7716 164.413C42.6123 163.154 43.4184 162.871 43.4184 162.871Z" fill="#223C6A"/>
<path opacity="0.2" d="M43.4184 162.871C43.4184 162.871 42.9556 162.268 43.6323 162.194C44.309 162.119 47.334 162.925 46.6175 165.945C46.6175 165.945 42.9308 165.672 42.7716 164.413C42.6123 163.154 43.4184 162.871 43.4184 162.871Z" fill="white"/>
<path d="M30.9648 191.125H43.6123L44.9755 177.277H29.6016L30.9648 191.125Z" fill="#223C6A"/>
<path opacity="0.5" d="M30.9648 191.125H43.6123L44.9755 177.277H29.6016L30.9648 191.125Z" fill="white"/>
<path d="M28.9251 178.804H45.6523V175.749H28.9251V178.804Z" fill="#223C6A"/>
<path opacity="0.2" d="M28.9251 178.804H45.6523V175.749H28.9251V178.804Z" fill="white"/>
<path d="M214.507 179.576C214.507 179.576 216.776 174.6 214.183 169.733C211.591 164.866 210.835 163.707 212.492 162.712C214.149 161.716 214.905 166.618 214.905 166.618C215.724 164.399 215.808 161.976 215.144 159.706C213.994 156.173 213.273 150.416 214.845 149.799C216.417 149.182 215.144 156.979 216.507 159.636C217.205 157.771 217.655 155.822 217.845 153.839C218.034 151.003 217.736 146.47 218.98 145.305C220.224 144.141 221.015 144.947 219.796 151.212C219.063 154.955 218.659 158.754 218.587 162.567C218.587 162.567 221.278 154.352 223.089 154.108C224.9 153.864 224.895 156.526 223.348 158.835C221.801 161.144 218.811 165.279 218.323 167.409C218.323 167.409 221.283 161.224 223.94 163.12C226.597 165.016 221.627 168.748 219.408 170.086C217.189 171.425 215.651 179.894 215.651 179.894L214.507 179.576Z" fill="#223C6A"/>
<path opacity="0.6" d="M214.507 179.576C214.507 179.576 216.776 174.6 214.183 169.733C211.591 164.866 210.835 163.707 212.492 162.712C214.149 161.716 214.905 166.618 214.905 166.618C215.724 164.399 215.808 161.976 215.144 159.706C213.994 156.173 213.273 150.416 214.845 149.799C216.417 149.182 215.144 156.979 216.507 159.636C217.205 157.771 217.655 155.822 217.845 153.839C218.034 151.003 217.736 146.47 218.98 145.305C220.224 144.141 221.015 144.947 219.796 151.212C219.063 154.955 218.659 158.754 218.587 162.567C218.587 162.567 221.278 154.352 223.089 154.108C224.9 153.864 224.895 156.526 223.348 158.835C221.801 161.144 218.811 165.279 218.323 167.409C218.323 167.409 221.283 161.224 223.94 163.12C226.597 165.016 221.627 168.748 219.408 170.086C217.189 171.425 215.651 179.894 215.651 179.894L214.507 179.576Z" fill="white"/>
<path d="M216.298 181.621C216.298 181.621 214.089 176.645 216.741 171.783C219.393 166.921 220.159 165.812 218.517 164.772C216.875 163.732 216.059 168.648 216.059 168.648C215.263 166.414 215.207 163.984 215.9 161.716C217.094 158.198 217.89 152.456 216.318 151.814C214.746 151.172 215.93 158.989 214.537 161.627C213.864 159.751 213.44 157.795 213.273 155.81C213.119 152.968 213.467 148.44 212.238 147.261C211.009 146.081 210.203 146.868 211.352 153.152C212.037 156.906 212.393 160.712 212.417 164.528C212.417 164.528 209.82 156.267 208.014 156.004C206.208 155.74 206.178 158.397 207.7 160.726C209.223 163.055 212.153 167.24 212.621 169.375C212.621 169.375 209.735 163.144 207.054 165.001C204.372 166.857 209.297 170.668 211.502 172.052C213.706 173.435 215.144 181.914 215.144 181.914L216.298 181.621Z" fill="#223C6A"/>
<path opacity="0.7" d="M216.298 181.621C216.298 181.621 214.089 176.645 216.741 171.783C219.393 166.921 220.159 165.812 218.517 164.772C216.875 163.732 216.059 168.648 216.059 168.648C215.263 166.414 215.207 163.984 215.9 161.716C217.094 158.198 217.89 152.456 216.318 151.814C214.746 151.172 215.93 158.989 214.537 161.627C213.864 159.751 213.44 157.795 213.273 155.81C213.119 152.968 213.467 148.44 212.238 147.261C211.009 146.081 210.203 146.868 211.352 153.152C212.037 156.906 212.393 160.712 212.417 164.528C212.417 164.528 209.82 156.267 208.014 156.004C206.208 155.74 206.178 158.397 207.7 160.726C209.223 163.055 212.153 167.24 212.621 169.375C212.621 169.375 209.735 163.144 207.054 165.001C204.372 166.857 209.297 170.668 211.502 172.052C213.706 173.435 215.144 181.914 215.144 181.914L216.298 181.621Z" fill="white"/>
<path d="M206.099 178.048H224.368L222.891 191.125H207.576L206.099 178.048Z" fill="#223C6A"/>
<path d="M53.4138 59.283C53.4138 56.2077 50.3291 53.7097 46.518 53.7097C42.7068 53.7097 39.6221 56.1978 39.6221 59.283C39.6221 61.985 41.9953 64.2342 45.1497 64.7567C45.8676 66.2624 47.0644 67.4874 48.5529 68.24C48.5529 68.24 47.319 67.2895 47.4334 64.8015C50.8067 64.4432 53.4138 62.1094 53.4138 59.283Z" fill="#223C6A"/>
<path opacity="0.8" d="M53.4138 59.283C53.4138 56.2077 50.3291 53.7097 46.518 53.7097C42.7068 53.7097 39.6221 56.1978 39.6221 59.283C39.6221 61.985 41.9953 64.2342 45.1497 64.7567C45.8676 66.2624 47.0644 67.4874 48.5529 68.24C48.5529 68.24 47.319 67.2895 47.4334 64.8015C50.8067 64.4432 53.4138 62.1094 53.4138 59.283Z" fill="white"/>
<path d="M43.7517 56.8891C44.6423 55.7895 45.9856 56.4313 46.5926 57.4563C47.4385 56.6204 48.9012 56.3418 49.4833 57.6354C50.4784 59.8096 47.6673 61.342 46.3638 61.9142L45.9956 62.0784C45.906 62.0087 45.8015 61.9291 45.6772 61.8247C44.5577 60.939 42.2591 58.7449 43.7517 56.8891Z" fill="#223C6A"/>
<path d="M81.7141 102.5C80.6593 105.158 77.0671 105.715 74.1614 104.521C71.2558 103.327 67.2556 96.2654 67.2556 96.2654L71.3006 88.9604L81.7141 102.5Z" fill="#223C6A"/>
<path opacity="0.2" d="M81.7141 102.5C80.6593 105.158 77.0671 105.715 74.1614 104.521C71.2558 103.327 67.2556 96.2654 67.2556 96.2654L71.3006 88.9604L81.7141 102.5Z" fill="black"/>
<path d="M54.3644 69.1854C55.0435 68.1216 55.9902 67.255 57.1097 66.6724C58.2291 66.0899 59.4821 65.8119 60.7428 65.8663C65.1112 66.0654 66.6536 66.4585 67.2556 70.3C67.8576 74.1416 68.1562 74.6641 69.5343 75.4851C70.9125 76.3062 67.6039 78.1125 68.1761 79.7696C68.7482 81.4266 70.5195 81.3221 70.42 82.8498C70.3205 84.3775 68.38 84.3426 68.1761 85.5319C67.9721 86.7212 68.9821 88.8012 68.1761 90.4732C67.37 92.1452 51.215 97.6786 49.0656 93.5833C46.9162 89.4879 50.3443 87.4776 50.7373 85.5319C51.1304 83.5862 50.0109 83.6758 49.9313 81.3669C49.8517 79.058 51.4239 78.8788 51.5881 77.5801C51.7523 76.2813 50.1502 75.092 50.6428 73.629C51.1354 72.1661 52.9464 69.1854 54.3644 69.1854Z" fill="#263238"/>
<path d="M44.0951 198.47L42.0552 195.793L45.518 192.454L48.6675 189.418L51.6278 192.185L47.6425 195.509L44.0951 198.47Z" fill="#FFB573"/>
<path d="M41.9358 194.977C42.2343 194.758 44.7718 198.559 44.7718 198.559C44.7718 198.559 44.2046 202.54 45.3489 205.073C46.4933 207.606 44.2494 207.407 42.4234 205.008L37.851 199.037C36.5375 197.286 38.8212 197.241 41.9358 194.977Z" fill="#263238"/>
<path d="M45.6326 201.425C45.0555 201.291 44.6823 199.649 44.6375 199.321C44.6325 199.305 44.6325 199.287 44.6375 199.271C44.6354 199.26 44.6354 199.248 44.6375 199.236C44.6375 199.236 44.6375 199.236 44.6375 199.206C44.6505 199.202 44.6643 199.202 44.6773 199.206C44.7321 199.206 45.8018 198.848 46.3789 199.206C46.471 199.257 46.5502 199.329 46.6106 199.415C46.671 199.501 46.7108 199.6 46.7272 199.704C46.772 199.928 46.7272 200.087 46.6028 200.172C46.4784 200.256 46.0157 200.196 45.6077 200.022C45.8649 200.26 46.0495 200.565 46.1401 200.903C46.1491 200.973 46.1442 201.044 46.1255 201.112C46.1068 201.18 46.0747 201.244 46.0312 201.299C45.9877 201.355 45.9336 201.401 45.872 201.436C45.8104 201.47 45.7425 201.492 45.6724 201.5L45.6326 201.425ZM45.6873 201.192C45.6873 201.192 45.7819 201.216 45.8963 201.067C45.9368 201.009 45.9529 200.938 45.9411 200.868C45.8913 200.49 45.3241 199.943 44.946 199.604C45.1052 200.311 45.4137 201.127 45.6873 201.192ZM45.0206 199.341C45.6376 199.724 46.3142 200.027 46.4834 199.908C46.5381 199.873 46.5182 199.754 46.4834 199.689C46.4719 199.622 46.4453 199.559 46.4057 199.503C46.366 199.448 46.3143 199.403 46.2545 199.371C46.0859 199.283 45.897 199.242 45.7072 199.251C45.476 199.259 45.246 199.288 45.0206 199.341Z" fill="#223C6A"/>
<path opacity="0.2" d="M47.6428 195.508L45.5183 192.453L48.6677 189.418L51.6281 192.185L47.6428 195.508Z" fill="black"/>
<path d="M64.5588 202.704H61.1954L60.6431 198.017L60.1406 193.718L64.1359 193.066L64.3597 198.166L64.5588 202.704Z" fill="#FFB573"/>
<path d="M60.4741 202.486C60.4741 202.117 65.0415 202.406 65.0415 202.406C65.0415 202.406 67.8426 205.257 70.5691 205.889C73.2957 206.521 71.7732 208.167 68.7283 208.167H61.1955C59.0312 208.177 60.3845 206.332 60.4741 202.486Z" fill="#263238"/>
<path d="M65.5489 203.018L65.5091 202.993V202.958C65.5091 202.958 65.5091 202.933 65.5091 202.918C65.5067 202.902 65.5067 202.885 65.5091 202.868C65.5091 202.819 65.9121 201.759 66.5041 201.505C66.5972 201.463 66.6981 201.442 66.8002 201.442C66.9022 201.442 67.0031 201.463 67.0962 201.505C67.3002 201.605 67.4047 201.734 67.3947 201.888C67.3947 202.127 67.0564 202.386 66.6833 202.565C67.0289 202.508 67.3837 202.547 67.7082 202.679C67.7677 202.712 67.8199 202.755 67.8619 202.809C67.9038 202.862 67.9344 202.923 67.952 202.988C67.9865 203.072 67.9945 203.165 67.9749 203.254C67.9554 203.343 67.9092 203.423 67.8425 203.485C67.7237 203.565 67.5822 203.603 67.4395 203.595C66.7805 203.514 66.1407 203.319 65.5489 203.018ZM65.9668 202.943C66.6385 203.227 67.4594 203.48 67.6883 203.301C67.6883 203.301 67.7629 203.242 67.7181 203.062C67.7098 203.028 67.6938 202.996 67.6714 202.968C67.6491 202.941 67.6208 202.919 67.5888 202.903C67.4207 202.826 67.236 202.792 67.0514 202.804C66.687 202.805 66.3235 202.843 65.9668 202.918V202.943ZM66.5987 201.729C66.2352 201.965 65.9605 202.315 65.8175 202.724C66.4892 202.47 67.141 202.117 67.1559 201.908C67.1559 201.848 67.0564 201.789 66.9917 201.759C66.927 201.726 66.8554 201.709 66.7828 201.709C66.7226 201.694 66.6596 201.692 66.5987 201.704V201.729Z" fill="#223C6A"/>
<path opacity="0.2" d="M64.3598 198.27L60.6431 198.106L60.1406 193.762L64.1359 193.091L64.3598 198.27Z" fill="black"/>
<path d="M72.9626 121.723C72.9626 121.723 80.9232 145.23 82.4805 155.561C84.0378 165.891 50.7176 193.524 50.7176 193.524L47.1055 189.677C47.1055 189.677 71.4003 162.657 71.4003 158.009C71.4003 153.361 63.1362 132.133 63.1362 132.133C63.1362 132.133 62.161 123.574 72.9626 121.723Z" fill="#263238"/>
<path opacity="0.2" d="M72.9626 121.723C72.9626 121.723 80.9232 145.23 82.4805 155.561C84.0378 165.891 50.7176 193.524 50.7176 193.524L47.1055 189.677C47.1055 189.677 71.4003 162.657 71.4003 158.009C71.4003 153.361 63.1362 132.133 63.1362 132.133C63.1362 132.133 62.161 123.574 72.9626 121.723Z" fill="white"/>
<path opacity="0.2" d="M66.1909 166.588L65.7631 180.66C62.1509 183.979 60.0264 185.85 57.3049 188.124C56.877 186.273 55.8123 182.407 56.0411 179.068C59.6234 175.207 62.7629 170.708 66.1909 166.588Z" fill="black"/>
<path opacity="0.2" d="M67.3401 143.469C65.2803 137.831 63.3051 132.949 63.3051 132.949C63.2985 131.97 63.4566 130.996 63.7728 130.068C64.0521 129.9 64.3513 129.768 64.6634 129.675C64.6634 129.675 67.569 134.467 67.3401 143.469Z" fill="black"/>
<path d="M64.6784 128.754L65.3252 161.86V195.738H59.5936C46.16 131.546 55.3645 115.453 55.3645 115.453H55.3943C55.3943 115.428 55.3943 115.398 55.4242 115.379C57.5885 110.567 71.7733 114.115 71.7733 114.115C72.7684 118.096 73.445 126.192 73.445 126.192L64.6784 128.754Z" fill="#263238"/>
<path opacity="0.2" d="M64.6784 128.754L65.3252 161.86V195.738H59.5936C46.16 131.546 55.3645 115.453 55.3645 115.453H55.3943C55.3943 115.428 55.3943 115.398 55.4242 115.379C57.5885 110.567 71.7733 114.115 71.7733 114.115C72.7684 118.096 73.445 126.192 73.445 126.192L64.6784 128.754Z" fill="white"/>
<path d="M58.8721 194.922L65.9172 193.892L65.3252 196.708L59.5139 197.489L58.8721 194.922Z" fill="#223C6A"/>
<path d="M47.0952 188.383L51.8218 193.518L49.4585 194.871L45.8115 191.005L47.0952 188.383Z" fill="#223C6A"/>
<path d="M73.7735 119.917C71.0979 121.033 68.3132 121.867 65.4646 122.405C56.5586 124.152 52.2748 123.4 52.2748 123.4C53.5286 120.415 54.1307 116.175 54.1108 111.458C54.0912 109.01 53.925 106.566 53.6132 104.138C53.6132 104.033 53.6132 103.929 53.5734 103.824C53.3396 102.033 53.0311 100.226 52.653 98.4401C52.3843 97.1695 52.0758 95.9172 51.7275 94.6831C51.4838 93.8023 51.23 92.9415 50.9414 92.0905C50.628 91.1351 50.2847 90.13 49.9165 89.0601C52.1444 88.3492 54.4208 87.8004 56.7278 87.418C59.1642 86.9841 61.6282 86.723 64.1013 86.6367C67.3005 86.6118 70.9674 86.9751 70.9674 86.9751C70.9674 86.9751 71.4898 87.0995 71.8182 90.4584C71.9127 91.4536 71.7336 93.9417 71.5395 97.1363C71.1166 103.993 71.6589 114.09 73.7735 119.917Z" fill="#223C6A"/>
<path opacity="0.3" d="M59.2551 98.2704C59.9268 97.141 60.5089 96.0414 60.9816 95.0762H60.1358C59.8273 95.708 59.4691 96.4046 59.071 97.131C59.1357 97.4892 59.2004 97.8723 59.2551 98.2704Z" fill="white"/>
<path opacity="0.3" d="M62.2506 95.0361L61.5391 95.071C60.9669 96.2501 60.2306 97.6482 59.3599 99.0513C59.3897 99.3349 59.4146 99.6284 59.4345 99.917C60.4819 98.3552 61.4227 96.7246 62.2506 95.0361Z" fill="white"/>
<path opacity="0.3" d="M69.3801 109.656C69.3403 109.323 69.3005 108.959 69.2607 108.571C68.7184 109.522 68.1064 110.512 67.4397 111.472L68.3154 111.278C68.6885 110.741 69.0467 110.198 69.3801 109.656Z" fill="white"/>
<path opacity="0.3" d="M69.166 107.72C69.1262 107.362 69.0914 106.999 69.0516 106.641C68.1703 108.41 67.1609 110.113 66.0315 111.735L66.728 111.611C67.6195 110.365 68.4336 109.066 69.166 107.72Z" fill="white"/>
<path opacity="0.3" d="M65.3352 111.856C66.7236 109.915 67.9374 107.855 68.9623 105.7C68.9125 105.143 68.8677 104.615 68.8379 104.153C67.6334 106.912 66.1479 109.54 64.4048 111.995L65.3352 111.856Z" fill="white"/>
<path opacity="0.3" d="M59.4891 101.713C61.1077 99.5919 62.5032 97.3094 63.6535 94.9019L62.8276 94.9864C61.8672 96.9907 60.7492 98.9156 59.4841 100.743C59.4891 101.066 59.4941 101.39 59.4891 101.713Z" fill="white"/>
<path opacity="0.3" d="M69.0469 111.094L69.5444 110.955C69.5444 110.816 69.5046 110.636 69.4847 110.457C69.3354 110.661 69.1912 110.875 69.0469 111.094Z" fill="white"/>
<path opacity="0.3" d="M63.7081 112.099C65.761 109.28 67.4681 106.224 68.7929 102.998V102.814C68.7929 102.749 69.0417 96.7182 68.37 93.8569C67.0304 94.3324 65.6446 94.666 64.2354 94.8522C62.9487 97.6108 61.3387 100.207 59.4392 102.585C59.3953 103.156 59.3038 103.722 59.1655 104.277C59.4489 107.047 59.5701 109.832 59.5287 112.617C60.3497 112.512 61.9468 112.343 63.7081 112.099Z" fill="white"/>
<path opacity="0.3" d="M59.5883 95.0661C59.26 95.0661 58.9316 95.0363 58.5933 95.0164C58.6828 95.3646 58.7923 95.8273 58.9067 96.3647C59.1754 95.9169 59.3843 95.4791 59.5883 95.0661Z" fill="white"/>
<path d="M62.8623 86.2187C62.6693 85.6078 62.5851 84.9677 62.6135 84.3277C62.6295 83.6406 62.6944 82.9555 62.8075 82.2776L57.9317 81.3669C57.9317 81.3669 59.3894 84.2431 58.4292 86.6118C56.1744 87.0085 53.9934 87.7468 51.9612 88.8013C54.9222 90.8144 58.4545 91.8163 62.0314 91.6576C67.9521 91.359 70.0666 87.2786 70.0666 87.2786C67.7342 86.556 65.304 86.1985 62.8623 86.2187Z" fill="#FFB573"/>
<path opacity="0.2" d="M62.8075 82.2774C62.6943 82.9553 62.6295 83.6403 62.6135 84.3273C60.2651 83.785 57.9316 81.3669 57.9316 81.3669L62.8075 82.2774Z" fill="black"/>
<path opacity="0.1" d="M62.8623 86.2187C62.6693 85.6078 62.5851 84.9677 62.6135 84.3277C62.6295 83.6406 62.6944 82.9555 62.8075 82.2776L57.9317 81.3669C57.9317 81.3669 59.3894 84.2431 58.4292 86.6118C56.1744 87.0085 53.9934 87.7468 51.9612 88.8013C54.9222 90.8144 58.4545 91.8163 62.0314 91.6576C67.9521 91.359 70.0666 87.2786 70.0666 87.2786C67.7342 86.556 65.304 86.1985 62.8623 86.2187Z" fill="black"/>
<path d="M62.5738 83.3371C62.102 83.3402 61.6309 83.3019 61.1658 83.2226C60.3363 83.081 59.5471 82.7618 58.8524 82.2868C58.1577 81.8119 57.5738 81.1924 57.1407 80.4708C54.5634 76.4302 55.6481 69.4736 60.5936 69.2049C64.6038 68.986 66.0118 71.061 66.5342 75.1762C67.1362 79.7991 66.4098 83.2823 62.5738 83.3371Z" fill="#FFB573"/>
<path d="M63.927 75.092C64.2808 75.6731 64.7035 76.2093 65.1858 76.6891C65.0759 76.8594 64.9211 76.9959 64.7384 77.0837C64.5558 77.1715 64.3525 77.2071 64.1509 77.1867L63.927 75.092Z" fill="#FFB573"/>
<path d="M61.4544 74.8978C61.4544 75.2262 61.325 75.5098 61.1061 75.5247C60.8872 75.5396 60.6881 75.2909 60.6583 74.9625C60.6284 74.6341 60.7926 74.3505 61.0115 74.3356C61.2305 74.3207 61.4295 74.5694 61.4544 74.8978Z" fill="#263238"/>
<path d="M60.9219 74.3556L61.6135 74.0222C61.6135 74.0222 61.305 74.6342 60.9219 74.3556Z" fill="#263238"/>
<path d="M65.5393 74.5096C65.5642 74.838 65.41 75.1216 65.191 75.1365C64.9721 75.1515 64.7731 74.9027 64.7433 74.5693C64.7134 74.236 64.8776 73.9623 65.0965 73.9474C65.3154 73.9325 65.5144 74.1813 65.5393 74.5096Z" fill="#263238"/>
<path d="M65.0068 73.9675L65.6984 73.6292C65.6984 73.6292 65.3899 74.261 65.0068 73.9675Z" fill="#263238"/>
<path d="M61.2654 72.1453C60.9462 72.1239 60.6264 72.1759 60.3305 72.2976C60.0346 72.4192 59.7706 72.6071 59.5588 72.8469" stroke="#263238" stroke-width="0.686238" stroke-linecap="round" stroke-linejoin="round"/>
<path d="M64.1509 71.8019C64.4201 71.7168 64.7051 71.694 64.9844 71.7354C65.2637 71.7768 65.5299 71.8812 65.7629 72.0407" stroke="#263238" stroke-width="0.686238" stroke-linecap="round" stroke-linejoin="round"/>
<path d="M63.6532 78.8141C63.4893 79.2766 63.3596 79.7506 63.2651 80.2321H63.0014C61.8322 80.1774 61.3048 79.7644 61.0759 79.3216C60.9682 79.1038 60.9152 78.863 60.9217 78.62C60.9208 78.4841 60.9375 78.3487 60.9714 78.217C61.683 78.5702 62.4613 78.7686 63.2551 78.7992L63.6532 78.8141Z" fill="#263238"/>
<path d="M63.2554 78.7892L63.131 79.2021C62.0215 79.1474 61.2503 78.9633 60.9219 78.61C60.921 78.4741 60.9377 78.3387 60.9717 78.207C61.6832 78.5602 62.4616 78.7586 63.2554 78.7892Z" fill="white"/>
<path d="M63.0014 80.2223C61.8322 80.1675 61.3048 79.7546 61.0759 79.3118C61.5208 79.3414 61.9571 79.4492 62.3646 79.6302C62.6332 79.7565 62.8558 79.9635 63.0014 80.2223Z" fill="#FFB573"/>
<path d="M56.5783 76.2014C56.5783 76.2014 58.2749 72.8027 57.852 70.2748C57.852 70.2748 65.6186 66.5925 66.4545 74.6389C66.4545 74.6389 66.8376 67.4285 59.9367 67.6723C53.0359 67.9161 53.618 77.9778 57.3396 80.7894C57.3396 80.7645 55.5335 78.3262 56.5783 76.2014Z" fill="#263238"/>
<path d="M57.2801 77.0127C57.2135 76.5511 56.9666 76.1348 56.5936 75.855C56.2205 75.5751 55.7517 75.4547 55.2899 75.5201C54.056 75.7241 53.6033 78.3113 56.7278 78.7541C57.1855 78.8038 57.4144 78.3561 57.2801 77.0127Z" fill="#FFB573"/>
<path opacity="0.1" d="M62.5737 83.3368C62.1019 83.3398 61.6308 83.3015 61.1657 83.2223C60.3362 83.0807 59.5471 82.7616 58.8524 82.2867C58.1577 81.8118 57.5737 81.1924 57.1406 80.4709C57.6885 79.7488 58.4489 79.2164 59.3149 78.9485C59.9169 78.8788 61.5389 81.8541 62.5737 83.3368Z" fill="black"/>
<path d="M69.0965 78.2069C69.0965 78.2069 67.0417 83.0935 67.4049 83.8797C67.7681 84.6659 69.5343 89.0997 69.5343 89.0997L71.7832 87.9153L70.0269 84.3276C70.0269 84.3276 72.0618 81.0881 71.7832 80.7647C71.5046 80.4412 69.8627 77.8636 69.0965 78.2069Z" fill="#FFB573"/>
<path d="M68.4548 88.1145L71.8132 86.124C71.8132 86.124 82.376 98.8579 81.7142 102.5C81.366 104.401 78.2315 105.566 75.7438 103.187C73.4402 101.008 71.8878 95.7429 68.4548 88.1145Z" fill="#223C6A"/>
<path opacity="0.1" d="M68.4548 88.1145L71.8132 86.124C71.8132 86.124 82.376 98.8579 81.7142 102.5C81.366 104.401 78.2315 105.566 75.7438 103.187C73.4402 101.008 71.8878 95.7429 68.4548 88.1145Z" fill="black"/>
<path d="M56.8324 80.7647C56.8324 80.7647 58.7927 79.1823 59.3897 79.2171C59.9868 79.252 61.8774 84.5167 62.2904 84.9645C62.7033 85.4124 61.355 89.662 61.355 89.662L58.6136 89.6968L59.6086 86.1439C59.6086 86.1439 55.9069 81.4564 56.8324 80.7647Z" fill="#FFB573"/>
<path opacity="0.2" d="M54.1103 111.458C54.0907 109.01 53.9246 106.565 53.6128 104.138C54.9074 102.536 56.6341 101.339 58.5882 100.689C58.5882 100.689 58.7175 108.88 54.1103 111.458Z" fill="black"/>
<path d="M58.6132 88.3435L62.0959 89.0999C62.0959 89.0999 58.7077 104.158 56.3643 106.258C54.0209 108.357 51.6924 108.104 49.941 105.262C48.1897 102.421 47.5827 89.702 49.941 89.0153C50.8483 90.456 51.6323 91.9708 52.2845 93.5435C52.916 94.9526 53.448 96.4042 53.8766 97.8877L58.6132 88.3435Z" fill="#223C6A"/>
<path opacity="0.1" d="M62.0862 89.0947C62.0862 89.0947 58.6979 104.157 56.3545 106.257C54.0111 108.357 51.6826 108.103 49.9313 105.262C48.1799 102.421 47.5729 89.7018 49.9313 89.0151C50.8386 90.4558 51.6225 91.9706 52.2747 93.5433C52.7722 94.648 53.0907 95.5338 53.3344 96.2354C53.7275 97.3252 53.8668 97.8875 53.8668 97.8875L58.6133 88.3284L62.0862 89.0947Z" fill="black"/>
<path opacity="0.2" d="M53.8667 97.9023C53.8667 97.9023 52.1054 100.286 51.588 101.793C51.588 101.793 51.0357 98.36 53.3343 96.2505C53.7274 97.3401 53.8667 97.9023 53.8667 97.9023Z" fill="black"/>
</g>
<defs>
<clipPath id="clip0_704_206">
<rect width="248.769" height="248.806" fill="white" transform="translate(0.963379 0.987793)"/>
</clipPath>
</defs>
</svg>
