<svg width="338" height="338" viewBox="0 0 338 338" fill="none" xmlns="http://www.w3.org/2000/svg">
<g clip-path="url(#clip0_1_2484)">
<path d="M337.451 258.072H0.136719V258.241H337.451V258.072Z" fill="#EBEBEB"/>
<path d="M49.8367 264.494H35.5278V264.663H49.8367V264.494Z" fill="#EBEBEB"/>
<path d="M172.916 262.666H115.593V262.835H172.916V262.666Z" fill="#EBEBEB"/>
<path d="M71.4989 270.762H45.7888V270.93H71.4989V270.762Z" fill="#EBEBEB"/>
<path d="M303.652 269.628H274.515V269.797H303.652V269.628Z" fill="#EBEBEB"/>
<path d="M272.309 269.628H264.234V269.797H272.309V269.628Z" fill="#EBEBEB"/>
<path d="M250.35 266.781H234.833V266.95H250.35V266.781Z" fill="#EBEBEB"/>
<path d="M227.035 266.781H194.356V266.95H227.035V266.781Z" fill="#EBEBEB"/>
<path d="M160.024 227.983H29.7597C28.7392 227.982 27.7611 227.575 27.0402 226.853C26.3192 226.131 25.9143 225.152 25.9143 224.131V41.0168C25.9232 40.0021 26.332 39.032 27.052 38.317C27.772 37.6021 28.745 37.2001 29.7597 37.1984H160.024C161.045 37.1984 162.025 37.6042 162.748 38.3266C163.47 39.049 163.876 40.0288 163.876 41.0505V224.131C163.876 225.153 163.47 226.133 162.748 226.855C162.025 227.578 161.045 227.983 160.024 227.983ZM29.7597 37.3333C28.7839 37.3351 27.8488 37.7239 27.1594 38.4145C26.4701 39.1051 26.083 40.041 26.083 41.0168V224.131C26.083 225.107 26.4701 226.043 27.1594 226.734C27.8488 227.424 28.7839 227.813 29.7597 227.815H160.024C161 227.813 161.936 227.424 162.626 226.734C163.317 226.044 163.706 225.108 163.707 224.131V41.0168C163.706 40.0404 163.317 39.1045 162.626 38.4141C161.936 37.7237 161 37.3351 160.024 37.3333H29.7597Z" fill="#EBEBEB"/>
<path d="M305.953 227.983H175.682C174.661 227.982 173.682 227.575 172.96 226.853C172.238 226.131 171.832 225.152 171.83 224.131V41.0168C171.84 40.0015 172.251 39.0314 172.972 38.3166C173.693 37.6019 174.667 37.2001 175.682 37.1984H305.953C306.966 37.2019 307.938 37.6047 308.656 38.3194C309.375 39.0342 309.783 40.0033 309.791 41.0168V224.131C309.791 225.151 309.387 226.128 308.668 226.85C307.948 227.572 306.972 227.98 305.953 227.983ZM175.682 37.3333C174.706 37.3351 173.77 37.7237 173.079 38.4141C172.389 39.1045 172 40.0404 171.998 41.0168V224.131C172 225.108 172.389 226.044 173.079 226.734C173.77 227.424 174.706 227.813 175.682 227.815H305.953C306.929 227.813 307.865 227.424 308.555 226.734C309.246 226.044 309.634 225.108 309.636 224.131V41.0168C309.634 40.0404 309.246 39.1045 308.555 38.4141C307.865 37.7237 306.929 37.3351 305.953 37.3333H175.682Z" fill="#EBEBEB"/>
<path d="M36.3105 258.072H59.0859L59.0859 162.963H36.3105L36.3105 258.072Z" fill="#E6E6E6"/>
<path d="M40.0946 258.072H36.3032V249.511H44.0682L40.0946 258.072Z" fill="#F0F0F0"/>
<path d="M187.137 258.072H209.912V162.963H187.137V258.072Z" fill="#E6E6E6"/>
<path d="M36.3104 254.786L190.443 254.786V162.963H36.3104V254.786Z" fill="#F0F0F0"/>
<path d="M39.2515 192.215L187.501 192.215V167.031L39.2515 167.031V192.215Z" fill="#E6E6E6"/>
<path d="M39.2515 170.465L187.501 170.465V167.037L39.2515 167.037V170.465Z" fill="#E0E0E0"/>
<path d="M186.651 258.072H190.443V249.511H182.671L186.651 258.072Z" fill="#F0F0F0"/>
<path d="M39.2515 221.466L187.501 221.466V196.283L39.2515 196.283V221.466Z" fill="#E6E6E6"/>
<path d="M39.2515 199.717L187.501 199.717V196.289L39.2515 196.289V199.717Z" fill="#E0E0E0"/>
<path d="M39.2515 250.712L187.501 250.712V225.528L39.2515 225.528V250.712Z" fill="#E6E6E6"/>
<path d="M39.2515 228.962L187.501 228.962V225.535L39.2515 225.535V228.962Z" fill="#E0E0E0"/>
<path d="M241.667 258.072H294.477L299.166 92.1941H246.356L241.667 258.072Z" fill="#E6E6E6"/>
<path d="M240.055 258.072H292.865L297.554 92.1941H244.744L240.055 258.072Z" fill="#F0F0F0"/>
<path d="M289.701 253.356L294.12 96.9098H247.908L243.489 253.356H289.701Z" fill="#F9F9F9"/>
<path d="M54.8893 137.145L207.207 137.145V52.1955L54.8893 52.1955V137.145Z" fill="#F0F0F0"/>
<path d="M49.4113 137.145L204.65 137.145V52.1955L49.4113 52.1955V137.145Z" fill="#F5F5F5"/>
<path d="M196.96 130.074V59.252L57.0821 59.252V130.074H196.96Z" fill="white"/>
<path d="M56.731 159.158C59.6298 159.158 61.9796 156.808 61.9796 153.909C61.9796 151.011 59.6298 148.661 56.731 148.661C53.8323 148.661 51.4824 151.011 51.4824 153.909C51.4824 156.808 53.8323 159.158 56.731 159.158Z" fill="#F0F0F0"/>
<path d="M70.307 157.527C70.9728 154.706 69.2256 151.879 66.4044 151.213C63.5831 150.547 60.7563 152.294 60.0904 155.115C59.4246 157.937 61.1718 160.764 63.993 161.429C66.8142 162.095 69.6411 160.348 70.307 157.527Z" fill="#E6E6E6"/>
<path d="M77.6504 153.892C78.3163 151.071 76.5691 148.244 73.7478 147.578C70.9266 146.913 68.0998 148.66 67.4339 151.481C66.7681 154.302 68.5153 157.129 71.3365 157.795C74.1577 158.461 76.9846 156.714 77.6504 153.892Z" fill="#F0F0F0"/>
<path d="M81.4563 155.866C81.4563 155.866 80.9976 162.963 63.2414 162.963C45.4851 162.963 45.0264 155.866 45.0264 155.866H81.4563Z" fill="#E6E6E6"/>
<path d="M168.794 288.538C241.035 288.538 299.598 285.119 299.598 280.901C299.598 276.684 241.035 273.265 168.794 273.265C96.5529 273.265 37.99 276.684 37.99 280.901C37.99 285.119 96.5529 288.538 168.794 288.538Z" fill="#F5F5F5"/>
<path d="M254.647 280.901H184.27C183.106 280.907 181.953 280.676 180.882 280.223C179.81 279.769 178.841 279.103 178.035 278.264C177.229 277.425 176.601 276.43 176.191 275.341C175.781 274.252 175.596 273.091 175.648 271.929L183.501 69.2567C183.621 66.8565 184.651 64.5923 186.382 62.9253C188.113 61.2583 190.414 60.3137 192.817 60.2841H263.195C264.358 60.2794 265.51 60.5108 266.582 60.9646C267.653 61.4183 268.621 62.0848 269.427 62.9238C270.233 63.7627 270.861 64.7566 271.271 65.8451C271.682 66.9337 271.868 68.0944 271.816 69.2567L263.964 271.929C263.844 274.329 262.813 276.593 261.082 278.26C259.351 279.927 257.05 280.872 254.647 280.901Z" fill="#263238"/>
<path d="M176.377 81.2314H175.702L176.174 69.1893C176.315 66.1794 177.603 63.3378 179.774 61.2478C181.944 59.1577 184.832 57.9777 187.845 57.95V58.6246C185.007 58.6524 182.286 59.765 180.241 61.7344C178.197 63.7037 176.983 66.3806 176.849 69.2163L176.377 81.2314Z" fill="#223C6A"/>
<path d="M198.363 57.923H192.628V58.5976H198.363V57.923Z" fill="#223C6A"/>
<path d="M249.675 280.901H179.298C178.134 280.907 176.981 280.676 175.91 280.223C174.838 279.769 173.869 279.103 173.063 278.264C172.257 277.425 171.629 276.43 171.219 275.341C170.809 274.252 170.624 273.091 170.676 271.929L178.529 69.2567C178.649 66.8565 179.679 64.5923 181.41 62.9253C183.141 61.2583 185.442 60.3137 187.845 60.2841H258.223C259.386 60.2794 260.538 60.5108 261.61 60.9646C262.681 61.4183 263.649 62.0848 264.455 62.9238C265.261 63.7627 265.889 64.7566 266.3 65.8451C266.71 66.9337 266.896 68.0944 266.844 69.2567L258.992 271.929C258.872 274.329 257.841 276.593 256.11 278.26C254.379 279.927 252.078 280.872 249.675 280.901Z" fill="#223C6A"/>
<path opacity="0.8" d="M251.915 257.586H178.867C178.216 257.59 177.571 257.462 176.971 257.209C176.372 256.957 175.83 256.584 175.378 256.116C174.927 255.647 174.576 255.091 174.347 254.482C174.117 253.873 174.014 253.224 174.043 252.574L180.857 76.7383C180.922 75.3945 181.498 74.1264 182.468 73.1933C183.437 72.2603 184.726 71.733 186.072 71.7191H259.114C259.765 71.7157 260.41 71.8447 261.009 72.0982C261.609 72.3518 262.151 72.7246 262.602 73.194C263.053 73.6635 263.404 74.2197 263.634 74.829C263.863 75.4383 263.967 76.0879 263.937 76.7383L257.123 252.574C257.058 253.916 256.483 255.182 255.515 256.114C254.546 257.046 253.259 257.572 251.915 257.586Z" fill="white"/>
<path opacity="0.4" d="M220.902 257.586H202.687L233.41 71.7191H251.625L220.902 257.586Z" fill="white"/>
<path opacity="0.4" d="M199.482 257.586H190.375L221.098 71.7191H230.205L199.482 257.586Z" fill="white"/>
<path d="M232.62 203.238H196.703C195.043 203.238 193.728 201.423 193.654 199.035L192.635 165.688C192.554 162.942 194.133 160.561 196.042 160.561H236.52C238.429 160.561 239.825 162.942 239.535 165.688L235.987 199.035C235.73 201.423 234.273 203.238 232.62 203.238Z" fill="#223C6A"/>
<path d="M232.62 204.506H196.703C194.335 204.506 192.487 202.165 192.392 199.076L191.374 165.729C191.275 163.846 191.925 162 193.182 160.595C193.547 160.197 193.988 159.878 194.48 159.655C194.971 159.433 195.503 159.312 196.042 159.299H236.52C237.057 159.312 237.586 159.439 238.071 159.672C238.556 159.904 238.986 160.237 239.333 160.649C239.918 161.37 240.349 162.204 240.6 163.098C240.851 163.993 240.915 164.93 240.79 165.85L237.242 199.197C236.931 202.206 234.907 204.506 232.62 204.506ZM196.042 161.823C195.841 161.838 195.645 161.893 195.466 161.985C195.287 162.076 195.127 162.202 194.996 162.356C194.218 163.269 193.824 164.449 193.897 165.648L194.915 198.995C194.963 200.641 195.765 201.976 196.703 201.976H232.62C233.477 201.976 234.536 200.742 234.732 198.9L238.28 165.553C238.365 164.986 238.336 164.407 238.195 163.851C238.054 163.295 237.803 162.773 237.457 162.315C237.347 162.169 237.205 162.049 237.043 161.964C236.881 161.879 236.703 161.831 236.52 161.823H196.042Z" fill="#223C6A"/>
<path d="M235.987 200.297H235.852C235.687 200.279 235.527 200.229 235.382 200.15C235.236 200.07 235.108 199.963 235.004 199.834C234.9 199.705 234.822 199.557 234.776 199.397C234.729 199.238 234.714 199.072 234.732 198.907L238.631 162.254C239.238 156.527 242.848 152.209 247.024 152.209H249.749C250.084 152.209 250.405 152.342 250.641 152.579C250.878 152.815 251.011 153.136 251.011 153.471C251.011 153.805 250.878 154.126 250.641 154.363C250.405 154.599 250.084 154.732 249.749 154.732H247.051C244.217 154.732 241.654 158.153 241.168 162.524L237.269 199.177C237.235 199.49 237.084 199.78 236.847 199.987C236.609 200.195 236.302 200.305 235.987 200.297Z" fill="#223C6A"/>
<path d="M204.091 215.645C203.389 215.633 202.697 215.477 202.057 215.187C201.418 214.896 200.845 214.478 200.373 213.958C198.727 212.244 197.81 209.445 197.918 206.47C198.113 201.43 201.169 197.335 204.738 197.335C205.441 197.345 206.133 197.501 206.773 197.791C207.412 198.081 207.985 198.5 208.455 199.022C210.102 200.735 211.019 203.535 210.911 206.51C210.715 211.55 207.659 215.645 204.091 215.645ZM204.765 198.435C201.783 198.435 199.213 202.057 199.044 206.53C198.943 209.229 199.719 211.711 201.196 213.216C201.565 213.629 202.015 213.961 202.517 214.193C203.02 214.425 203.564 214.552 204.118 214.565C207.099 214.565 209.67 210.942 209.838 206.47C209.94 203.771 209.164 201.288 207.686 199.784C207.314 199.368 206.861 199.033 206.353 198.801C205.846 198.569 205.296 198.444 204.738 198.435H204.765Z" fill="#223C6A"/>
<path d="M223.716 215.645C223.015 215.632 222.324 215.476 221.685 215.186C221.047 214.896 220.475 214.478 220.005 213.958C218.352 212.244 217.435 209.445 217.549 206.47C217.738 201.43 220.801 197.335 224.37 197.335C225.071 197.346 225.763 197.501 226.401 197.791C227.04 198.081 227.611 198.5 228.08 199.022C229.733 200.735 230.651 203.535 230.536 206.51C230.347 211.55 227.284 215.645 223.716 215.645ZM224.39 198.435C221.402 198.435 218.838 202.057 218.669 206.53C218.568 209.229 219.344 211.711 220.815 213.216C221.183 213.629 221.633 213.961 222.135 214.193C222.638 214.425 223.182 214.552 223.736 214.565C226.724 214.565 229.288 210.942 229.457 206.47C229.558 203.771 228.782 201.288 227.311 199.784C226.94 199.369 226.487 199.035 225.981 198.803C225.475 198.57 224.927 198.445 224.37 198.435H224.39Z" fill="#223C6A"/>
<path d="M231.918 127.77C232.768 116.019 226.894 106.019 218.796 105.432C210.699 104.846 203.445 113.897 202.594 125.647C201.744 137.398 207.619 147.398 215.716 147.985C223.813 148.571 231.067 139.52 231.918 127.77Z" fill="#223C6A"/>
<path d="M216.456 149.288C214.733 149.259 213.034 148.876 211.464 148.162C209.895 147.448 208.49 146.419 207.335 145.139C203.288 140.916 201.007 134.008 201.264 126.674C201.736 114.254 209.265 104.155 218.048 104.155C219.772 104.182 221.471 104.564 223.04 105.277C224.609 105.989 226.015 107.018 227.169 108.297C231.217 112.527 233.504 119.429 233.241 126.769C232.769 139.182 225.24 149.288 216.456 149.288ZM218.042 106.685C210.621 106.685 204.198 115.698 203.78 126.776C203.524 133.441 205.527 139.654 209.13 143.398C210.051 144.43 211.175 145.261 212.43 145.841C213.686 146.421 215.047 146.738 216.429 146.772C223.85 146.772 230.273 137.759 230.691 126.681C230.947 120.016 228.95 113.802 225.348 110.058C224.426 109.026 223.301 108.194 222.045 107.614C220.788 107.034 219.425 106.718 218.042 106.685Z" fill="white"/>
<path d="M207.248 126.249C207.248 126.249 212.847 131.646 215.114 138.582C217.07 133.185 219.992 125.622 226.947 117.155C218.534 122.741 215.33 129.751 215.33 129.751C212.986 127.901 210.2 126.694 207.248 126.249Z" fill="white"/>
<path d="M214.743 274.62C214.148 274.616 213.56 274.488 213.017 274.245C212.473 274.003 211.986 273.65 211.585 273.21C210.946 272.494 210.456 271.657 210.144 270.749C209.832 269.841 209.705 268.879 209.771 267.921C209.919 264.238 212.368 261.243 215.235 261.243C215.83 261.249 216.418 261.379 216.961 261.622C217.504 261.866 217.991 262.219 218.392 262.659C219.028 263.372 219.516 264.205 219.826 265.108C220.137 266.012 220.264 266.968 220.2 267.921C220.065 271.625 217.61 274.62 214.743 274.62ZM215.235 261.958C212.746 261.958 210.614 264.656 210.513 267.948C210.45 268.81 210.561 269.675 210.838 270.493C211.115 271.311 211.552 272.065 212.125 272.711C212.46 273.082 212.867 273.379 213.323 273.585C213.778 273.79 214.27 273.899 214.77 273.905C217.259 273.905 219.391 271.207 219.492 267.921C219.554 267.059 219.444 266.193 219.167 265.374C218.89 264.555 218.452 263.799 217.88 263.152C217.545 262.781 217.137 262.484 216.682 262.278C216.227 262.073 215.734 261.964 215.235 261.958Z" fill="white"/>
<path d="M222.724 68.6496C222.448 68.6425 222.176 68.579 221.925 68.463C221.675 68.3469 221.45 68.1809 221.266 67.9749C220.983 67.6581 220.766 67.2877 220.628 66.8856C220.49 66.4836 220.434 66.058 220.464 65.634C220.524 64.0014 221.631 62.6724 222.926 62.6724C223.202 62.6794 223.474 62.743 223.724 62.859C223.975 62.975 224.199 63.1411 224.383 63.347C224.668 63.6631 224.886 64.0332 225.025 64.4353C225.165 64.8375 225.221 65.2634 225.193 65.688C225.132 67.3206 224.019 68.6496 222.724 68.6496ZM222.926 63.4145C222.008 63.4145 221.219 64.4331 221.172 65.688C221.128 66.3491 221.346 67.001 221.779 67.5027C221.898 67.6359 222.044 67.7431 222.206 67.8174C222.369 67.8917 222.545 67.9315 222.724 67.9345C223.641 67.9345 224.43 66.9158 224.478 65.661C224.525 64.9973 224.306 64.3422 223.87 63.8395C223.75 63.7078 223.605 63.6021 223.442 63.529C223.28 63.4559 223.104 63.4169 222.926 63.4145Z" fill="white"/>
<path d="M127.439 83.9165C119.714 82.8843 115.538 87.5662 117.738 96.0598C119.809 104.061 115.802 102.995 115.039 110.571C114.277 118.147 120.524 118.457 122.555 124.644C124.585 130.83 135.804 137.86 140.189 134.689C144.574 131.518 153.277 132.247 154.073 121.777C154.869 111.306 146.585 110.74 149.425 105.019C153.122 97.5979 144.932 99.406 144.932 89.9476C144.952 82.3311 133.909 74.0804 127.439 83.9165Z" fill="#263238"/>
<path d="M117.717 124.226C117.549 127.457 117.252 130.581 116.78 133.758C116.367 137.043 115.646 140.282 114.628 143.432C114.312 144.352 113.91 145.24 113.427 146.084C113.096 146.657 112.69 147.184 112.219 147.649L111.983 147.865L111.855 147.966L111.781 148.026L111.497 148.222L110.937 148.613C109.511 149.529 108.01 150.323 106.451 150.988C103.497 152.285 100.427 153.301 97.2829 154.024L96.1968 151.035C98.8616 149.558 101.594 148.047 104.09 146.482C105.309 145.737 106.481 144.916 107.598 144.026L107.962 143.709L108.151 143.554V143.52C108.151 143.52 108.225 143.392 108.32 143.196C108.56 142.66 108.761 142.108 108.92 141.543C109.303 140.17 109.605 138.776 109.824 137.367C110.081 135.91 110.29 134.419 110.465 132.915C110.809 129.919 111.106 126.843 111.335 123.854L117.717 124.226Z" fill="#FFB573"/>
<path d="M98.1803 151.103L93.0261 149.511L93.9908 155.744C93.9908 155.744 97.364 155.326 98.9898 153.444L98.1803 151.103Z" fill="#FFB573"/>
<path d="M88.8161 153.525L89.0995 154.341C89.2626 154.804 89.5705 155.202 89.9775 155.477C90.3845 155.751 90.869 155.888 91.3595 155.866L93.9906 155.744L93.0258 149.511L90.1317 150.644C89.5831 150.862 89.1398 151.283 88.8947 151.82C88.6495 152.357 88.6213 152.968 88.8161 153.525Z" fill="#FFB573"/>
<path d="M123.81 118.201C123.81 120.151 122.865 123.989 122.062 126.877C121.469 128.955 120.969 130.533 120.969 130.533L119.789 130.236L110.04 127.767C109.885 122.762 110.081 117.257 115.06 113.964C118.197 111.9 123.783 114.733 123.81 118.201Z" fill="#223C6A"/>
<g opacity="0.5">
<path opacity="0.5" d="M123.81 118.201C123.81 120.151 122.865 123.989 122.062 126.877C121.469 128.955 120.969 130.533 120.969 130.533L119.789 130.236L110.04 127.767C109.885 122.762 110.081 117.257 115.06 113.964C118.197 111.9 123.783 114.733 123.81 118.201Z" fill="black"/>
</g>
<path opacity="0.3" d="M123.796 118.538C123.162 117.864 121.718 117.749 118.575 118.747C114.068 120.171 112.807 125.109 112.746 128.455L119.789 130.236L120.396 130.392L120.97 130.533C120.97 130.533 121.219 129.744 121.57 128.543C121.712 128.051 121.887 127.484 122.056 126.877C122.825 124.151 123.715 120.562 123.796 118.538Z" fill="black"/>
<path d="M103.8 274.85L97.8494 272.765L101.587 259.88L107.53 261.971L103.8 274.85Z" fill="#FFB573"/>
<path d="M183.285 259.583L178.448 263.186L168.538 253.14L173.375 249.531L183.285 259.583Z" fill="#FFB573"/>
<path d="M176.464 261.722L181.693 257.397C181.78 257.32 181.893 257.277 182.01 257.277C182.126 257.277 182.239 257.32 182.327 257.397L186.341 261.04C186.439 261.135 186.516 261.249 186.567 261.376C186.618 261.503 186.641 261.639 186.636 261.776C186.63 261.912 186.595 262.046 186.534 262.168C186.473 262.29 186.386 262.398 186.28 262.484C184.432 263.961 183.46 264.582 181.166 266.478C179.75 267.645 176.795 270.438 174.838 272.05C172.882 273.662 171.182 271.821 171.857 270.971C174.852 267.179 175.547 264.683 175.904 262.632C175.978 262.272 176.176 261.95 176.464 261.722Z" fill="#263238"/>
<path d="M97.445 270.91L104.056 273.669C104.173 273.722 104.271 273.81 104.334 273.922C104.397 274.034 104.423 274.163 104.407 274.29L103.658 280.119C103.642 280.257 103.593 280.389 103.516 280.504C103.439 280.62 103.336 280.716 103.216 280.785C103.095 280.854 102.96 280.893 102.821 280.901C102.683 280.908 102.544 280.883 102.417 280.827C100.076 279.876 98.9764 279.404 96.0755 278.189L87.1637 274.479C84.7485 273.467 85.268 270.816 86.3609 271.011C91.2519 271.895 94.4024 271.605 96.3319 270.876C96.6931 270.742 97.0926 270.754 97.445 270.91Z" fill="#263238"/>
<path opacity="0.2" d="M101.587 259.887L99.6646 266.525L105.453 269.143L107.537 261.971L101.587 259.887Z" fill="black"/>
<path opacity="0.2" d="M173.381 249.531L168.538 253.14L173.645 258.322L178.488 254.712L173.381 249.531Z" fill="black"/>
<path d="M142.106 149.706L117.596 150.057C114.223 131.087 113.448 122.026 113.448 117.675C113.444 116.589 113.819 115.537 114.507 114.697C115.195 113.858 116.154 113.284 117.219 113.074C118.716 112.784 120.592 112.447 122.447 112.19C123.088 112.102 123.736 112.022 124.37 111.954C128.069 111.633 131.787 111.579 135.494 111.792C136.048 111.792 136.594 111.839 137.14 111.873C139.623 112.035 141.957 112.352 143.597 112.608C143.899 112.656 144.188 112.766 144.446 112.929C144.705 113.093 144.927 113.308 145.099 113.561C145.272 113.813 145.391 114.099 145.449 114.399C145.507 114.699 145.504 115.008 145.438 115.307C144.723 118.68 144.136 121.642 143.664 124.293C142.915 128.509 142.443 131.916 142.166 134.905C141.751 139.829 141.731 144.779 142.106 149.706Z" fill="#223C6A"/>
<g opacity="0.5">
<path opacity="0.5" d="M142.106 149.706L117.596 150.057C114.223 131.087 113.448 122.026 113.448 117.675C113.444 116.589 113.819 115.537 114.507 114.697C115.195 113.858 116.154 113.284 117.219 113.074C118.716 112.784 120.592 112.447 122.447 112.19C123.088 112.102 123.736 112.022 124.37 111.954C128.069 111.633 131.787 111.579 135.494 111.792C136.048 111.792 136.594 111.839 137.14 111.873C139.623 112.035 141.957 112.352 143.597 112.608C143.899 112.656 144.188 112.766 144.446 112.929C144.705 113.093 144.927 113.308 145.099 113.561C145.272 113.813 145.391 114.099 145.449 114.399C145.507 114.699 145.504 115.008 145.438 115.307C144.723 118.68 144.136 121.642 143.664 124.293C142.915 128.509 142.443 131.916 142.166 134.905C141.751 139.829 141.731 144.779 142.106 149.706Z" fill="black"/>
</g>
<path opacity="0.3" d="M142.166 134.925C140.931 131.228 140.999 123.551 142.328 121.062L143.677 124.313C142.915 128.53 142.443 131.937 142.166 134.925Z" fill="black"/>
<path d="M133.666 104.216C133.551 107.225 133.909 110.348 135.501 111.819C135.501 111.819 132.87 115.253 126.677 118.626C123.398 115.469 124.369 111.981 124.369 111.981C128.35 110.969 128.417 108.318 127.25 103.919L130.407 102.637C130.697 102.382 131.057 102.217 131.44 102.165C131.823 102.113 132.213 102.175 132.561 102.343C132.909 102.512 133.2 102.78 133.396 103.113C133.593 103.446 133.687 103.83 133.666 104.216Z" fill="#FFB573"/>
<path opacity="0.2" d="M130.414 102.637C130.686 102.4 131.018 102.242 131.374 102.181C131.729 102.12 132.095 102.159 132.43 102.292C132.765 102.425 133.057 102.648 133.274 102.936C133.491 103.224 133.624 103.567 133.659 103.926C132.267 106.074 130.232 107.726 127.844 108.648C127.944 107.038 127.742 105.422 127.25 103.885L130.414 102.637Z" fill="black"/>
<path d="M139.367 95.3784C137.235 100.978 136.445 103.386 132.62 105.417C126.906 108.466 120.477 104.621 120.922 98.4952C121.3 92.9835 124.727 84.7597 131.042 84.2335C132.431 84.1091 133.828 84.3422 135.102 84.9108C136.375 85.4793 137.481 86.3643 138.316 87.4815C139.15 88.5987 139.685 89.9109 139.869 91.2932C140.053 92.6755 139.88 94.0819 139.367 95.3784Z" fill="#FFB573"/>
<path d="M128.646 84.2066C124.673 89.8127 136.067 88.4365 135.5 92.3898C135.17 94.7915 131.743 99.2643 137.76 100.101C143.778 100.937 145.269 91.1148 142.173 87.4246C139.076 83.7343 132.552 81.3394 128.646 84.2066Z" fill="#263238"/>
<path d="M129.908 84.038C129.085 86.0619 124.707 88.8346 123.108 88.3219C123.594 85.8999 127.675 83.5995 129.908 84.038Z" fill="#263238"/>
<path d="M139.002 101.093C138.399 102.082 137.429 102.792 136.304 103.069C134.806 103.42 134.125 102.071 134.59 100.688C135.008 99.4532 136.297 97.7733 137.768 98.0364C138.089 98.0985 138.39 98.2401 138.643 98.4484C138.896 98.6566 139.093 98.9249 139.216 99.2287C139.339 99.5325 139.383 99.8623 139.346 100.188C139.309 100.513 139.191 100.824 139.002 101.093Z" fill="#FFB573"/>
<path d="M117.596 150.057C117.596 150.057 113.447 185.731 109.622 207.94C106.627 225.339 99.0576 261.566 99.0576 261.566L108.88 265.047C108.88 265.047 120.133 227.268 122.103 211.158C130.037 187.91 135.737 149.861 135.737 149.861L117.596 150.057Z" fill="#223C6A"/>
<path d="M97.4583 264.015L108.832 268.023L110.35 264.373L98.0182 259.657L97.4583 264.015Z" fill="#263238"/>
<path opacity="0.3" d="M130.016 160.655L126.346 167.692C124.997 172.994 125.321 185.907 127.021 194.063C130.077 181.765 132.519 168.825 134.037 160.143L130.016 160.655Z" fill="black"/>
<path d="M122.919 150.057C122.919 150.057 127.311 189.982 135.508 212.123C139.616 223.248 170.116 256.203 170.116 256.203L176.997 250.698C176.997 250.698 157.656 217.446 149.203 208.756C145.755 189.442 150.086 160.521 142.079 149.693L122.919 150.057Z" fill="#223C6A"/>
<path d="M170.703 258.591L178.772 251.973L176.593 248.398L167.755 256.089L170.703 258.591Z" fill="#263238"/>
<path d="M142.483 148.269L143.617 150.442C143.704 150.61 143.509 150.792 143.225 150.792L117.515 151.163C117.293 151.163 117.11 151.056 117.09 150.921L116.841 148.728C116.841 148.58 117.016 148.445 117.252 148.445L142.078 148.087C142.156 148.08 142.234 148.093 142.305 148.125C142.376 148.157 142.437 148.207 142.483 148.269Z" fill="#263238"/>
<path d="M139.157 151.089H139.832C139.96 151.089 140.061 151.015 140.054 150.934L139.697 148.087C139.697 147.999 139.575 147.939 139.44 147.939H138.766C138.638 147.939 138.536 148.013 138.55 148.094L138.901 150.941C138.907 151.022 139.029 151.089 139.157 151.089Z" fill="#223C6A"/>
<path d="M119.357 151.373H120.032C120.167 151.373 120.261 151.298 120.254 151.217L119.904 148.37C119.904 148.283 119.775 148.215 119.64 148.222H118.966C118.831 148.222 118.73 148.296 118.743 148.377L119.094 151.224C119.107 151.305 119.229 151.373 119.357 151.373Z" fill="#223C6A"/>
<path d="M129.26 151.211H129.935C130.07 151.211 130.171 151.137 130.158 151.056L129.807 148.209C129.807 148.121 129.679 148.054 129.55 148.06H128.876C128.741 148.06 128.646 148.134 128.653 148.215L129.004 151.062C128.99 151.164 129.125 151.211 129.26 151.211Z" fill="#223C6A"/>
<path d="M129.517 94.0089C129.375 94.4744 129.011 94.7713 128.707 94.6836C128.404 94.5958 128.275 94.1371 128.417 93.6716C128.559 93.2061 128.93 92.9025 129.233 92.997C129.537 93.0914 129.665 93.5434 129.517 94.0089Z" fill="#263238"/>
<path d="M124.268 92.3629C124.12 92.8284 123.756 93.1252 123.452 93.0375C123.149 92.9498 123.02 92.491 123.169 92.0255C123.317 91.56 123.675 91.2632 123.978 91.3509C124.282 91.4386 124.41 91.8974 124.268 92.3629Z" fill="#263238"/>
<path d="M124.106 91.4184L123.094 90.7438C123.094 90.7438 123.391 91.7962 124.106 91.4184Z" fill="#263238"/>
<path d="M125.563 93.5907C124.819 94.5224 123.95 95.3466 122.979 96.0396C123.164 96.2822 123.399 96.482 123.668 96.6252C123.937 96.7684 124.234 96.8517 124.538 96.8694L125.563 93.5907Z" fill="#ED893E"/>
<path d="M126.09 99.4464C126.066 99.4291 126.049 99.4047 126.04 99.3767C126.032 99.3487 126.033 99.3187 126.043 99.2912C126.055 99.2551 126.081 99.2251 126.115 99.2075C126.149 99.1899 126.188 99.186 126.225 99.1968C126.798 99.3913 127.409 99.4475 128.008 99.3607C128.607 99.2739 129.178 99.0467 129.672 98.6976C129.687 98.6856 129.704 98.6766 129.722 98.6712C129.74 98.6657 129.759 98.6639 129.777 98.6658C129.796 98.6676 129.814 98.6732 129.831 98.6821C129.848 98.691 129.862 98.7032 129.874 98.7178C129.886 98.7324 129.895 98.7492 129.901 98.7673C129.906 98.7854 129.908 98.8044 129.906 98.8232C129.904 98.842 129.899 98.8602 129.89 98.8769C129.881 98.8935 129.869 98.9082 129.854 98.9202C129.324 99.3024 128.71 99.5521 128.063 99.6484C127.416 99.7446 126.756 99.6846 126.137 99.4734L126.09 99.4464Z" fill="#263238"/>
<path d="M131.534 92.7542C131.495 92.7215 131.465 92.6798 131.446 92.6327C131.336 92.2917 131.147 91.9817 130.894 91.7284C130.64 91.475 130.33 91.2855 129.989 91.1755C129.915 91.1578 129.851 91.1119 129.811 91.0476C129.771 90.9833 129.757 90.9057 129.773 90.8315C129.791 90.7576 129.837 90.6936 129.901 90.6533C129.966 90.6129 130.043 90.5994 130.117 90.6156C130.552 90.7482 130.948 90.9827 131.273 91.2996C131.598 91.6165 131.842 92.0065 131.986 92.4371C132.012 92.5087 132.009 92.5878 131.978 92.6572C131.946 92.7267 131.889 92.7809 131.817 92.8081C131.769 92.8233 131.718 92.8264 131.669 92.817C131.619 92.8075 131.573 92.786 131.534 92.7542Z" fill="#263238"/>
<path d="M122.703 89.3473C122.703 89.3473 122.703 89.3136 122.703 89.3001C122.696 89.2633 122.696 89.2255 122.704 89.1889C122.712 89.1524 122.727 89.1177 122.749 89.087C122.77 89.0563 122.797 89.0301 122.829 89.0099C122.86 88.9897 122.895 88.976 122.932 88.9695C123.377 88.8788 123.837 88.8965 124.274 89.0209C124.711 89.1454 125.111 89.373 125.442 89.6846C125.469 89.711 125.49 89.7425 125.505 89.7772C125.519 89.812 125.527 89.8493 125.527 89.887C125.527 89.9247 125.519 89.962 125.505 89.9968C125.49 90.0315 125.469 90.063 125.442 90.0894C125.388 90.1421 125.315 90.1717 125.239 90.1717C125.164 90.1717 125.091 90.1421 125.037 90.0894C124.769 89.8421 124.444 89.6633 124.092 89.5681C123.74 89.473 123.369 89.4643 123.013 89.5429C122.947 89.5524 122.879 89.5379 122.822 89.5021C122.765 89.4663 122.723 89.4114 122.703 89.3473Z" fill="#263238"/>
<path d="M99.4285 115.995C98.43 114.383 97.5665 111.232 99.2733 109.451C100.98 107.67 102.309 107.164 101.884 104.054C101.459 100.944 106.208 101.032 106.607 98.6571C108.974 100.681 111.484 105.403 110.142 107.569C108.799 109.735 109.521 111.36 109.231 113.985C108.941 116.609 103.206 122.107 99.4285 115.995Z" fill="#223C6A"/>
<path opacity="0.5" d="M99.4285 115.995C98.43 114.383 97.5665 111.232 99.2733 109.451C100.98 107.67 102.309 107.164 101.884 104.054C101.459 100.944 106.208 101.032 106.607 98.6571C108.974 100.681 111.484 105.403 110.142 107.569C108.799 109.735 109.521 111.36 109.231 113.985C108.941 116.609 103.206 122.107 99.4285 115.995Z" fill="white"/>
<path d="M106.802 103.656C105.656 110.861 103.544 119.274 100.515 125.528C101.252 125.468 101.943 125.147 102.465 124.624C102.465 124.624 107.261 111.597 106.802 103.656Z" fill="#223C6A"/>
<path d="M97.155 119.537C95.6371 118.403 93.6807 115.793 94.6049 113.506C95.5292 111.219 96.5883 110.261 95.0434 107.522C93.4985 104.783 97.9578 103.11 97.4518 100.775C100.413 101.814 104.481 105.275 104.016 107.758C103.55 110.24 104.832 111.515 105.527 114.059C106.222 116.602 102.923 123.827 97.155 119.537Z" fill="#223C6A"/>
<path opacity="0.6" d="M97.155 119.537C95.6371 118.403 93.6807 115.793 94.6049 113.506C95.5292 111.219 96.5883 110.261 95.0434 107.522C93.4985 104.783 97.9578 103.11 97.4518 100.775C100.413 101.814 104.481 105.275 104.016 107.758C103.55 110.24 104.832 111.515 105.527 114.059C106.222 116.602 102.923 123.827 97.155 119.537Z" fill="white"/>
<path d="M107.996 121.709C109.588 121.595 112.172 120.63 112.557 118.579C112.941 116.528 112.624 115.368 114.972 114.12C117.32 112.872 114.904 109.66 116.321 108.23C113.744 107.623 109.278 108.23 108.468 110.214C107.659 112.197 106.181 112.507 104.529 114.005C102.876 115.503 101.938 122.141 107.996 121.709Z" fill="#223C6A"/>
<path opacity="0.7" d="M107.996 121.709C109.588 121.595 112.172 120.63 112.557 118.579C112.941 116.528 112.624 115.368 114.972 114.12C117.32 112.872 114.904 109.66 116.321 108.23C113.744 107.623 109.278 108.23 108.468 110.214C107.659 112.197 106.181 112.507 104.529 114.005C102.876 115.503 101.938 122.141 107.996 121.709Z" fill="white"/>
<path d="M99.1248 108.297C100.332 114.605 100.913 122.114 99.7994 127.97C100.519 127.826 101.16 127.423 101.601 126.836C101.601 126.836 102.309 114.929 99.1248 108.297Z" fill="#223C6A"/>
<path d="M111.734 111.745C107.511 116.373 102.997 122.289 100.427 127.673C100.074 127.145 99.9189 126.509 99.9884 125.878C99.9884 125.878 106.161 115.685 111.734 111.745Z" fill="#223C6A"/>
<path d="M92.6825 118.073C90.7733 117.027 87.0021 119.948 88.9855 123.342C90.9689 126.735 95.0572 128.307 96.9461 126.486C99.5502 126.02 100.684 121.81 99.1184 118.208C97.5533 114.605 92.9726 115.914 92.6825 118.073Z" fill="#223C6A"/>
<path d="M92.6823 118.073C92.6823 118.073 92.0077 115.88 93.1208 115.179C93.2716 115.368 93.4113 115.567 93.5391 115.773C93.5391 115.773 92.7835 115.982 92.6823 118.073Z" fill="#263238"/>
<path d="M114.264 112.352C114.034 116.987 109.271 120.508 104.097 121.642C103.779 121.969 103.547 122.37 103.422 122.809C103.379 122.909 103.371 123.022 103.401 123.128C103.43 123.233 103.495 123.325 103.584 123.389C103.977 123.714 104.438 123.945 104.934 124.064C107.667 124.13 110.331 123.205 112.435 121.46C115.134 119.395 117.596 115.307 116.82 113.411C116.045 111.516 115.431 112.15 115.134 110.713C114.969 110.13 114.898 109.524 114.925 108.918C114.925 108.918 114.25 109.235 114.081 109.647C114.304 110.227 114.338 110.841 114.264 112.352Z" fill="#223C6A"/>
<path opacity="0.2" d="M116.847 113.431C116.67 112.923 116.38 112.461 115.997 112.082C116.051 113.607 115.66 115.455 113.973 118.154C112.212 120.974 107.49 123.483 103.415 123.234C103.448 123.299 103.496 123.355 103.557 123.396C103.949 123.721 104.411 123.952 104.906 124.07C107.639 124.137 110.304 123.212 112.408 121.466C115.113 119.422 117.596 115.334 116.847 113.431Z" fill="black"/>
<path d="M114.277 110.598C114.178 110.25 114.061 109.908 113.927 109.573C114.203 109.215 114.578 108.945 115.006 108.797V109.91C115.006 109.91 114.635 110.551 114.277 110.598Z" fill="#263238"/>
<path d="M103.584 122.35C103.481 122.464 103.384 122.583 103.294 122.708C103.248 122.842 103.245 122.987 103.286 123.123C103.328 123.258 103.41 123.377 103.523 123.463C103.565 123.507 103.615 123.542 103.671 123.567C103.726 123.591 103.786 123.604 103.847 123.605C103.715 123.398 103.619 123.17 103.564 122.93C103.559 122.737 103.566 122.543 103.584 122.35Z" fill="#263238"/>
<path d="M117.974 114.443C116.78 118.923 111.39 121.372 106.087 121.399C105.7 121.645 105.381 121.987 105.163 122.391C105.094 122.477 105.056 122.584 105.056 122.694C105.056 122.805 105.094 122.912 105.163 122.998C105.482 123.413 105.896 123.746 106.37 123.969C106.91 124.111 110.101 124.995 114.25 122.998C117.293 121.527 120.578 118.053 120.22 116.042C119.863 114.032 119.121 114.518 119.134 113.061C119.089 112.457 119.146 111.85 119.303 111.266C118.934 111.347 118.595 111.529 118.325 111.792C118.453 112.366 118.358 112.98 117.974 114.443Z" fill="#223C6A"/>
<path opacity="0.2" d="M120.254 116.042C120.189 115.504 120.003 114.987 119.708 114.531C119.438 116.036 118.669 117.783 116.476 120.043C114.169 122.431 109.056 123.908 105.095 122.809C105.114 122.879 105.148 122.944 105.197 122.998C105.518 123.411 105.932 123.743 106.404 123.969C106.944 124.111 110.135 124.988 114.284 122.991C117.326 121.527 120.612 118.053 120.254 116.042Z" fill="black"/>
<path d="M118.352 112.757C118.352 112.757 118.291 111.968 118.224 111.684C118.57 111.395 118.991 111.21 119.438 111.151L119.195 112.237C119.195 112.237 118.71 112.757 118.352 112.757Z" fill="#263238"/>
<path d="M105.439 121.986C105.439 121.986 105.203 122.161 105.082 122.276C105.01 122.397 104.978 122.538 104.99 122.678C105.002 122.818 105.058 122.951 105.149 123.058C105.311 123.261 105.439 123.268 105.439 123.268C105.352 123.039 105.304 122.797 105.298 122.552C105.338 122.323 105.439 121.986 105.439 121.986Z" fill="#263238"/>
<path d="M121.106 119.467L88.176 123.989L93.2383 160.849L126.168 156.326L121.106 119.467Z" fill="#223C6A"/>
<path opacity="0.8" d="M121.106 119.467L88.176 123.989L93.2383 160.849L126.168 156.326L121.106 119.467Z" fill="white"/>
<path opacity="0.2" d="M121.106 119.469L111.388 120.804L116.45 157.663L126.168 156.329L121.106 119.469Z" fill="#223C6A"/>
<path opacity="0.2" d="M126.178 156.324L120.828 153.45L116.254 120.137L121.111 119.469L126.178 156.324Z" fill="#223C6A"/>
<path opacity="0.3" d="M120.828 153.451L116.456 157.66L126.178 156.324L120.828 153.451Z" fill="#223C6A"/>
<path d="M131.487 151.157L126.467 149.187L126.96 155.474C126.96 155.474 130.333 155.312 132.121 153.552L131.487 151.157Z" fill="#FFB573"/>
<path d="M147.321 119.82C148.67 123.598 149.83 127.349 150.829 131.235C151.328 133.171 151.8 135.121 152.178 137.145C152.36 138.15 152.522 139.169 152.643 140.234C152.777 141.354 152.825 142.481 152.785 143.608C152.762 144.338 152.649 145.063 152.448 145.766C152.174 146.632 151.713 147.426 151.099 148.094C150.199 149.054 149.131 149.84 147.948 150.415C146.013 151.356 143.976 152.069 141.876 152.54C137.949 153.451 133.944 153.986 129.915 154.139L129.524 150.981C131.359 150.543 133.241 150.057 135.069 149.544C136.898 149.032 138.719 148.465 140.466 147.824C142.134 147.253 143.74 146.519 145.263 145.631C145.817 145.308 146.312 144.892 146.727 144.404C146.835 144.235 146.835 144.188 146.815 144.188C146.832 143.941 146.832 143.693 146.815 143.446C146.784 142.631 146.699 141.82 146.558 141.017C146.423 140.14 146.241 139.243 146.039 138.319C145.614 136.517 145.148 134.682 144.622 132.847C143.57 129.204 142.389 125.501 141.202 121.905L147.321 119.82Z" fill="#FFB573"/>
<path d="M121.813 152.29L122.204 153.747C122.329 154.21 122.6 154.621 122.977 154.917C123.354 155.214 123.816 155.381 124.295 155.393L126.994 155.467L126.501 149.18L123.749 149.497C123.427 149.529 123.117 149.631 122.838 149.795C122.56 149.959 122.32 150.181 122.136 150.447C121.952 150.712 121.828 151.015 121.772 151.333C121.716 151.651 121.73 151.978 121.813 152.29Z" fill="#FFB573"/>
<path d="M144.46 112.791C147.28 113.937 149.587 123.207 149.587 123.207L141.795 129.279C141.795 129.279 136.277 120.636 137.403 116.886C138.361 113.722 140.871 111.34 144.46 112.791Z" fill="#223C6A"/>
<g opacity="0.5">
<path opacity="0.5" d="M144.46 112.791C147.28 113.937 149.587 123.207 149.587 123.207L141.795 129.279C141.795 129.279 136.277 120.636 137.403 116.886C138.361 113.722 140.871 111.34 144.46 112.791Z" fill="black"/>
</g>
<path d="M174.555 264.339H174.454C174.313 264.331 174.177 264.287 174.058 264.21C173.94 264.133 173.844 264.026 173.779 263.901C173.73 263.829 173.7 263.746 173.693 263.66C173.686 263.573 173.702 263.487 173.739 263.408C174.083 262.734 176.248 262.464 176.491 262.437C176.52 262.432 176.549 262.437 176.574 262.451C176.6 262.464 176.62 262.485 176.633 262.511C176.648 262.534 176.656 262.561 176.656 262.589C176.656 262.616 176.648 262.643 176.633 262.666C176.174 263.28 175.297 264.285 174.555 264.339ZM176.194 262.767C175.331 262.895 174.171 263.172 174.009 263.536C173.988 263.569 173.977 263.606 173.977 263.644C173.977 263.683 173.988 263.72 174.009 263.752C174.048 263.837 174.109 263.909 174.187 263.962C174.264 264.014 174.354 264.044 174.447 264.049C174.865 264.069 175.54 263.597 176.215 262.767H176.194Z" fill="#263238"/>
<path d="M176.39 262.74C175.655 262.788 174.198 262.484 173.887 261.917C173.835 261.816 173.818 261.701 173.84 261.589C173.862 261.477 173.922 261.377 174.009 261.303C174.084 261.224 174.175 261.161 174.276 261.12C174.378 261.079 174.487 261.061 174.596 261.067C175.473 261.067 176.586 262.417 176.62 262.491C176.633 262.511 176.64 262.534 176.64 262.558C176.64 262.582 176.633 262.606 176.62 262.626C176.613 262.65 176.599 262.673 176.58 262.689C176.561 262.706 176.537 262.717 176.512 262.72L176.39 262.74ZM174.528 261.351C174.41 261.361 174.3 261.413 174.218 261.499C174.09 261.634 174.11 261.722 174.144 261.782C174.339 262.153 175.493 262.457 176.228 262.457C175.83 262.032 175.109 261.364 174.589 261.344L174.528 261.351Z" fill="#263238"/>
<path d="M94.0582 270.775C93.5969 270.621 93.1926 270.332 92.8979 269.946C92.8286 269.83 92.7865 269.7 92.7748 269.565C92.7631 269.431 92.7821 269.296 92.8304 269.17C92.8527 269.098 92.8938 269.033 92.9496 268.982C93.0053 268.931 93.0736 268.895 93.1475 268.88C93.9166 268.731 95.7381 270.688 96.0956 271.086C96.1122 271.109 96.121 271.138 96.121 271.167C96.121 271.196 96.1122 271.224 96.0956 271.248C96.0807 271.274 96.0577 271.296 96.0299 271.309C96.0021 271.323 95.9708 271.327 95.9405 271.322C95.2966 271.202 94.6662 271.019 94.0582 270.775ZM93.4848 269.197C93.3971 269.153 93.2991 269.134 93.2014 269.143C93.2014 269.143 93.1272 269.143 93.1003 269.244C93.0658 269.331 93.0521 269.426 93.0603 269.519C93.0685 269.613 93.0984 269.703 93.1475 269.784C93.4106 270.236 94.3078 270.661 95.5829 270.937C94.9758 270.254 94.2684 269.667 93.4848 269.197Z" fill="#263238"/>
<path d="M95.9336 271.295C95.9153 271.287 95.8991 271.276 95.8864 271.261C95.2657 270.647 94.2672 268.812 94.6113 268.225C94.6923 268.097 94.8542 267.962 95.2117 268.063C96.561 268.455 96.1495 271.072 96.1292 271.187C96.1256 271.213 96.1139 271.237 96.0958 271.257C96.0777 271.276 96.054 271.289 96.028 271.295C96.0132 271.301 95.9971 271.305 95.9808 271.305C95.9645 271.305 95.9484 271.301 95.9336 271.295ZM95.259 268.367H95.1645C95.0228 268.326 94.9284 268.333 94.8947 268.367C94.6923 268.711 95.3332 270.094 95.9201 270.829C95.9336 270.182 96.0145 268.697 95.259 268.367Z" fill="#263238"/>
<path d="M129.362 93.0645L128.343 92.3899C128.343 92.3899 128.647 93.4423 129.362 93.0645Z" fill="#263238"/>
</g>
<defs>
<clipPath id="clip0_1_2484">
<rect width="337.314" height="337.314" fill="white" transform="translate(0.136719 0.09375)"/>
</clipPath>
</defs>
</svg>
