<svg width="24" height="24" viewBox="0 0 24 24" fill="none" xmlns="http://www.w3.org/2000/svg">
<g clip-path="url(#clip0_154_0)">
<path d="M12.375 14.5718C13.02 14.4041 13.5 13.8221 13.5 13.125C13.5 12.2977 12.8273 11.625 12 11.625C11.5864 11.625 11.25 11.2886 11.25 10.875C11.25 10.4614 11.5864 10.125 12 10.125C12.4136 10.125 12.75 10.4614 12.75 10.875H13.5C13.5 10.1779 13.02 9.59588 12.375 9.42825V8.625H11.625V9.42825C10.98 9.59588 10.5 10.1779 10.5 10.875C10.5 11.7023 11.1727 12.375 12 12.375C12.4136 12.375 12.75 12.7114 12.75 13.125C12.75 13.5386 12.4136 13.875 12 13.875C11.5864 13.875 11.25 13.5386 11.25 13.125H10.5C10.5 13.8221 10.98 14.4041 11.625 14.5718V15.375H12.375V14.5718Z" fill="#F58634"/>
<path d="M12 7.125C9.312 7.125 7.125 9.312 7.125 12H7.875C7.875 9.72563 9.72563 7.875 12 7.875V7.125Z" fill="#F58634"/>
<path d="M16.125 12C16.125 14.2744 14.2744 16.125 12 16.125V16.875C14.688 16.875 16.875 14.688 16.875 12H16.125Z" fill="#F58634"/>
<path d="M8.09997 3.06152C6.92435 3.5749 5.87472 4.30577 4.98035 5.23352L5.51997 5.7544C6.3461 4.8979 7.3151 4.2229 8.40035 3.74852L8.09997 3.06152Z" fill="#F58634"/>
<path d="M9.66039 2.53271C9.39639 2.59759 9.13389 2.67409 8.87964 2.75997L9.12039 3.47059C9.35439 3.39147 9.59664 3.32097 9.83964 3.26059L9.66039 2.53271Z" fill="#F58634"/>
<path d="M11.2208 2.28076C10.9647 2.30101 10.7022 2.33251 10.4408 2.37414L10.5593 3.11476C10.8008 3.07576 11.043 3.04689 11.2793 3.02889L11.2208 2.28076Z" fill="#F58634"/>
<path d="M12 1.125C14.9051 1.125 17.6359 2.25638 19.6898 4.31025C19.8304 4.45088 20.0794 4.45088 20.22 4.31025L21 3.53025V6.375H18.1553L18.8944 5.63588C19.041 5.48925 19.041 5.25225 18.8944 5.10563C17.0527 3.264 14.6044 2.25 12 2.25V3C14.2785 3 16.428 3.84113 18.0934 5.37638L16.9849 6.48487C16.8776 6.59212 16.8454 6.75337 16.9035 6.89362C16.9616 7.03387 17.0985 7.125 17.25 7.125H21.375C21.582 7.125 21.75 6.95738 21.75 6.75V2.625C21.75 2.4735 21.6585 2.33625 21.5186 2.2785C21.3776 2.21963 21.2171 2.25225 21.1099 2.35988L19.9508 3.519C17.7889 1.48875 14.9801 0.375 12 0.375C5.59013 0.375 0.375 5.58975 0.375 12H1.125C1.125 6.00375 6.00338 1.125 12 1.125Z" fill="#F58634"/>
<path d="M19.02 18.7665L18.4804 18.2456C17.6542 19.1021 16.6852 19.7771 15.6 20.2515L15.9004 20.9385C17.076 20.4251 18.1252 19.6942 19.02 18.7665Z" fill="#F58634"/>
<path d="M14.3396 21.4672C14.6036 21.4023 14.8661 21.3258 15.1204 21.2399L14.8797 20.5293C14.6457 20.6084 14.4034 20.6789 14.1604 20.7393L14.3396 21.4672Z" fill="#F58634"/>
<path d="M12.7793 21.7193C13.0354 21.699 13.298 21.6675 13.5593 21.6259L13.4408 20.8853C13.1993 20.9243 12.9571 20.9531 12.7208 20.9711L12.7793 21.7193Z" fill="#F58634"/>
<path d="M22.875 12C22.875 17.9963 17.9966 22.875 12 22.875C9.09487 22.875 6.36413 21.7436 4.31025 19.6898C4.16963 19.5491 3.92062 19.5491 3.78 19.6898L3 20.4697V17.625H5.84475L5.10562 18.3641C4.959 18.5108 4.959 18.7477 5.10562 18.8944C6.94725 20.736 9.39563 21.75 12 21.75V21C9.7215 21 7.572 20.1589 5.90663 18.6236L7.01513 17.5151C7.12238 17.4079 7.15462 17.2466 7.0965 17.1064C7.03837 16.9661 6.9015 16.875 6.75 16.875H2.625C2.418 16.875 2.25 17.0426 2.25 17.25V21.375C2.25 21.5265 2.3415 21.6637 2.48138 21.7215C2.62163 21.78 2.78287 21.7474 2.89012 21.6401L4.04925 20.481C6.21113 22.5113 9.01988 23.625 12 23.625C18.4099 23.625 23.625 18.4102 23.625 12H22.875Z" fill="#F58634"/>
<path d="M18.375 12C18.375 8.48475 15.5153 5.625 12 5.625C8.48475 5.625 5.625 8.48475 5.625 12C5.625 15.5153 8.48475 18.375 12 18.375C15.5153 18.375 18.375 15.5153 18.375 12ZM12 17.625C8.89838 17.625 6.375 15.1016 6.375 12C6.375 8.89838 8.89838 6.375 12 6.375C15.1016 6.375 17.625 8.89838 17.625 12C17.625 15.1016 15.1016 17.625 12 17.625Z" fill="#F58634"/>
</g>
<defs>
<clipPath id="clip0_154_0">
<rect width="24" height="24" fill="white"/>
</clipPath>
</defs>
</svg>
