<svg width="249" height="250" viewBox="0 0 249 250" fill="none" xmlns="http://www.w3.org/2000/svg">
<g clip-path="url(#clip0_713_500)">
<path d="M249 198.865H0.780273V198.989H249V198.865Z" fill="#EBEBEB"/>
<path d="M217.064 206.861H207.687V206.985H217.064V206.861Z" fill="#EBEBEB"/>
<path d="M160.892 205.996H146.262V206.12H160.892V205.996Z" fill="#EBEBEB"/>
<path d="M207.19 202.249H183.803V202.373H207.19V202.249Z" fill="#EBEBEB"/>
<path d="M32.2697 203.084H26.8237V203.208H32.2697V203.084Z" fill="#EBEBEB"/>
<path d="M55.8302 203.084H36.6875V203.208H55.8302V203.084Z" fill="#EBEBEB"/>
<path d="M112.554 205.181H85.6714V205.305H112.554V205.181Z" fill="#EBEBEB"/>
<path d="M118.436 167.466H22.5787C21.8278 167.465 21.1081 167.165 20.5775 166.633C20.047 166.101 19.749 165.38 19.749 164.628V29.7357C19.7556 28.9883 20.0564 28.2736 20.5862 27.7469C21.1161 27.2203 21.8321 26.9241 22.5787 26.9229H118.436C118.809 26.9229 119.177 26.9963 119.521 27.1389C119.865 27.2815 120.178 27.4905 120.441 27.754C120.704 28.0175 120.913 28.3303 121.055 28.6746C121.198 29.0189 121.271 29.3879 121.271 29.7605V164.638C121.268 165.389 120.969 166.108 120.437 166.638C119.906 167.168 119.186 167.466 118.436 167.466ZM22.5787 27.0222C21.8607 27.0236 21.1725 27.31 20.6653 27.8188C20.158 28.3275 19.8731 29.0169 19.8731 29.7357V164.638C19.8725 164.994 19.942 165.347 20.0777 165.676C20.2133 166.005 20.4125 166.305 20.6638 166.557C20.9151 166.809 21.2136 167.009 21.5422 167.145C21.8708 167.281 22.223 167.352 22.5787 167.352H118.436C119.155 167.35 119.844 167.064 120.352 166.555C120.86 166.047 121.146 165.357 121.147 164.638V29.7357C121.144 29.0169 120.858 28.3282 120.35 27.8199C119.842 27.3116 119.154 27.0249 118.436 27.0222H22.5787Z" fill="#EBEBEB"/>
<path d="M225.821 167.466H129.959C129.209 167.466 128.489 167.168 127.958 166.638C127.426 166.108 127.127 165.389 127.124 164.638V29.7357C127.132 28.9878 127.434 28.2732 127.964 27.7466C128.495 27.2201 129.212 26.9241 129.959 26.9229H225.821C226.567 26.9267 227.281 27.2239 227.809 27.7501C228.338 28.2764 228.638 28.9895 228.646 29.7357V164.638C228.645 165.388 228.347 166.106 227.817 166.636C227.288 167.166 226.57 167.465 225.821 167.466ZM129.959 27.0222C129.241 27.0249 128.553 27.3116 128.045 27.8199C127.537 28.3282 127.251 29.0169 127.248 29.7357V164.638C127.249 165.357 127.535 166.047 128.043 166.555C128.552 167.064 129.24 167.35 129.959 167.352H225.821C226.54 167.35 227.228 167.064 227.736 166.555C228.245 166.047 228.531 165.357 228.532 164.638V29.7357C228.529 29.0169 228.243 28.3282 227.735 27.8199C227.227 27.3116 226.539 27.0249 225.821 27.0222H129.959Z" fill="#EBEBEB"/>
<path d="M217.064 206.861H207.687V206.985H217.064V206.861Z" fill="#EBEBEB"/>
<path d="M160.892 205.996H146.262V206.12H160.892V205.996Z" fill="#EBEBEB"/>
<path d="M207.19 202.249H183.803V202.373H207.19V202.249Z" fill="#EBEBEB"/>
<path d="M32.2697 203.084H26.8237V203.208H32.2697V203.084Z" fill="#EBEBEB"/>
<path d="M55.8302 203.084H36.6875V203.208H55.8302V203.084Z" fill="#EBEBEB"/>
<path d="M112.554 205.181H85.6714V205.305H112.554V205.181Z" fill="#EBEBEB"/>
<path d="M209.29 199.565C211.135 199.565 212.631 198.068 212.631 196.221C212.631 194.373 211.135 192.876 209.29 192.876C207.445 192.876 205.949 194.373 205.949 196.221C205.949 198.068 207.445 199.565 209.29 199.565Z" fill="#E0E0E0"/>
<path d="M205.949 199.565C207.794 199.565 209.29 198.068 209.29 196.221C209.29 194.373 207.794 192.876 205.949 192.876C204.104 192.876 202.608 194.373 202.608 196.221C202.608 198.068 204.104 199.565 205.949 199.565Z" fill="#EBEBEB"/>
<path d="M164.457 199.565C166.302 199.565 167.798 198.068 167.798 196.221C167.798 194.373 166.302 192.876 164.457 192.876C162.612 192.876 161.116 194.373 161.116 196.221C161.116 198.068 162.612 199.565 164.457 199.565Z" fill="#E0E0E0"/>
<path d="M208.967 119.32H152.631V193.552H208.967V119.32Z" fill="#EBEBEB"/>
<path d="M212.631 119.32H163.553V193.552H212.631V119.32Z" fill="#F5F5F5"/>
<path d="M208.585 123.161H167.991V189.795H208.585V123.161Z" stroke="#E0E0E0" stroke-width="2" stroke-miterlimit="10"/>
<path d="M167.991 144.382H208.967" stroke="#E0E0E0" stroke-width="2" stroke-miterlimit="10"/>
<path d="M167.991 167.56H208.967" stroke="#E0E0E0" stroke-width="2" stroke-miterlimit="10"/>
<path d="M196.978 125.949H181.901V127.748H196.978V125.949Z" fill="#F9F9F9"/>
<path d="M196.978 147.289H181.901V149.088H196.978V147.289Z" fill="#F9F9F9"/>
<path d="M196.978 171.208H181.901V173.007H196.978V171.208Z" fill="#F9F9F9"/>
<path d="M161.115 199.565C162.961 199.565 164.457 198.068 164.457 196.221C164.457 194.373 162.961 192.876 161.115 192.876C159.27 192.876 157.774 194.373 157.774 196.221C157.774 198.068 159.27 199.565 161.115 199.565Z" fill="#EBEBEB"/>
<path d="M151.733 47.0352H49.3569V117.744H151.733V47.0352Z" fill="#EBEBEB"/>
<path d="M153.724 47.0352H151.733V117.744H153.724V47.0352Z" fill="#E0E0E0"/>
<path d="M149.653 54.1619H52.1919V114.241H149.653V54.1619Z" fill="#F5F5F5"/>
<path d="M99.4183 114.24H90.5965L65.2036 54.0674H74.0254L99.4183 114.24Z" fill="#F9F9F9"/>
<path d="M119.137 114.24H103.151L77.7583 54.0674H93.7536L119.137 114.24Z" fill="#F9F9F9"/>
<path d="M142.862 114.26H134.035L108.652 54.0923H117.469L142.862 114.26Z" fill="#F9F9F9"/>
<path opacity="0.3" d="M153.729 43.4172H49.3569V72.9522H153.729V43.4172Z" fill="#E0E0E0" stroke="#F0F0F0" stroke-miterlimit="10"/>
<path d="M153.431 66.7898H49.3569V67.7032H153.431V66.7898Z" fill="#F9F9F9"/>
<path d="M153.431 62.5605H49.3569V63.474H153.431V62.5605Z" fill="#F9F9F9"/>
<path d="M153.431 58.3264H49.3569V59.2399H153.431V58.3264Z" fill="#F9F9F9"/>
<path d="M153.431 54.0972H49.3569V55.0106H153.431V54.0972Z" fill="#F9F9F9"/>
<path d="M153.431 49.863H49.3569V50.7765H153.431V49.863Z" fill="#F9F9F9"/>
<path d="M155.654 42.1501H48.1206V43.3926H155.654V42.1501Z" fill="#E0E0E0"/>
<path d="M48.826 42.7713C48.826 43.8796 48.1756 44.7592 47.3813 44.7592C46.587 44.7592 45.9565 43.8746 45.9565 42.7713C45.9565 41.6681 46.6069 40.7834 47.4061 40.7834C48.2054 40.7834 48.826 41.6581 48.826 42.7713Z" fill="#E0E0E0"/>
<path d="M157.099 42.7713C157.099 43.8796 156.449 44.7592 155.655 44.7592C154.86 44.7592 154.205 43.8597 154.205 42.7713C154.205 41.683 154.855 40.7834 155.655 40.7834C156.454 40.7834 157.099 41.6581 157.099 42.7713Z" fill="#E0E0E0"/>
<path d="M122.582 225.453C166.294 225.453 201.729 222.68 201.729 219.26C201.729 215.84 166.294 213.068 122.582 213.068C78.8701 213.068 43.4346 215.84 43.4346 219.26C43.4346 222.68 78.8701 225.453 122.582 225.453Z" fill="#F5F5F5"/>
<path d="M197.823 80.9436L187.244 113.982C187.123 114.361 186.906 114.702 186.614 114.972C186.322 115.241 185.965 115.43 185.579 115.521C185.192 115.611 184.788 115.599 184.407 115.486C184.027 115.373 183.682 115.163 183.406 114.877L177.906 109.176C177.49 108.748 176.924 108.498 176.328 108.478C175.732 108.459 175.151 108.672 174.708 109.072L128.773 150.818C128.363 151.19 127.832 151.401 127.278 151.413C126.725 151.425 126.185 151.237 125.759 150.882L96.5936 126.605C96.1721 126.258 95.6409 126.072 95.0952 126.082C94.5494 126.091 94.0247 126.294 93.615 126.655L36.3208 177.485L38.4952 157.109C38.551 156.534 38.8224 156.001 39.2548 155.618L93.3221 107.651C93.7329 107.291 94.2577 107.09 94.8032 107.081C95.3487 107.073 95.8793 107.259 96.3007 107.606L125.347 131.838C125.773 132.193 126.313 132.381 126.866 132.369C127.42 132.358 127.951 132.146 128.361 131.774L164.601 98.8196C164.829 98.6126 165.013 98.3618 165.142 98.0821C165.271 97.8025 165.342 97.4997 165.352 97.1918C165.362 96.8839 165.31 96.5771 165.198 96.2899C165.087 96.0026 164.92 95.7407 164.705 95.5197L159.294 89.884C159.011 89.5914 158.811 89.2288 158.714 88.8333C158.616 88.4378 158.626 88.0235 158.741 87.6329C158.856 87.2422 159.073 86.8892 159.369 86.6097C159.665 86.3303 160.03 86.1346 160.426 86.0425L195.117 78.0015C195.513 77.9087 195.926 77.9227 196.314 78.0423C196.703 78.1618 197.053 78.3825 197.328 78.6818C197.603 78.9811 197.794 79.3483 197.881 79.7457C197.968 80.1431 197.948 80.5565 197.823 80.9436Z" fill="#223C6A"/>
<path opacity="0.1" d="M197.808 80.9983L187.263 113.947C187.139 114.331 186.918 114.676 186.622 114.949C186.325 115.221 185.963 115.412 185.571 115.503C185.178 115.595 184.769 115.582 184.383 115.468C183.996 115.354 183.646 115.142 183.366 114.852L177.906 109.216C177.484 108.78 176.91 108.525 176.304 108.505C175.699 108.485 175.109 108.7 174.659 109.107L128.773 150.818C128.32 151.231 127.722 151.449 127.11 151.424C126.596 151.407 126.103 151.218 125.71 150.887L96.6085 126.64C96.1785 126.287 95.6374 126.097 95.0812 126.106C94.525 126.114 93.9897 126.319 93.5703 126.685L36.3208 177.485L38.5895 156.249L93.3022 107.71C93.7207 107.343 94.2564 107.136 94.8131 107.128C95.3698 107.12 95.9113 107.311 96.3404 107.666L108.707 117.968L125.323 131.838C125.756 132.196 126.302 132.386 126.864 132.374C127.425 132.363 127.963 132.149 128.381 131.774L164.606 98.8395C164.838 98.63 165.026 98.3757 165.157 98.0919C165.289 97.8082 165.362 97.5007 165.372 97.188C165.382 96.8752 165.329 96.5637 165.217 96.2719C165.104 95.9801 164.933 95.7142 164.715 95.4899L159.349 89.9288C159.062 89.6315 158.86 89.2634 158.762 88.8622C158.664 88.461 158.674 88.041 158.791 87.6449C158.908 87.2489 159.128 86.891 159.428 86.6078C159.729 86.3245 160.098 86.1261 160.5 86.0326L195.072 78.0115C195.473 77.9213 195.89 77.9386 196.282 78.0616C196.674 78.1845 197.027 78.4089 197.304 78.7119C197.582 79.0149 197.774 79.3859 197.863 79.7873C197.951 80.1888 197.932 80.6065 197.808 80.9983Z" fill="black"/>
<path d="M137.952 204.913H95.6006V214.534H137.952V204.913Z" fill="#223C6A"/>
<path opacity="0.2" d="M100.962 204.913H99.8154V214.534H100.962V204.913Z" fill="black"/>
<path opacity="0.2" d="M106.855 204.913H105.708V214.534H106.855V204.913Z" fill="black"/>
<path opacity="0.2" d="M112.743 214.534H111.596V204.913L112.743 205.082V214.534Z" fill="black"/>
<path opacity="0.2" d="M118.636 204.913H117.489V214.534H118.636V204.913Z" fill="black"/>
<path opacity="0.2" d="M124.528 204.913H123.381V214.534H124.528V204.913Z" fill="black"/>
<path opacity="0.2" d="M130.416 204.913H129.269V214.534H130.416V204.913Z" fill="black"/>
<path opacity="0.2" d="M136.309 204.913H135.162V214.534H136.309V204.913Z" fill="black"/>
<path opacity="0.09" d="M137.952 204.913H95.6006V206.895H137.952V204.913Z" fill="black"/>
<path d="M144.554 195.286H102.203V204.908H144.554V195.286Z" fill="#223C6A"/>
<path opacity="0.2" d="M107.565 195.286H106.418V204.908H107.565V195.286Z" fill="black"/>
<path opacity="0.2" d="M113.457 195.286H112.311V204.908H113.457V195.286Z" fill="black"/>
<path opacity="0.2" d="M119.35 195.286H118.204V204.908H119.35V195.286Z" fill="black"/>
<path opacity="0.2" d="M125.238 195.286H124.091V204.908H125.238V195.286Z" fill="black"/>
<path opacity="0.2" d="M131.131 195.286H129.984V204.908H131.131V195.286Z" fill="black"/>
<path opacity="0.2" d="M137.019 195.286H135.872V204.908H137.019V195.286Z" fill="black"/>
<path opacity="0.2" d="M142.911 195.286H141.765V204.908H142.911V195.286Z" fill="black"/>
<path opacity="0.09" d="M144.554 195.286H102.203V197.269H144.554V195.286Z" fill="black"/>
<path d="M138.667 185.665H96.3159V195.286H138.667V185.665Z" fill="#223C6A"/>
<path opacity="0.2" d="M101.677 185.665H100.53V195.286H101.677V185.665Z" fill="black"/>
<path opacity="0.2" d="M107.565 195.291H106.418V185.675L107.565 185.665V195.291Z" fill="black"/>
<path opacity="0.2" d="M113.457 185.665H112.311V195.286H113.457V185.665Z" fill="black"/>
<path opacity="0.2" d="M119.35 185.665H118.204V195.286H119.35V185.665Z" fill="black"/>
<path opacity="0.2" d="M125.238 195.291H124.091V185.665L125.238 185.675V195.291Z" fill="black"/>
<path opacity="0.2" d="M131.131 185.665H129.984V195.286H131.131V185.665Z" fill="black"/>
<path opacity="0.2" d="M137.019 185.665H135.872V195.286H137.019V185.665Z" fill="black"/>
<path opacity="0.09" d="M138.667 185.665H96.3159V188.036H138.667V185.665Z" fill="black"/>
<path d="M144.554 176.049H102.203V185.67H144.554V176.049Z" fill="#223C6A"/>
<path opacity="0.2" d="M107.565 176.049H106.418V185.67H107.565V176.049Z" fill="black"/>
<path opacity="0.2" d="M113.457 176.049H112.311V185.67H113.457V176.049Z" fill="black"/>
<path opacity="0.2" d="M119.35 176.049H118.204V185.67H119.35V176.049Z" fill="black"/>
<path opacity="0.2" d="M125.238 176.049H124.091V185.67H125.238V176.049Z" fill="black"/>
<path opacity="0.2" d="M131.131 176.049H129.984V185.67H131.131V176.049Z" fill="black"/>
<path opacity="0.2" d="M137.019 185.665L135.872 185.675V176.049L137.019 176.223V185.665Z" fill="black"/>
<path opacity="0.2" d="M142.911 176.049H141.765V185.67H142.911V176.049Z" fill="black"/>
<path opacity="0.09" d="M144.554 176.049H102.203V178.031H144.554V176.049Z" fill="black"/>
<path d="M146.416 166.427H104.065V176.049H146.416V166.427Z" fill="#223C6A"/>
<path opacity="0.2" d="M109.427 166.427H108.28V176.049H109.427V166.427Z" fill="black"/>
<path opacity="0.2" d="M115.315 166.427H114.168V176.049H115.315V166.427Z" fill="black"/>
<path opacity="0.2" d="M121.207 166.427H120.061V176.049H121.207V166.427Z" fill="black"/>
<path opacity="0.2" d="M127.1 166.427H125.953V176.049H127.1V166.427Z" fill="black"/>
<path opacity="0.2" d="M132.988 166.427H131.841V176.049H132.988V166.427Z" fill="black"/>
<path opacity="0.2" d="M138.88 166.427H137.733V176.049H138.88V166.427Z" fill="black"/>
<path opacity="0.2" d="M144.768 166.427H143.622V176.049H144.768V166.427Z" fill="black"/>
<path opacity="0.09" d="M146.416 166.427H104.065V168.41H146.416V166.427Z" fill="black"/>
<path d="M141.378 156.806H99.0264V166.427H141.378V156.806Z" fill="#223C6A"/>
<path opacity="0.2" d="M104.388 156.806H103.241V166.427H104.388V156.806Z" fill="black"/>
<path opacity="0.2" d="M110.281 156.806H109.134V166.427H110.281V156.806Z" fill="black"/>
<path opacity="0.2" d="M116.168 156.806H115.021V166.427H116.168V156.806Z" fill="black"/>
<path opacity="0.2" d="M122.061 156.806H120.914V166.427H122.061V156.806Z" fill="black"/>
<path opacity="0.2" d="M127.949 156.806H126.802V166.427H127.949V156.806Z" fill="black"/>
<path opacity="0.2" d="M133.842 156.806H132.695V166.427H133.842V156.806Z" fill="black"/>
<path opacity="0.2" d="M139.734 156.806H138.587V166.427H139.734V156.806Z" fill="black"/>
<path opacity="0.09" d="M141.378 156.806H99.0264V158.789H141.378V156.806Z" fill="black"/>
<path d="M84.9968 205.057H42.6455V214.678H84.9968V205.057Z" fill="#223C6A"/>
<path opacity="0.2" d="M48.0066 205.057H46.8599V214.678H48.0066V205.057Z" fill="black"/>
<path opacity="0.2" d="M53.9002 205.057H52.7534V214.678H53.9002V205.057Z" fill="black"/>
<path opacity="0.2" d="M59.7928 205.057H58.646V214.678H59.7928V205.057Z" fill="black"/>
<path opacity="0.2" d="M65.6805 205.057H64.5337V214.678H65.6805V205.057Z" fill="black"/>
<path opacity="0.2" d="M71.573 205.057H70.4263V214.678H71.573V205.057Z" fill="black"/>
<path opacity="0.2" d="M77.4612 205.057H76.3145V214.678H77.4612V205.057Z" fill="black"/>
<path opacity="0.2" d="M83.3538 205.057H82.207V214.678H83.3538V205.057Z" fill="black"/>
<path opacity="0.09" d="M84.9968 205.057H42.6455V207.04H84.9968V205.057Z" fill="black"/>
<path d="M86.9978 195.436H44.6465V205.057H86.9978V195.436Z" fill="#223C6A"/>
<path opacity="0.2" d="M50.0076 195.436H48.8608V205.057H50.0076V195.436Z" fill="black"/>
<path opacity="0.2" d="M55.9007 195.436H54.7539V205.057H55.9007V195.436Z" fill="black"/>
<path opacity="0.2" d="M61.7879 195.436H60.6411V205.057H61.7879V195.436Z" fill="black"/>
<path opacity="0.2" d="M67.6809 195.436H66.5342V205.057H67.6809V195.436Z" fill="black"/>
<path opacity="0.2" d="M73.5687 195.436H72.4219V205.057H73.5687V195.436Z" fill="black"/>
<path opacity="0.2" d="M79.4617 195.436H78.3149V205.057H79.4617V195.436Z" fill="black"/>
<path opacity="0.2" d="M85.3543 195.436H84.2075V205.057H85.3543V195.436Z" fill="black"/>
<path opacity="0.09" d="M86.9978 195.436H44.6465V197.249H86.9978V195.436Z" fill="black"/>
<path d="M84.4011 185.809H42.0498V195.43H84.4011V185.809Z" fill="#223C6A"/>
<path opacity="0.2" d="M47.4109 185.809H46.2642V195.43H47.4109V185.809Z" fill="black"/>
<path opacity="0.2" d="M53.304 185.809H52.1572V195.43H53.304V185.809Z" fill="black"/>
<path opacity="0.2" d="M59.1922 185.809H58.0454V195.43H59.1922V185.809Z" fill="black"/>
<path opacity="0.2" d="M65.0848 185.809H63.938V195.43H65.0848V185.809Z" fill="black"/>
<path opacity="0.2" d="M70.9774 185.809H69.8306V195.43H70.9774V185.809Z" fill="black"/>
<path opacity="0.2" d="M76.865 185.809H75.7183V195.43H76.865V185.809Z" fill="black"/>
<path opacity="0.2" d="M82.7576 185.809H81.6108V195.43H82.7576V185.809Z" fill="black"/>
<path opacity="0.09" d="M84.4011 185.809H42.0498V187.623H84.4011V185.809Z" fill="black"/>
<path d="M177.434 180.984H168.156V214.937H177.434V180.984Z" fill="#223C6A"/>
<g opacity="0.4">
<path opacity="0.4" d="M177.434 190.019V196.921L168.156 206.21V198.785L177.434 190.019Z" fill="white"/>
<path opacity="0.4" d="M177.434 184.969V186.142L168.156 195.435V194.263L177.434 184.969Z" fill="white"/>
</g>
<path d="M188.857 191.922H179.578V214.937H188.857V191.922Z" fill="#223C6A"/>
<g opacity="0.4">
<path opacity="0.4" d="M188.857 198.706V205.539L179.578 214.822V207.477L188.857 198.706Z" fill="white"/>
<path opacity="0.4" d="M188.857 195.485V196.797L179.578 206.09V204.768L188.857 195.485Z" fill="white"/>
</g>
<path d="M166.006 164.668H156.728V214.936H166.006V164.668Z" fill="#223C6A"/>
<g opacity="0.4">
<path opacity="0.4" d="M166.011 174.106V180.974L156.728 190.262V182.877L166.011 174.106Z" fill="white"/>
<path opacity="0.4" d="M166.011 170.329V171.611L156.728 180.909V179.617L166.011 170.329Z" fill="white"/>
</g>
<path d="M162.496 168.872C162.356 169.096 162.154 169.273 161.914 169.381C161.674 169.49 161.407 169.524 161.147 169.481C160.888 169.437 160.647 169.318 160.455 169.137C160.264 168.956 160.13 168.723 160.071 168.466C160.011 168.209 160.03 167.941 160.123 167.694C160.217 167.448 160.381 167.235 160.596 167.082C160.81 166.929 161.065 166.844 161.328 166.836C161.591 166.828 161.851 166.899 162.074 167.039C162.371 167.227 162.583 167.525 162.662 167.869C162.741 168.212 162.681 168.573 162.496 168.872Z" fill="#263238"/>
<path d="M173.919 185.014C173.779 185.236 173.577 185.411 173.338 185.518C173.099 185.625 172.834 185.659 172.576 185.615C172.318 185.572 172.078 185.452 171.888 185.273C171.697 185.093 171.564 184.86 171.506 184.605C171.447 184.35 171.465 184.082 171.558 183.837C171.65 183.592 171.813 183.38 172.026 183.228C172.239 183.075 172.493 182.989 172.755 182.981C173.016 182.972 173.275 183.042 173.497 183.18C173.645 183.273 173.774 183.393 173.876 183.536C173.977 183.678 174.05 183.839 174.089 184.009C174.128 184.18 174.133 184.356 174.104 184.529C174.075 184.701 174.012 184.866 173.919 185.014Z" fill="#263238"/>
<path d="M185.342 195.947C185.203 196.17 185.001 196.346 184.762 196.454C184.523 196.562 184.258 196.596 183.999 196.553C183.741 196.509 183.501 196.39 183.31 196.21C183.119 196.031 182.986 195.798 182.927 195.543C182.868 195.287 182.886 195.019 182.978 194.774C183.071 194.529 183.235 194.316 183.448 194.164C183.661 194.011 183.915 193.926 184.177 193.918C184.439 193.91 184.698 193.979 184.92 194.118C185.068 194.21 185.197 194.331 185.298 194.472C185.4 194.614 185.472 194.775 185.512 194.945C185.551 195.115 185.556 195.291 185.527 195.463C185.498 195.635 185.435 195.8 185.342 195.947Z" fill="#263238"/>
<path d="M184.22 195.232L172.445 206.21L172.792 184.308L161.369 191.38V168.167" stroke="#263238" stroke-miterlimit="10"/>
<path d="M77.9371 107.129C77.9371 107.129 74.7748 111.8 74.0351 112.282C73.2954 112.764 63.312 110.866 58.4121 108.307L55.8853 105.136L52.0726 103.794L49.8833 108.148L52.9066 110.136C52.9066 110.136 54.8427 112.367 57.0122 111.746C57.0122 111.746 64.8162 116.845 70.4161 118.147C76.0159 119.449 77.3116 117.943 78.9449 116.611C80.5782 115.279 84.9022 108.963 84.9022 108.963L77.9371 107.129Z" fill="#FFB573"/>
<path d="M107.947 87.4787C107.947 87.4787 120.437 83.662 124.667 80.4963C124.667 80.4963 131.086 72.6342 132.153 64.2404L130.709 59.872L131.473 54.9023L136.229 55.9659C136.229 55.9659 138.711 61.194 135.688 65.289C135.688 65.289 134.879 77.4548 129.731 83.7962C124.582 90.1375 108.478 94.3767 108.478 94.3767L107.947 87.4787Z" fill="#FFB573"/>
<path d="M112.425 133.423L111.402 96.6477L119.43 92.8061L114.272 83.5923C114.272 83.5923 108.012 85.4311 102.591 85.4311C95.3872 85.4311 88.1392 90.8977 84.2223 92.4483C80.3054 93.9988 75.9565 107.333 75.9565 107.333L85.0116 112.188L86.7094 107.188C86.7094 107.188 89.147 125.666 89.1569 133.771L112.425 133.423Z" fill="#223C6A"/>
<path opacity="0.1" d="M112.425 133.423L111.402 96.6477L119.43 92.8061L114.272 83.5923C114.272 83.5923 108.012 85.4311 102.591 85.4311C95.3872 85.4311 88.1392 90.8977 84.2223 92.4483C80.3054 93.9988 75.9565 107.333 75.9565 107.333L85.0116 112.188L86.7094 107.188C86.7094 107.188 89.147 125.666 89.1569 133.771L112.425 133.423Z" fill="white"/>
<path d="M94.1111 82.0767C94.1111 82.0767 87.841 82.7327 86.7042 77.7381C86.7042 77.7381 82.961 76.2472 85.622 72.5498C85.622 72.5498 82.1767 67.4161 86.5751 65.8904C87.1764 64.4415 88.1144 63.1573 89.3111 62.1442C90.5078 61.1312 91.9287 60.4187 93.4558 60.0659C97.0153 59.1912 96.0075 61.1045 96.0075 61.1045C96.0075 61.1045 103.39 58.247 104.447 61.4325C105.504 64.6181 99.7556 66.0295 99.7556 66.0295L94.1111 82.0767Z" fill="#263238"/>
<path d="M98.0135 81.1474C98.0319 81.4458 98.0684 81.7429 98.1227 82.037C98.3759 83.5279 99.3986 85.9034 101.881 86.6886C101.881 86.6886 102.223 89.3424 98.1227 88.8852C94.0221 88.428 92.0711 87.6974 92.0711 87.6974C92.6993 84.4868 92.6587 81.1809 91.952 77.9867C91.952 77.9867 89.6386 78.3743 88.3329 77.0523C87.0273 75.7304 87.4989 72.3858 91.5846 74.2793C91.5846 74.2793 92.4683 69.404 89.5988 67.9379C89.5988 67.9379 95.2186 68.753 99.7113 66.0146C99.7113 66.0146 103.589 70.9843 103.047 75.7304C102.506 80.4765 98.0135 81.1474 98.0135 81.1474Z" fill="#FFB573"/>
<path d="M99.0113 75.4168C99.0113 75.4168 97.5517 76.365 95.8887 74.9949" stroke="#263238" stroke-width="0.722314" stroke-linecap="round" stroke-linejoin="round"/>
<path d="M95.6007 71.3173C95.69 71.6801 95.9432 71.9286 96.1666 71.8739C96.39 71.8193 96.4992 71.4813 96.4099 71.1186C96.3205 70.7558 96.0673 70.5023 95.8439 70.557C95.6205 70.6116 95.4865 70.9546 95.6007 71.3173Z" fill="#263238"/>
<path d="M99.4975 69.8611C99.5869 70.2288 99.8401 70.4773 100.063 70.4226C100.287 70.368 100.396 70.0251 100.307 69.6623C100.217 69.2995 99.9642 69.051 99.7408 69.1057C99.5174 69.1603 99.4081 69.4983 99.4975 69.8611Z" fill="#263238"/>
<path d="M95.3424 68.6785C95.0072 68.771 94.7078 68.963 94.4837 69.2291C94.2595 69.4952 94.121 69.823 94.0864 70.1694" stroke="#263238" stroke-width="0.963085" stroke-linecap="round" stroke-linejoin="round"/>
<path d="M100.64 67.4156C100.64 67.4156 99.756 66.7553 98.9766 67.3213" stroke="#263238" stroke-width="0.963085" stroke-linecap="round" stroke-linejoin="round"/>
<path d="M99.6119 73.5686L98.6885 70.5222L101.29 72.689C101.15 73.003 100.908 73.2606 100.603 73.4202C100.299 73.5798 99.9496 73.6321 99.6119 73.5686Z" fill="#A02724"/>
<path opacity="0.19" d="M98.1221 82.0507C97.7478 82.1189 97.3633 82.1063 96.9943 82.0139C96.6253 81.9214 96.2803 81.7512 95.9824 81.5146C96.742 81.4352 98.0128 81.1621 98.0128 81.1621C98.0313 81.4603 98.0677 81.757 98.1221 82.0507Z" fill="black"/>
<path d="M100.326 88.9548L100.302 93.7157L97.9683 93.9294C97.9683 93.9294 96.1861 92.1801 96.0719 91.2657C95.9577 90.3513 98.6385 87.9509 100.326 88.9548Z" fill="#263238"/>
<path d="M99.9644 93.2285C99.9644 93.2285 103.469 106.15 105.152 112.61L103.236 116.432L100.009 113.207L98.2666 93.4422L99.9644 93.2285Z" fill="#263238"/>
<path d="M115.994 210.36L108.885 211.478C108.885 211.478 106.696 184.289 106.135 174.091C106.04 172.326 105.862 170.448 105.638 168.54C104.536 159.385 102.282 149.6 102.282 149.6C102.282 149.6 101.548 165.925 99.5122 178.424C97.4768 190.923 88.8636 209.236 88.8636 209.236L82.1021 206.12C87.3842 190.993 88.5955 172.153 89.0522 165.105C89.5089 158.058 88.9926 129.075 88.9926 129.075L112.276 128.056C114.525 139.029 117.449 164.112 117.771 172.784C118.094 181.456 115.994 210.36 115.994 210.36Z" fill="#263238"/>
<path d="M114.733 212.427L115.111 218.142L110.906 219.091L110.464 212.7L114.733 212.427Z" fill="#FFB573"/>
<path d="M117.126 209.425L108.125 211.17L108.567 213.968L116.957 212.442L117.126 209.425Z" fill="#223C6A"/>
<path d="M87.4092 210.017L84.927 215.314L80.9307 213.769L83.5966 208.247L87.4092 210.017Z" fill="#FFB573"/>
<path d="M81.2037 213.838L85.8901 215.687C86.0935 215.765 86.2612 215.916 86.3617 216.109C86.7191 216.8 87.6971 218.495 88.8687 219.141C90.358 219.966 91.1474 220.542 90.6112 221.397C90.0751 222.252 89.2609 221.959 88.4269 221.74C87.7468 221.561 81.3377 218.872 78.9945 217.879C78.8874 217.833 78.7914 217.765 78.7133 217.679C78.6352 217.592 78.5768 217.49 78.5423 217.379C78.5078 217.268 78.498 217.15 78.5135 217.035C78.529 216.919 78.5695 216.809 78.6321 216.711L80.2555 214.156C80.3545 214.004 80.502 213.89 80.6742 213.832C80.8464 213.774 81.033 213.776 81.2037 213.838Z" fill="#263238"/>
<path d="M110.816 218.873L115.781 217.879C115.993 217.838 116.214 217.875 116.401 217.983C117.076 218.366 118.809 219.27 120.144 219.186C121.837 219.076 122.815 219.136 122.825 220.145C122.835 221.154 121.991 221.348 121.167 221.611C120.502 221.825 113.656 223.017 111.129 223.455C111.015 223.475 110.897 223.47 110.785 223.44C110.672 223.41 110.568 223.355 110.479 223.281C110.39 223.206 110.319 223.112 110.27 223.007C110.221 222.901 110.195 222.786 110.196 222.669V219.638C110.2 219.46 110.263 219.288 110.375 219.149C110.488 219.011 110.643 218.913 110.816 218.873Z" fill="#263238"/>
<path d="M91.3854 208.078L81.7395 206.006L80.8906 208.804L89.6429 211.378L91.3854 208.078Z" fill="#223C6A"/>
<path opacity="0.61" d="M105.633 168.614C104.531 159.465 102.277 149.675 102.277 149.675L101.324 137.494C101.324 137.494 106.706 158.536 105.633 168.614Z" fill="black"/>
<path d="M92.3187 86.2461C94.0856 87.4596 96.0491 88.3575 98.1221 88.8999L96.5931 93.4074C96.5931 93.4074 92.8549 91.6879 90.9585 90.1324L92.3187 86.2461Z" fill="white"/>
<path d="M98.1226 88.9L100.64 92.8062C101.793 91.2085 102.627 89.4029 103.097 87.4886L100.267 85.4312C100.267 85.4312 99.0757 88.0353 98.1226 88.9Z" fill="white"/>
</g>
<defs>
<clipPath id="clip0_713_500">
<rect width="248.22" height="248.485" fill="white" transform="translate(0.780273 0.638184)"/>
</clipPath>
</defs>
</svg>
