<svg width="20" height="20" viewBox="0 0 20 20" fill="none" xmlns="http://www.w3.org/2000/svg">
<g clip-path="url(#clip0_1_2815)">
<path d="M19.428 2.73415C19.1338 2.43942 18.6564 2.43891 18.3622 2.7329L9.31952 11.7517L6.05695 8.20825C5.77503 7.90224 5.29839 7.88239 4.99187 8.16427C4.68558 8.44618 4.66597 8.92306 4.94789 9.22935L8.74187 13.3497C8.88081 13.5007 9.07527 13.5884 9.28031 13.5927C9.28581 13.5929 9.29113 13.5929 9.2964 13.5929C9.49566 13.5929 9.68734 13.5138 9.82855 13.3731L19.4266 3.8002C19.7215 3.50626 19.722 3.02888 19.428 2.73415Z" fill="#223C6A"/>
<path d="M19.2462 9.24621C18.8299 9.24621 18.4925 9.58363 18.4925 10C18.4925 14.6829 14.6829 18.4925 10 18.4925C5.31734 18.4925 1.50754 14.6829 1.50754 10C1.50754 5.31734 5.31734 1.50754 10 1.50754C10.4163 1.50754 10.7538 1.17012 10.7538 0.753789C10.7538 0.337422 10.4163 0 10 0C4.48594 0 0 4.48594 0 10C0 15.5138 4.48594 20 10 20C15.5138 20 20 15.5138 20 10C20 9.58367 19.6626 9.24621 19.2462 9.24621Z" fill="#223C6A"/>
</g>
<defs>
<clipPath id="clip0_1_2815">
<rect width="20" height="20" rx="8" fill="white"/>
</clipPath>
</defs>
</svg>
