<svg width="249" height="252" viewBox="0 0 249 252" fill="none" xmlns="http://www.w3.org/2000/svg">
<g clip-path="url(#clip0_712_471)">
<path d="M248.783 192.769H0.0131836V192.895H248.783V192.769Z" fill="#EBEBEB"/>
<path d="M86.197 195.982H74.6641V196.108H86.197V195.982Z" fill="#EBEBEB"/>
<path d="M228.269 198.682H200.074V198.808H228.269V198.682Z" fill="#EBEBEB"/>
<path d="M49.4636 198.682H21.2681V198.808H49.4636V198.682Z" fill="#EBEBEB"/>
<path d="M117.93 170.306H21.8604C21.1078 170.304 20.3865 170.001 19.8547 169.462C19.323 168.922 19.0244 168.192 19.0244 167.43V30.7199C19.031 29.9624 19.3325 29.2381 19.8635 28.7043C20.3945 28.1706 21.1121 27.8704 21.8604 27.8691H117.93C118.684 27.8691 119.406 28.1721 119.939 28.7115C120.472 29.2508 120.771 29.9823 120.771 30.7451V167.43C120.771 168.192 120.472 168.924 119.939 169.463C119.406 170.003 118.684 170.306 117.93 170.306ZM21.8604 27.9699C21.1408 27.9712 20.4511 28.2615 19.9427 28.7771C19.4343 29.2927 19.1488 29.9914 19.1488 30.7199V167.43C19.1488 168.158 19.4343 168.857 19.9427 169.372C20.4511 169.888 21.1408 170.178 21.8604 170.18H117.93C118.65 170.177 119.339 169.886 119.848 169.371C120.357 168.856 120.644 168.158 120.647 167.43V30.7199C120.644 29.9914 120.357 29.2934 119.848 28.7783C119.339 28.2631 118.65 27.9725 117.93 27.9699H21.8604Z" fill="#EBEBEB"/>
<path d="M225.552 170.306H129.478C128.725 170.303 128.004 169.999 127.472 169.46C126.94 168.922 126.639 168.192 126.637 167.43V30.7199C126.645 29.9619 126.947 29.2376 127.479 28.704C128.011 28.1704 128.729 27.8704 129.478 27.8691H225.552C226.3 27.8718 227.016 28.1725 227.546 28.7061C228.076 29.2397 228.377 29.9633 228.383 30.7199V167.43C228.384 167.807 228.311 168.18 228.169 168.529C228.028 168.877 227.819 169.194 227.556 169.461C227.293 169.728 226.981 169.94 226.637 170.085C226.293 170.23 225.925 170.305 225.552 170.306ZM129.478 27.9699C128.758 27.9725 128.069 28.2631 127.56 28.7783C127.051 29.2934 126.764 29.9914 126.761 30.7199V167.43C126.764 168.158 127.051 168.856 127.56 169.371C128.069 169.886 128.758 170.177 129.478 170.18H225.552C226.272 170.177 226.962 169.886 227.47 169.371C227.979 168.856 228.266 168.158 228.269 167.43V30.7199C228.266 29.9914 227.979 29.2934 227.47 28.7783C226.962 28.2631 226.272 27.9725 225.552 27.9699H129.478Z" fill="#EBEBEB"/>
<path d="M156.772 152.793H145.284V193.041H156.772V152.793Z" fill="#E6E6E6"/>
<path d="M148.638 152.793H137.15V193.041H148.638V152.793Z" fill="#E6E6E6"/>
<path d="M146.459 193.041H148.638V186.755H144.165L146.459 193.041Z" fill="#F0F0F0"/>
<path d="M90.8886 152.793H79.4004V193.041H90.8886V152.793Z" fill="#E6E6E6"/>
<path d="M148.643 152.793H88.9878V189.949H148.643V152.793Z" fill="#F0F0F0"/>
<path d="M144.926 181.588H121.542C120.94 181.585 120.363 181.342 119.937 180.911C119.511 180.479 119.271 179.896 119.268 179.286V156.666C119.269 156.057 119.51 155.473 119.936 155.042C120.362 154.611 120.94 154.37 121.542 154.37H144.901C145.503 154.37 146.081 154.611 146.507 155.042C146.934 155.473 147.174 156.057 147.175 156.666V179.286C147.172 179.891 146.936 180.471 146.515 180.902C146.095 181.332 145.524 181.578 144.926 181.588ZM121.542 154.893C121.074 154.893 120.625 155.081 120.293 155.415C119.961 155.749 119.773 156.203 119.771 156.676V179.296C119.768 179.531 119.811 179.765 119.898 179.984C119.984 180.202 120.113 180.401 120.275 180.57C120.438 180.738 120.632 180.872 120.846 180.965C121.059 181.058 121.289 181.107 121.522 181.109H144.906C145.375 181.112 145.826 180.926 146.16 180.593C146.494 180.26 146.683 179.806 146.687 179.331V156.666C146.687 156.432 146.642 156.2 146.553 155.983C146.464 155.766 146.334 155.569 146.17 155.404C146.006 155.238 145.811 155.107 145.597 155.018C145.382 154.928 145.153 154.883 144.921 154.883L121.542 154.893Z" fill="#E0E0E0"/>
<path d="M116.059 181.588H92.6746C92.0724 181.585 91.4956 181.342 91.0697 180.911C90.6439 180.479 90.4035 179.896 90.4009 179.286V156.666C90.4022 156.057 90.6423 155.473 91.0686 155.042C91.4949 154.611 92.0725 154.37 92.6746 154.37H116.059C116.661 154.37 117.239 154.611 117.665 155.042C118.091 155.473 118.331 156.057 118.333 156.666V179.286C118.331 179.896 118.091 180.481 117.665 180.912C117.239 181.343 116.662 181.586 116.059 181.588ZM92.6746 154.893C92.4429 154.893 92.2134 154.938 91.9991 155.028C91.7848 155.117 91.5901 155.248 91.426 155.414C91.2619 155.58 91.1317 155.776 91.0429 155.993C90.9541 156.21 90.9084 156.442 90.9084 156.676V179.296C90.9084 179.531 90.9541 179.763 91.0428 179.98C91.1316 180.197 91.2617 180.394 91.4257 180.56C91.5897 180.726 91.7844 180.858 91.9987 180.948C92.213 181.038 92.4427 181.084 92.6746 181.084H116.059C116.527 181.083 116.976 180.894 117.308 180.559C117.64 180.224 117.828 179.77 117.83 179.296V156.666C117.828 156.193 117.64 155.739 117.308 155.405C116.976 155.071 116.527 154.883 116.059 154.883L92.6746 154.893Z" fill="#E0E0E0"/>
<path d="M113.89 161.517C113.456 161.517 113.032 161.386 112.671 161.143C112.311 160.899 112.03 160.552 111.863 160.147C111.697 159.741 111.653 159.295 111.738 158.864C111.822 158.433 112.03 158.037 112.337 157.727C112.643 157.416 113.034 157.204 113.459 157.118C113.884 157.031 114.325 157.075 114.726 157.242C115.127 157.409 115.47 157.693 115.712 158.058C115.954 158.422 116.083 158.851 116.084 159.29C116.084 159.88 115.853 160.445 115.442 160.863C115.03 161.28 114.472 161.515 113.89 161.517Z" fill="#F9F9F9"/>
<path d="M123.731 161.517C123.298 161.52 122.872 161.392 122.51 161.151C122.148 160.909 121.864 160.564 121.695 160.16C121.526 159.755 121.48 159.309 121.562 158.877C121.644 158.446 121.85 158.048 122.155 157.736C122.459 157.423 122.849 157.209 123.274 157.12C123.699 157.032 124.14 157.072 124.542 157.238C124.944 157.403 125.289 157.685 125.533 158.049C125.776 158.413 125.908 158.841 125.911 159.28V159.326C125.904 159.907 125.672 160.463 125.264 160.873C124.857 161.283 124.306 161.514 123.731 161.517Z" fill="#F9F9F9"/>
<path d="M91.1671 193.041H88.9829V186.755H93.4558L91.1671 193.041Z" fill="#F0F0F0"/>
<path d="M87.2318 152.793H75.7437V193.041H87.2318V152.793Z" fill="#E6E6E6"/>
<path d="M85.048 193.041H87.2322V186.755H82.7593L85.048 193.041Z" fill="#F0F0F0"/>
<path d="M87.2316 152.793H27.5767V189.949H87.2316V152.793Z" fill="#F0F0F0"/>
<path d="M83.515 181.588H60.1307C59.5276 181.588 58.9493 181.345 58.5229 180.914C58.0965 180.482 57.8569 179.896 57.8569 179.286V156.666C57.8583 156.057 58.0984 155.473 58.5247 155.042C58.9509 154.611 59.5285 154.37 60.1307 154.37H83.4901C84.0923 154.37 84.6699 154.611 85.0962 155.042C85.5224 155.473 85.7626 156.057 85.7639 156.666V179.286C85.7639 179.892 85.5278 180.474 85.1067 180.905C84.6857 181.336 84.1137 181.581 83.515 181.588ZM60.1307 154.893C59.899 154.893 59.6694 154.938 59.4551 155.028C59.2409 155.117 59.0461 155.248 58.882 155.414C58.718 155.58 58.5878 155.776 58.499 155.993C58.4101 156.21 58.3644 156.442 58.3644 156.676V179.296C58.3618 179.531 58.405 179.765 58.4916 179.984C58.5782 180.202 58.7065 180.401 58.8691 180.57C59.0317 180.738 59.2255 180.872 59.4394 180.965C59.6533 181.058 59.8832 181.107 60.1158 181.109H83.5001C83.9695 181.112 84.4208 180.926 84.7555 180.593C85.0902 180.26 85.281 179.806 85.2863 179.331V156.666C85.2836 156.193 85.0965 155.741 84.7657 155.407C84.4349 155.073 83.9872 154.885 83.52 154.883L60.1307 154.893Z" fill="#E0E0E0"/>
<path d="M54.6478 181.588H31.2933C30.6902 181.588 30.1119 181.345 29.6855 180.914C29.2591 180.482 29.0195 179.896 29.0195 179.286V156.666C29.0195 156.364 29.0784 156.065 29.1927 155.786C29.307 155.507 29.4746 155.254 29.6858 155.041C29.897 154.827 30.1477 154.658 30.4235 154.543C30.6994 154.428 30.9949 154.369 31.2933 154.37H54.6478C54.9461 154.369 55.2417 154.428 55.5175 154.543C55.7933 154.658 56.044 154.827 56.2552 155.041C56.4664 155.254 56.634 155.507 56.7483 155.786C56.8627 156.065 56.9215 156.364 56.9215 156.666V179.286C56.9202 179.896 56.6802 180.481 56.2541 180.912C55.828 181.343 55.2504 181.586 54.6478 181.588ZM31.2933 154.893C31.0612 154.892 30.8311 154.937 30.6162 155.026C30.4014 155.115 30.206 155.246 30.0414 155.412C29.8768 155.578 29.7462 155.775 29.6571 155.992C29.5679 156.209 29.522 156.441 29.522 156.676V179.296C29.5194 179.531 29.5626 179.765 29.6492 179.984C29.7358 180.202 29.8641 180.401 30.0267 180.57C30.1894 180.738 30.3832 180.872 30.5971 180.965C30.811 181.058 31.0408 181.107 31.2734 181.109H54.6577C54.8901 181.11 55.1203 181.064 55.3352 180.975C55.55 180.885 55.7453 180.753 55.9099 180.587C56.0744 180.421 56.2049 180.224 56.294 180.007C56.3831 179.789 56.4289 179.556 56.4289 179.321V156.656C56.4289 156.421 56.3831 156.189 56.2939 155.972C56.2048 155.755 56.0742 155.558 55.9096 155.392C55.745 155.226 55.5496 155.095 55.3348 155.006C55.1199 154.917 54.8898 154.872 54.6577 154.873L31.2933 154.893Z" fill="#E0E0E0"/>
<path d="M52.4838 161.517C52.0498 161.518 51.6253 161.388 51.2639 161.145C50.9026 160.902 50.6206 160.556 50.4536 160.15C50.2866 159.745 50.2422 159.298 50.3259 158.867C50.4096 158.436 50.6176 158.04 50.9238 157.728C51.23 157.417 51.6204 157.205 52.0459 157.118C52.4713 157.031 52.9126 157.074 53.3139 157.241C53.7152 157.409 54.0585 157.692 54.3004 158.057C54.5423 158.422 54.672 158.851 54.673 159.29C54.6743 159.582 54.6186 159.871 54.5092 160.142C54.3998 160.412 54.2387 160.657 54.0353 160.864C53.8319 161.071 53.5901 161.235 53.3238 161.347C53.0576 161.459 52.7721 161.517 52.4838 161.517Z" fill="#F9F9F9"/>
<path d="M62.3252 161.517C61.8913 161.52 61.4662 161.392 61.1038 161.151C60.7413 160.909 60.4578 160.564 60.289 160.16C60.1202 159.755 60.0737 159.309 60.1555 158.877C60.2373 158.446 60.4436 158.048 60.7483 157.736C61.0531 157.423 61.4426 157.209 61.8677 157.12C62.2927 157.032 62.7341 157.072 63.1362 157.238C63.5382 157.403 63.8828 157.685 64.1264 158.049C64.3699 158.413 64.5015 158.841 64.5044 159.28V159.326C64.4979 159.907 64.2658 160.463 63.8581 160.873C63.4504 161.283 62.8998 161.514 62.3252 161.517Z" fill="#F9F9F9"/>
<path d="M29.7559 193.041H27.5767V186.755H32.0446L29.7559 193.041Z" fill="#F0F0F0"/>
<path d="M132.995 41.2263H111.621V62.8638H132.995V41.2263Z" fill="#EBEBEB"/>
<path d="M133.946 41.2314H133V62.8689H133.946V41.2314Z" fill="#E0E0E0"/>
<path d="M130.104 44.1626H114.521V59.9374H130.104V44.1626Z" fill="white"/>
<path d="M124.92 54.6843C124.578 55.0316 124.171 55.3072 123.723 55.4953C123.275 55.6833 122.795 55.7801 122.311 55.7801C121.826 55.7801 121.346 55.6833 120.898 55.4953C120.45 55.3072 120.043 55.0316 119.701 54.6843C119.011 53.9837 118.623 53.0346 118.623 52.0451C118.623 51.0556 119.011 50.1064 119.701 49.4059C120.394 48.7068 121.332 48.3142 122.311 48.3142C123.289 48.3142 124.227 48.7068 124.92 49.4059C125.61 50.1064 125.998 51.0556 125.998 52.0451C125.998 53.0346 125.61 53.9837 124.92 54.6843Z" fill="#F5F5F5"/>
<path d="M112.059 69.0488H86.998V94.4185H112.059V69.0488Z" fill="#EBEBEB"/>
<path d="M113.169 69.0537H112.059V94.4233H113.169V69.0537Z" fill="#E0E0E0"/>
<path d="M108.666 72.4888H90.396V90.9833H108.666V72.4888Z" fill="white"/>
<path d="M103.422 77.7874H95.6304V85.6748H103.422V77.7874Z" fill="#F5F5F5"/>
<path d="M224.154 60.8894H210.586V64.0977H224.154V60.8894Z" fill="#E6E6E6"/>
<path d="M210.586 60.8894H154.424V64.0977H210.586V60.8894Z" fill="#F5F5F5"/>
<path d="M186.336 43.8555H170.524V60.8945H186.336V43.8555Z" fill="#E0E0E0"/>
<path d="M170.525 43.8555H166.475V60.8945H170.525V43.8555Z" fill="#F0F0F0"/>
<path d="M190.481 41.2263H178.604V60.8894H190.481V41.2263Z" fill="#E6E6E6"/>
<path d="M178.61 41.2263H175.177V60.8894H178.61V41.2263Z" fill="#F0F0F0"/>
<path d="M192.123 43.8555H182.107V60.8945H192.123V43.8555Z" fill="#F0F0F0"/>
<path d="M182.108 43.8555H179.819V60.8945H182.108V43.8555Z" fill="#F9F9F9"/>
<path d="M203.437 46.7366H190.302V60.8896H203.437V46.7366Z" fill="#E6E6E6"/>
<path d="M190.302 46.7366H186.938V60.8896H190.302V46.7366Z" fill="#F9F9F9"/>
<path d="M206.88 44.5557H197.014V60.8946H206.88V44.5557Z" fill="#E6E6E6"/>
<path d="M197.014 44.5557H194.163V60.8946H197.014V44.5557Z" fill="#F0F0F0"/>
<path d="M209.502 46.7366H199.919V60.8896H209.502V46.7366Z" fill="#F0F0F0"/>
<path d="M199.919 46.7366H198.019V60.8896H199.919V46.7366Z" fill="#F9F9F9"/>
<path d="M202.556 156.012C206.805 150.391 216.92 148.3 220.418 144.755C224.995 140.106 224.975 133.13 221.075 130.612C217.691 128.426 206.467 143.203 205.208 144.865C200.855 150.552 199.596 154.768 198.78 158.852C198.874 155.382 198.964 152.189 199.039 149.731C199.273 141.708 199.566 139.124 199.705 138.333C200.203 137.94 200.73 137.492 201.049 137.25C203.765 135.2 209.786 132.757 212.796 129.781C217.194 125.429 216.482 120.211 213.398 118.282C210.179 116.267 204.477 121.047 201.457 125.797C198.437 130.546 199.725 135.099 198.879 139.013C198.7 139.789 198.516 142.725 198.347 146.8C197.631 142.784 195.437 139.193 192.207 136.751C188.043 133.387 184.446 129.287 181.013 129.816C177.58 130.345 179.446 135.769 182.142 139.577C184.56 142.967 196.496 146.351 198.253 149.076C198.044 154.616 197.86 161.592 197.73 168.11C196.79 164.745 197.437 164.463 193.581 159.295C191.292 156.233 181.889 152.446 180.774 154.561C179.66 156.676 181.356 160.645 184.904 163.431C187.764 165.677 194.088 165.672 195.586 167.067C195.929 167.389 197.078 168.638 197.705 169.359C197.551 177.307 197.486 184.323 197.561 186.72L198.178 186.745C198.148 186.126 198.218 182.081 198.342 176.727C199.884 173.882 210.283 172.194 213.472 169.253C216.826 166.155 219.234 162.539 217.796 160.116C216.597 158.102 207.159 160.842 203.293 164.186C200.735 166.412 199.173 168.795 198.457 171.988C198.541 168.341 198.646 164.433 198.74 160.731C199.526 159.829 201.283 157.699 202.556 156.012Z" fill="#E6E6E6"/>
<path d="M203.462 192.935H192.685C192.093 192.935 191.586 192.16 191.471 191.082L190.705 184.031H205.437L204.676 191.082C204.552 192.16 204.049 192.935 203.462 192.935Z" fill="#F0F0F0"/>
<path d="M205.745 186.755H190.396C190.028 186.755 189.72 186.252 189.68 185.557L189.366 180.339C189.317 179.538 189.65 178.828 190.083 178.828H206.064C206.492 178.828 206.825 179.528 206.775 180.339L206.462 185.557C206.427 186.242 206.113 186.755 205.745 186.755Z" fill="#F0F0F0"/>
<path d="M124.397 215.515C177.675 215.515 220.865 212.962 220.865 209.813C220.865 206.664 177.675 204.112 124.397 204.112C71.1198 204.112 27.9297 206.664 27.9297 209.813C27.9297 212.962 71.1198 215.515 124.397 215.515Z" fill="#F5F5F5"/>
<path d="M106.731 78.5781C105.631 81.2828 99.158 81.0965 92.3766 78.2659C85.5951 75.4353 80.9829 70.9476 82.0825 68.2429C82.3412 67.6184 83.0776 65.2763 83.8139 64.954C86.3414 63.8711 91.1526 66.3038 96.3618 68.4797C101.213 70.4943 106.76 71.8089 107.621 74.4733C108.139 76.0951 107.044 77.8075 106.731 78.5781Z" fill="#223C6A"/>
<path opacity="0.2" d="M107.621 74.4731C108.034 76.5935 107.124 77.6109 106.731 78.5779C106.337 79.545 105.188 80.1796 103.581 80.4012C103.38 80.4358 103.178 80.4593 102.974 80.4717C101.742 80.5451 100.505 80.4792 99.2873 80.2753C99.1132 80.2753 98.9391 80.2199 98.7599 80.1897C97.3303 79.9299 95.9217 79.5629 94.5458 79.0917L94.0483 78.9204C93.496 78.724 92.9288 78.5074 92.3616 78.2707C91.7944 78.034 91.2571 77.767 90.7247 77.5303L90.267 77.3087C89.0127 76.6808 87.804 75.9638 86.6499 75.1631L86.2419 74.871C85.2344 74.1501 84.3113 73.3153 83.4905 72.3829C83.3661 72.2418 83.2517 72.1058 83.1422 71.9648C82.0725 70.5949 81.6496 69.2853 82.0725 68.2427C82.3511 67.5729 82.9482 65.2812 83.8039 64.9488C84.8565 64.6486 85.9705 64.6486 87.023 64.9488L87.5205 65.0696C90.0082 65.7143 93.1427 67.1498 96.3419 68.4845C100.113 70.061 104.576 71.6979 106.765 73.5866C106.896 73.6976 107.02 73.8153 107.138 73.9392C107.313 74.1038 107.475 74.2824 107.621 74.4731Z" fill="black"/>
<g opacity="0.2">
<path opacity="0.2" d="M87.7695 64.6365L87.5406 65.0596L83.5006 72.3779C83.3762 72.2369 83.2618 72.1009 83.1523 71.9598L87.0331 64.9387L87.3366 64.3948L87.7695 64.6365Z" fill="black"/>
</g>
<g opacity="0.2">
<path opacity="0.2" d="M90.8238 67.6233L86.6594 75.1783L86.2515 74.8861L90.391 67.3916L90.8238 67.6233Z" fill="black"/>
</g>
<g opacity="0.2">
<path opacity="0.2" d="M98.4814 71.9549L94.5459 79.0919L94.0483 78.9206L98.0287 71.688L98.4814 71.9549Z" fill="black"/>
</g>
<g opacity="0.2">
<path opacity="0.2" d="M94.9189 69.9403L90.7346 77.5305L90.2769 77.3089L94.486 69.6733L94.9189 69.9403Z" fill="black"/>
</g>
<g opacity="0.2">
<path opacity="0.2" d="M103.123 73.3348L99.2872 80.2753C99.113 80.2753 98.9389 80.2199 98.7598 80.1897L102.685 73.083L103.123 73.3348Z" fill="black"/>
</g>
<path d="M107.591 76.221C106.492 78.9257 100.098 78.8199 93.312 75.9843C86.5256 73.1487 81.9184 68.666 83.0229 65.9614C84.1275 63.2567 90.5158 63.3675 97.3023 66.1981C104.089 69.0287 108.691 73.5012 107.591 76.221Z" fill="#223C6A"/>
<path opacity="0.2" d="M105.283 75.2389C104.506 77.1477 99.521 76.8808 94.1526 74.6395C88.7841 72.3982 85.0625 69.0287 85.8387 67.1198C86.6149 65.2109 91.6002 65.4778 96.9736 67.7191C102.347 69.9604 106.064 73.33 105.283 75.2389Z" fill="white"/>
<path d="M141.021 54.1302C142.792 56.442 139.419 62.0378 133.612 66.5858C127.806 71.1339 121.671 72.9471 119.905 70.6152C119.497 70.0813 117.845 68.2933 117.945 67.4572C118.278 64.7021 122.751 61.6902 127.209 58.1948C131.358 54.9411 135.234 50.7204 137.946 51.2895C139.593 51.6572 140.518 53.4755 141.021 54.1302Z" fill="#223C6A"/>
<path opacity="0.2" d="M137.946 51.3096C139.971 52.0046 140.389 53.3242 141.021 54.1301C141.653 54.936 141.628 56.2807 141.021 57.8069C140.951 57.9932 140.867 58.1796 140.777 58.371C140.232 59.4907 139.564 60.5449 138.787 61.5138C138.682 61.6549 138.568 61.7908 138.454 61.9319C137.518 63.0616 136.5 64.1188 135.409 65.0949L135.026 65.4323C134.583 65.8202 134.115 66.208 133.632 66.5857C133.15 66.9635 132.667 67.3211 132.18 67.6585C132.045 67.7593 131.901 67.855 131.767 67.9507C130.604 68.7401 129.387 69.4437 128.125 70.056C127.97 70.1366 127.821 70.2021 127.677 70.2726C126.555 70.7978 125.379 71.1932 124.169 71.4511C123.99 71.4914 123.816 71.5217 123.642 71.5468C121.935 71.8037 120.602 71.5468 119.92 70.6352C119.482 70.061 117.816 68.3939 117.96 67.4823C118.22 66.4046 118.774 65.4223 119.557 64.6466C119.667 64.5207 119.786 64.3948 119.91 64.2638C121.706 62.3801 124.488 60.3604 127.224 58.2199C130.453 55.7015 134.075 52.5838 136.777 51.6067C136.94 51.5461 137.106 51.494 137.274 51.4506C137.495 51.3871 137.719 51.3399 137.946 51.3096Z" fill="black"/>
<g opacity="0.2">
<path opacity="0.2" d="M119.647 63.8511L119.895 64.2641L124.154 71.4514C123.975 71.4917 123.801 71.5219 123.627 71.5471L119.542 64.6368L119.224 64.1331L119.647 63.8511Z" fill="black"/>
</g>
<g opacity="0.2">
<path opacity="0.2" d="M123.722 62.6521L128.11 70.056C127.956 70.1366 127.807 70.202 127.662 70.2726L123.294 62.909L123.722 62.6521Z" fill="black"/>
</g>
<g opacity="0.2">
<path opacity="0.2" d="M131.239 58.0891L135.394 65.1001L135.011 65.4376L130.812 58.346L131.239 58.0891Z" fill="black"/>
</g>
<g opacity="0.2">
<path opacity="0.2" d="M127.747 60.2095L132.165 67.6587C132.031 67.7594 131.886 67.8551 131.752 67.9508L127.314 60.4663L127.747 60.2095Z" fill="black"/>
</g>
<g opacity="0.2">
<path opacity="0.2" d="M134.732 54.6892L138.772 61.5139C138.667 61.6549 138.553 61.7909 138.438 61.9319L134.304 54.9511L134.732 54.6892Z" fill="black"/>
</g>
<path d="M132.106 64.6093C137.909 60.0596 141.179 54.4977 139.41 52.1864C137.642 49.8751 131.505 51.6897 125.702 56.2393C119.9 60.789 116.629 66.351 118.398 68.6623C120.166 70.9736 126.304 69.159 132.106 64.6093Z" fill="#223C6A"/>
<path opacity="0.2" d="M131.387 63.2073C135.979 59.6064 138.689 55.3627 137.438 53.7288C136.188 52.0948 131.452 53.6893 126.859 57.2903C122.267 60.8912 119.557 65.1349 120.808 66.7688C122.058 68.4028 126.794 66.8083 131.387 63.2073Z" fill="white"/>
<path d="M117.005 43.3015C116.438 46.6156 109.094 48.0158 100.775 46.5048C92.4563 44.9938 86.1824 41.1005 86.7645 37.7864C86.8988 37.0158 87.1327 34.2103 87.9138 33.6513C90.496 31.8079 96.4964 33.3491 102.885 34.4974C108.855 35.5702 115.388 35.6559 117.005 38.4411C117.985 40.1536 117.169 42.3546 117.005 43.3015Z" fill="#223C6A"/>
<path opacity="0.2" d="M117.004 38.4462C118 40.7328 117.208 42.0977 117.004 43.2864C116.8 44.475 115.661 45.4672 113.91 46.122C113.696 46.2076 113.472 46.2781 113.243 46.3487C111.873 46.7384 110.465 46.9732 109.044 47.0488C108.84 47.0488 108.641 47.0488 108.432 47.084C106.758 47.1463 105.082 47.084 103.417 46.8976L102.835 46.8221C102.163 46.7365 101.471 46.6357 100.78 46.5098C100.088 46.3839 99.4165 46.2429 98.7547 46.0867C98.5657 46.0465 98.3766 45.9961 98.1875 45.9508C96.6244 45.56 95.0912 45.055 93.6002 44.4398C93.4161 44.3693 93.242 44.2887 93.0679 44.2182C91.7592 43.6543 90.5175 42.943 89.3662 42.0977C89.192 41.9718 89.0328 41.8459 88.8686 41.7149C87.3263 40.4407 86.5352 39.0707 86.7591 37.7964C86.9083 36.9704 87.0277 34.2708 87.9034 33.6613C88.7791 33.0519 90.0329 32.8605 91.5255 32.8555H92.1225C95.1078 32.9562 98.9537 33.7973 102.879 34.5025C107.506 35.3385 112.925 36.0689 115.84 37.6504C116.011 37.7421 116.177 37.843 116.338 37.9526C116.572 38.0993 116.795 38.2643 117.004 38.4462Z" fill="black"/>
<g opacity="0.2">
<path opacity="0.2" d="M92.2868 32.3415L92.1276 32.8704L89.3613 42.1076C89.1872 41.9817 89.028 41.8557 88.8638 41.7248L91.5206 32.8653L91.7296 32.1753L92.2868 32.3415Z" fill="black"/>
</g>
<g opacity="0.2">
<path opacity="0.2" d="M96.4468 34.9204L93.5958 44.4347C93.4118 44.3641 93.2376 44.2836 93.0635 44.213L95.8995 34.7441L96.4468 34.9204Z" fill="black"/>
</g>
<g opacity="0.2">
<path opacity="0.2" d="M106.114 37.902L103.412 46.9125L102.83 46.837L105.562 37.7307L106.114 37.902Z" fill="black"/>
</g>
<g opacity="0.2">
<path opacity="0.2" d="M101.621 36.5221L98.7503 46.0918C98.5612 46.0515 98.3722 46.0011 98.1831 45.9558L101.069 36.3408L101.621 36.5221Z" fill="black"/>
</g>
<g opacity="0.2">
<path opacity="0.2" d="M111.671 38.2951L109.039 47.0639C108.835 47.0639 108.636 47.0639 108.427 47.0992L111.119 38.1289L111.671 38.2951Z" fill="black"/>
</g>
<path d="M117.392 40.4079C117.975 37.0941 111.701 33.1926 103.379 31.6936C95.0576 30.1945 87.8394 31.6656 87.2569 34.9794C86.6744 38.2932 92.9481 42.1947 101.27 43.6937C109.591 45.1928 116.81 43.7217 117.392 40.4079Z" fill="#223C6A"/>
<path opacity="0.2" d="M114.56 39.9012C114.972 37.5597 109.967 34.6999 103.383 33.5137C96.7978 32.3276 91.1261 33.2642 90.7145 35.6057C90.3029 37.9473 95.3073 40.807 101.892 41.9932C108.477 43.1794 114.149 42.2428 114.56 39.9012Z" fill="white"/>
<path d="M160.44 127.912L109.238 130.934C107.429 131.042 105.654 131.479 103.999 132.224L48.3839 157.407C47.4081 157.841 46.609 158.601 46.12 159.56C45.631 160.519 45.4818 161.618 45.6972 162.675L54.8867 206.67C55.0421 207.379 55.3554 208.042 55.8027 208.609C56.2501 209.176 56.8196 209.632 57.4677 209.942C58.1159 210.252 58.8255 210.408 59.5423 210.398C60.2591 210.388 60.9641 210.212 61.6035 209.884L116.497 182.142L167.186 180.424C167.81 180.407 168.423 180.256 168.985 179.981C169.546 179.705 170.043 179.312 170.443 178.827C170.842 178.342 171.135 177.776 171.302 177.167C171.469 176.559 171.506 175.921 171.41 175.297L164.629 133.17C164.276 130.995 162.644 127.847 160.44 127.912Z" fill="#223C6A"/>
<path opacity="0.1" d="M160.44 127.912L109.238 130.934C107.429 131.042 105.654 131.479 103.999 132.224L48.3839 157.407C47.4081 157.841 46.609 158.601 46.12 159.56C45.631 160.519 45.4818 161.618 45.6972 162.675L54.8867 206.67C55.0421 207.379 55.3554 208.042 55.8027 208.609C56.2501 209.176 56.8196 209.632 57.4677 209.942C58.1159 210.252 58.8255 210.408 59.5423 210.398C60.2591 210.388 60.9641 210.212 61.6035 209.884L116.497 182.142L167.186 180.424C167.81 180.407 168.423 180.256 168.985 179.981C169.546 179.705 170.043 179.312 170.443 178.827C170.842 178.342 171.135 177.776 171.302 177.167C171.469 176.559 171.506 175.921 171.41 175.297L164.629 133.17C164.276 130.995 162.644 127.847 160.44 127.912Z" fill="black"/>
<path d="M57.6677 99.2661L30.7979 124.34L79.0168 177.293L105.887 152.22L57.6677 99.2661Z" fill="#223C6A"/>
<path opacity="0.5" d="M105.879 152.224L79.0074 177.296L30.7959 124.346L48.4287 107.891L57.668 99.2686L59.2054 100.961L105.879 152.224Z" fill="#F9F9F9"/>
<path d="M57.84 102.503L34.1309 124.627L79.234 174.159L102.943 152.035L57.84 102.503Z" stroke="#223C6A" stroke-miterlimit="10"/>
<path d="M73.872 144.195C76.5915 141.658 76.2475 136.802 73.1038 133.349C69.96 129.897 65.2069 129.155 62.4875 131.693C59.768 134.231 60.112 139.087 63.2557 142.539C66.3995 145.991 71.1525 146.733 73.872 144.195Z" fill="#223C6A"/>
<path opacity="0.1" d="M78.7238 155.805L69.1761 159.144L48.4287 107.891L57.668 99.2686L59.2054 100.961L78.7238 155.805Z" fill="black"/>
<path d="M80.5841 78.5203L46.2285 91.1306L70.4792 158.836L104.835 146.226L80.5841 78.5203Z" fill="#223C6A"/>
<path opacity="0.5" d="M80.5841 78.5203L46.2285 91.1306L70.4792 158.836L104.835 146.226L80.5841 78.5203Z" fill="#F9F9F9"/>
<path d="M79.5043 81.5733L49.1899 92.7002L71.8735 156.031L102.188 144.904L79.5043 81.5733Z" stroke="#223C6A" stroke-miterlimit="10"/>
<path d="M78.3759 126.294C81.853 125.018 83.39 120.405 81.8089 115.991C80.2278 111.576 76.1274 109.032 72.6503 110.309C69.1732 111.585 67.6362 116.198 69.2173 120.612C70.7984 125.027 74.8988 127.57 78.3759 126.294Z" fill="#223C6A"/>
<path d="M160.773 129.7L110.273 132.581C108.483 132.68 106.726 133.116 105.094 133.865L50.2947 158.908C49.3294 159.349 48.542 160.111 48.0625 161.067C47.583 162.023 47.4402 163.116 47.6577 164.166L56.8473 208.181C56.9953 208.885 57.3008 209.546 57.7403 210.112C58.1798 210.677 58.7416 211.134 59.3826 211.446C60.0235 211.757 60.7265 211.916 61.4376 211.91C62.1487 211.904 62.8489 211.733 63.4844 211.41L117.567 183.824L167.56 182.222C168.179 182.202 168.786 182.049 169.342 181.773C169.898 181.496 170.389 181.103 170.782 180.619C171.176 180.135 171.463 179.572 171.625 178.967C171.786 178.362 171.818 177.729 171.719 177.11L164.918 134.989C164.564 132.793 162.952 129.64 160.773 129.7Z" fill="#223C6A"/>
<path opacity="0.2" d="M112.328 140.287L155.658 137.588" stroke="black" stroke-width="2" stroke-linecap="round" stroke-linejoin="round"/>
<path opacity="0.2" d="M107.138 141.42L115.054 178.228" stroke="black" stroke-width="2" stroke-linecap="round" stroke-linejoin="round"/>
<path opacity="0.2" d="M54.3594 174.652L59.9418 202.963C59.9418 202.963 64.2206 191.732 54.3594 174.652Z" fill="#F9F9F9"/>
<path opacity="0.2" d="M55.0908 174.985C55.2849 175.488 104.676 154.032 104.676 154.032C104.809 158.897 103.608 163.703 101.205 167.918C98.8016 172.133 95.2909 175.59 91.0629 177.906C76.1964 186.342 55.0908 174.985 55.0908 174.985Z" fill="#F9F9F9"/>
<path d="M87.8987 175.821C89.0803 175.821 90.0381 174.851 90.0381 173.655C90.0381 172.459 89.0803 171.489 87.8987 171.489C86.7171 171.489 85.7593 172.459 85.7593 173.655C85.7593 174.851 86.7171 175.821 87.8987 175.821Z" fill="#223C6A"/>
<path opacity="0.2" d="M104.7 154.032C104.7 154.032 110.825 163.365 109.342 179.261L104.7 154.032Z" fill="black"/>
<g opacity="0.2">
<path opacity="0.2" d="M51.9961 163.531L53.1355 163.023" stroke="#F9F9F9" stroke-linecap="round" stroke-linejoin="round"/>
<path opacity="0.2" d="M55.4985 161.965L101.62 141.325" stroke="#F9F9F9" stroke-linecap="round" stroke-linejoin="round" stroke-dasharray="5.2 5.2"/>
<path opacity="0.2" d="M102.805 140.796L103.939 140.287" stroke="#F9F9F9" stroke-linecap="round" stroke-linejoin="round"/>
</g>
<path opacity="0.2" d="M113.78 148.562L157.111 145.858" stroke="black" stroke-width="2" stroke-linecap="round" stroke-linejoin="round"/>
<path opacity="0.2" d="M115.73 158.882L159.061 156.178" stroke="black" stroke-width="2" stroke-linecap="round" stroke-linejoin="round"/>
<path d="M149.563 85.5691C149.563 85.5691 148.473 97.3196 144.16 98.332C141.488 98.9161 138.703 98.6341 136.199 97.5261L132.692 94.7962L130.98 100.84C130.98 100.84 132.851 103.414 136.756 101.631C136.756 101.631 143.722 104.734 147.573 101.631C151.424 98.5284 152.658 90.0165 152.658 90.0165L149.563 85.5691Z" fill="#FFB573"/>
<path d="M153.031 79.8777C153.031 79.8777 150.021 74.6849 151.389 65.2714C152.757 55.8579 160.553 54.6944 163.564 55.3744C166.574 56.0543 169.037 58.9806 171.086 64.5511C173.136 70.1217 173.893 71.5722 177.311 70.5951C180.729 69.618 189.824 66.5658 192.356 69.2806C193.085 70.0221 193.621 70.9339 193.919 71.9353C194.217 72.9368 194.266 73.997 194.063 75.0223C194.063 75.0223 206.715 71.9097 205.621 83.3328C204.526 94.7559 186.266 105.419 168.897 94.1314C151.528 82.8443 153.031 79.8777 153.031 79.8777Z" fill="#263238"/>
<path d="M152.892 107.524C152.892 107.524 149.454 137.457 149.568 151.494C149.683 165.531 154.608 198.612 154.608 198.612H160.683C160.683 198.612 159.882 172.159 159.997 163.108C160.111 154.057 161.713 139.083 161.713 139.083C161.713 139.083 163.659 152.541 165.952 157.296C168.246 162.051 180.968 178.878 189.794 184.101L193.919 180.268C193.919 180.268 184.749 168.785 181.311 163.098C177.873 157.412 174.784 155.8 173.52 145.223C172.256 134.646 174.44 117.728 170.773 107.519L152.892 107.524Z" fill="#263238"/>
<path opacity="0.2" d="M161.713 139.083L159.071 120.11C159.071 120.11 156.986 131.513 161.091 145.44L161.713 139.083Z" fill="black"/>
<path d="M155.857 200.289L156.061 206.166L160.136 206.509L160.34 205.96V199.876L155.857 200.289Z" fill="#FFB573"/>
<path d="M153.921 198.053L154.295 200.254L161.29 200.425L161.733 197.781L153.921 198.053Z" fill="#223C6A"/>
<path d="M187.878 184.509L194.361 178.395L195.789 180.696L190.222 185.854L187.878 184.509Z" fill="#223C6A"/>
<path d="M191.003 184.509L195.282 188.155L198.029 184.887L194.516 181.21L191.003 184.509Z" fill="#FFB573"/>
<path d="M198.859 184.635L201.446 186.247C201.564 186.32 201.665 186.419 201.741 186.536C201.817 186.653 201.867 186.786 201.888 186.924C201.908 187.063 201.898 187.204 201.859 187.339C201.82 187.473 201.752 187.597 201.66 187.702C199.785 189.848 194.993 195.298 194.516 195.68C193.923 196.184 193.207 195.338 193.023 194.582C193.023 194.582 194.381 192.759 194.516 191.591C194.572 190.688 194.572 189.783 194.516 188.881C194.505 188.655 194.58 188.434 194.725 188.261L197.615 184.826C197.765 184.647 197.973 184.529 198.202 184.494C198.43 184.459 198.664 184.509 198.859 184.635Z" fill="#263238"/>
<path d="M161.131 206.67L161.668 209.692C161.693 209.831 161.687 209.973 161.652 210.108C161.617 210.244 161.553 210.37 161.464 210.478C161.375 210.586 161.264 210.674 161.139 210.733C161.013 210.793 160.877 210.825 160.738 210.826C157.907 210.826 150.702 210.856 150.1 210.755C149.349 210.629 149.483 209.541 149.926 208.907C149.926 208.907 152.17 208.715 153.111 208.025C153.81 207.47 154.475 206.871 155.101 206.232C155.261 206.074 155.474 205.982 155.698 205.975L160.151 205.87C160.382 205.861 160.609 205.937 160.789 206.085C160.969 206.232 161.09 206.44 161.131 206.67Z" fill="#263238"/>
<path d="M171.425 90.9231L177.634 86.511C177.634 86.511 175.982 79.8223 173.534 79.4899C171.086 79.1575 158.936 76.8154 151.21 79.4899C151.21 79.4899 148.433 80.2907 147.578 88.1832L150.881 89.2509C150.881 89.2509 152.065 104.028 152.797 106.305H170.43C170.43 106.305 170.629 93.5976 171.425 90.9231Z" fill="#223C6A"/>
<path d="M172.763 89.9712C172.763 89.9712 175.117 96.7706 175.535 100.427C175.535 100.427 169.942 98.1708 168.499 97.1383L167.405 93.1594L163.703 91.331L162.604 94.353L165.693 98.2313C165.693 98.2313 174.117 106.209 178.385 104.386C182.654 102.563 176.699 87.1909 176.699 87.1909L172.763 89.9712Z" fill="#FFB573"/>
<path d="M156.966 60.1995C156.966 60.1995 154.812 64.5512 154.976 68.0919C155.14 71.6327 156.907 73.0782 160.265 73.5769C160.265 73.5769 161.698 78.1098 157.937 78.5682C157.648 78.6034 157.549 79.7568 157.568 79.9432C157.668 80.6785 158.389 81.0815 159.061 81.2527C159.768 81.4113 160.491 81.4923 161.215 81.4945C161.976 81.521 162.733 81.372 163.429 81.0588C164.124 80.7455 164.741 80.2762 165.231 79.6863C165.31 79.5906 166.066 78.6135 166.066 78.6135C166.066 78.6135 164.27 77.7119 164.902 71.809C165.759 71.2441 166.418 70.4189 166.783 69.4518C167.126 69.2674 167.429 69.0157 167.675 68.7113C167.921 68.4069 168.105 68.056 168.216 67.6789C168.484 66.5003 167.455 64.8685 165.574 66.5004C165.574 66.5004 162.031 64.6872 160.688 58.3359C159.692 59.366 158.38 60.0231 156.966 60.1995Z" fill="#FFB573"/>
<path d="M157.977 67.125L158.28 64.7981L156.653 66.6214C156.821 66.8022 157.028 66.9417 157.257 67.029C157.487 67.1163 157.733 67.1492 157.977 67.125Z" fill="#ED893E"/>
<path d="M158.922 68.8274C158.922 68.8274 160.638 69.0943 161.464 67.9812" stroke="#222221" stroke-width="0.75" stroke-linecap="round" stroke-linejoin="round"/>
<path d="M160.638 61.5392C161.028 61.427 161.44 61.4235 161.832 61.529C162.223 61.6345 162.579 61.8451 162.862 62.1385" stroke="#222221" stroke-linecap="round" stroke-linejoin="round"/>
<path d="M157.668 61.0355C157.668 61.0355 156.673 60.8793 156.23 61.4485" stroke="#222221" stroke-linecap="round" stroke-linejoin="round"/>
<path d="M161.33 64.6014C161.285 64.9539 161.061 65.2108 160.832 65.1806C160.604 65.1504 160.449 64.8431 160.494 64.4906C160.539 64.138 160.763 63.8811 160.992 63.9113C161.22 63.9416 161.375 64.2488 161.33 64.6014Z" fill="#222221"/>
<path d="M157.358 63.8219C157.403 63.4716 157.251 63.1629 157.02 63.1324C156.788 63.102 156.564 63.3613 156.519 63.7116C156.474 64.062 156.625 64.3706 156.857 64.4011C157.089 64.4315 157.313 64.1722 157.358 63.8219Z" fill="#222221"/>
<path d="M160.997 63.9115L160.21 63.564C160.221 63.6511 160.253 63.7339 160.305 63.8043C160.357 63.8747 160.426 63.9302 160.505 63.9654C160.585 64.0005 160.672 64.014 160.758 64.0045C160.844 63.9951 160.926 63.963 160.997 63.9115Z" fill="#222221"/>
<path d="M157.096 63.1661L156.31 62.8186C156.32 62.9057 156.353 62.9886 156.404 63.059C156.456 63.1294 156.525 63.1849 156.604 63.22C156.684 63.2551 156.771 63.2686 156.857 63.2592C156.943 63.2497 157.026 63.2176 157.096 63.1661Z" fill="#222221"/>
<path d="M152.18 105.519V107.619L171.286 107.781L170.773 105.282L152.18 105.519Z" fill="#223C6A"/>
<path opacity="0.4" d="M152.18 105.519V107.619L171.286 107.781L170.773 105.282L152.18 105.519Z" fill="white"/>
<path d="M152.414 95.325L141.906 132.324C141.557 133.563 140.849 134.668 139.873 135.496C138.898 136.323 137.7 136.836 136.433 136.968C135.627 137.046 134.814 136.971 134.035 136.746L113.95 130.899C112.326 130.425 110.954 129.318 110.135 127.821C109.317 126.325 109.117 124.561 109.581 122.916L120.094 85.9065C120.564 84.265 121.657 82.8789 123.134 82.0519C124.611 81.2249 126.352 81.0244 127.975 81.4944L148.076 87.3369C149.696 87.8163 151.062 88.9263 151.875 90.4236C152.689 91.9208 152.882 93.6834 152.414 95.325Z" fill="#223C6A"/>
<path opacity="0.2" d="M152.414 95.325L141.906 132.324C141.557 133.563 140.849 134.668 139.873 135.496C138.898 136.323 137.7 136.836 136.433 136.968C135.627 137.046 134.814 136.971 134.035 136.746L113.95 130.899C112.326 130.425 110.954 129.318 110.135 127.821C109.317 126.325 109.117 124.561 109.581 122.916L120.094 85.9065C120.564 84.265 121.657 82.8789 123.134 82.0519C124.611 81.2249 126.352 81.0244 127.975 81.4944L148.076 87.3369C149.696 87.8163 151.062 88.9263 151.875 90.4236C152.689 91.9208 152.882 93.6834 152.414 95.325Z" fill="black"/>
<path d="M150.668 95.7631L140.16 132.767C139.894 133.709 139.42 134.577 138.772 135.305C138.124 136.033 137.321 136.602 136.424 136.968C135.617 137.046 134.804 136.971 134.025 136.746L113.95 130.899C112.326 130.424 110.954 129.318 110.135 127.821C109.317 126.325 109.117 124.561 109.581 122.916L120.094 85.9064C120.36 84.9657 120.835 84.0991 121.483 83.3728C122.131 82.6465 122.934 82.0797 123.831 81.7159C124.637 81.6328 125.451 81.708 126.229 81.9375L146.29 87.8052C147.91 88.2764 149.281 89.3781 150.101 90.8694C150.922 92.3607 151.126 94.1201 150.668 95.7631Z" fill="#223C6A"/>
<path opacity="0.5" d="M150.668 95.7631L140.16 132.767C139.894 133.709 139.42 134.577 138.772 135.305C138.124 136.033 137.321 136.602 136.424 136.968C135.617 137.046 134.804 136.971 134.025 136.746L113.95 130.899C112.326 130.424 110.954 129.318 110.135 127.821C109.317 126.325 109.117 124.561 109.581 122.916L120.094 85.9064C120.36 84.9657 120.835 84.0991 121.483 83.3728C122.131 82.6465 122.934 82.0797 123.831 81.7159C124.637 81.6328 125.451 81.708 126.229 81.9375L146.29 87.8052C147.91 88.2764 149.281 89.3781 150.101 90.8694C150.922 92.3607 151.126 94.1201 150.668 95.7631Z" fill="#F9F9F9"/>
<path d="M122.418 98.9099L120.268 98.2964L112.529 126.094L114.679 126.707L122.418 98.9099Z" fill="#F9F9F9"/>
<path d="M117.766 127.59L115.616 126.96L123.353 99.1731L125.497 99.7976L117.766 127.59Z" fill="#F9F9F9"/>
<path d="M120.89 128.496L118.741 127.872L126.477 100.085L128.627 100.709L120.89 128.496Z" fill="#F9F9F9"/>
<path opacity="0.5" d="M141.139 104.351L138.989 103.737L131.25 131.535L133.4 132.148L141.139 104.351Z" fill="black"/>
<path d="M140.867 96.4935L139.822 100.266L138.548 99.9033C137.931 99.7262 137.409 99.3086 137.096 98.7421C136.782 98.1756 136.703 97.5065 136.877 96.8814L137.573 94.363L140.145 95.1085C140.422 95.1955 140.654 95.3902 140.789 95.6499C140.924 95.9096 140.952 96.213 140.867 96.4935Z" fill="#F9F9F9"/>
<path d="M140.254 94.6451L137.682 93.8997L138.453 91.1396C138.539 90.8299 138.685 90.5405 138.882 90.2878C139.078 90.0352 139.322 89.8242 139.599 89.6671C139.877 89.5099 140.182 89.4096 140.497 89.3719C140.813 89.3341 141.133 89.3598 141.439 89.4473L142.762 89.825L141.608 93.8896C141.569 94.0301 141.504 94.1615 141.415 94.2759C141.325 94.3904 141.214 94.4856 141.088 94.556C140.962 94.6264 140.823 94.6705 140.68 94.6858C140.537 94.7011 140.392 94.6873 140.254 94.6451Z" fill="#F9F9F9"/>
<path d="M142.693 95.8638L145.28 96.6142L144.593 99.0772C144.508 99.3875 144.363 99.6778 144.167 99.9311C143.971 100.185 143.727 100.396 143.449 100.553C143.172 100.711 142.866 100.811 142.55 100.848C142.234 100.885 141.914 100.858 141.608 100.769L140.265 100.387L141.334 96.6193C141.374 96.4789 141.44 96.3479 141.53 96.2338C141.62 96.1196 141.731 96.0247 141.858 95.9544C141.984 95.8842 142.123 95.84 142.266 95.8244C142.41 95.8088 142.554 95.8222 142.693 95.8638Z" fill="#F9F9F9"/>
<path d="M146.195 93.3457L145.414 96.146L142.827 95.3956C142.55 95.3136 142.316 95.1242 142.176 94.8686C142.036 94.613 142.002 94.3118 142.08 94.0306L143.235 89.9661L144.523 90.3337C144.828 90.4204 145.114 90.567 145.363 90.7653C145.612 90.9635 145.82 91.2095 145.975 91.4892C146.131 91.7689 146.23 92.0768 146.268 92.3953C146.305 92.7138 146.281 93.0368 146.195 93.3457Z" fill="#F9F9F9"/>
</g>
<defs>
<clipPath id="clip0_712_471">
<rect width="248.769" height="251.833" fill="white" transform="translate(0.0131836 0.16748)"/>
</clipPath>
</defs>
</svg>
